<?xml version="1.0" encoding="UTF-8"?>
<!DOCTYPE svg PUBLIC "-//W3C//DTD SVG 1.1//EN" "http://www.w3.org/Graphics/SVG/1.1/DTD/svg11.dtd">
<svg xmlns="http://www.w3.org/2000/svg" version="1.1" width="600px" height="600px" style="shape-rendering:geometricPrecision; text-rendering:geometricPrecision; image-rendering:optimizeQuality; fill-rule:evenodd; clip-rule:evenodd" xmlns:xlink="http://www.w3.org/1999/xlink">
<g><path style="opacity:0.173" fill="#120e03" d="M 277.5,-0.5 C 298.833,-0.5 320.167,-0.5 341.5,-0.5C 355.746,0.384802 370.08,1.8848 384.5,4C 403.133,5.64183 414.633,15.4752 419,33.5C 422.167,48.0025 425.334,62.5025 428.5,77C 427.767,78.7659 427.433,80.5992 427.5,82.5C 423.872,97.5379 422.872,112.871 424.5,128.5C 423.001,123.755 422.334,118.755 422.5,113.5C 423.101,101.09 424.434,88.7568 426.5,76.5C 423.702,60.3451 420.202,44.3451 416,28.5C 409.755,13.9375 398.588,6.10418 382.5,5C 329.176,-0.926328 275.842,-0.926328 222.5,5C 210.018,5.7017 198.352,9.03503 187.5,15C 183.896,17.7076 181.396,21.2076 180,25.5C 176.788,42.4851 173.621,59.4851 170.5,76.5C 171.269,79.1147 171.603,81.7814 171.5,84.5C 171.5,84.8333 171.5,85.1667 171.5,85.5C 170.833,84.1667 170.167,82.8333 169.5,81.5C 171.789,63.43 174.623,45.43 178,27.5C 181.21,17.2918 188.044,10.7918 198.5,8C 203.448,6.74369 208.448,5.74369 213.5,5C 234.936,2.58046 256.27,0.747126 277.5,-0.5 Z"/></g>
<g><path style="opacity:0.775" fill="#5d5557" d="M 169.5,81.5 C 170.167,82.8333 170.833,84.1667 171.5,85.5C 173.177,98.7685 173.843,112.102 173.5,125.5C 173.5,125.833 173.5,126.167 173.5,126.5C 172.388,128.599 171.721,130.933 171.5,133.5C 170.883,133.389 170.383,133.056 170,132.5C 169.5,115.503 169.333,98.5033 169.5,81.5 Z"/></g>
<g><path style="opacity:0.983" fill="#5e5658" d="M 427.5,82.5 C 427.667,98.5035 427.5,114.503 427,130.5C 426.617,131.056 426.117,131.389 425.5,131.5C 425.167,131.5 424.833,131.5 424.5,131.5C 424.5,130.5 424.5,129.5 424.5,128.5C 422.872,112.871 423.872,97.5379 427.5,82.5 Z"/></g>
<g><path style="opacity:1" fill="#352d1b" d="M 171.5,84.5 C 173.763,93.8946 175.096,103.561 175.5,113.5C 175.282,117.713 174.616,121.713 173.5,125.5C 173.843,112.102 173.177,98.7685 171.5,85.5C 171.5,85.1667 171.5,84.8333 171.5,84.5 Z"/></g>
<g><path style="opacity:0.428" fill="#181303" d="M 173.5,126.5 C 172.746,156.287 174.413,185.953 178.5,215.5C 178.5,215.833 178.5,216.167 178.5,216.5C 170.149,215.674 165.482,219.508 164.5,228C 164.84,230.511 165.84,232.678 167.5,234.5C 165.983,234.489 164.816,233.823 164,232.5C 162.642,225.909 164.475,220.409 169.5,216C 171.81,215.503 174.143,215.337 176.5,215.5C 173.2,188.27 171.534,160.936 171.5,133.5C 171.721,130.933 172.388,128.599 173.5,126.5 Z"/></g>
<g><path style="opacity:0.383" fill="#161101" d="M 424.5,131.5 C 424.833,131.5 425.167,131.5 425.5,131.5C 425.97,135.981 426.303,140.481 426.5,145C 425.33,167.211 423.664,189.378 421.5,211.5C 424.689,211.858 427.689,212.525 430.5,213.5C 428.167,213.5 425.833,213.5 423.5,213.5C 422.167,212.833 420.833,212.167 419.5,211.5C 422.496,184.919 424.162,158.252 424.5,131.5 Z"/></g>
<g><path style="opacity:1" fill="#f4cc00" d="M 423.5,213.5 C 425.833,213.5 428.167,213.5 430.5,213.5C 430.427,215.027 431.094,216.027 432.5,216.5C 432.427,218.027 433.094,219.027 434.5,219.5C 434.833,222.167 435.167,224.833 435.5,227.5C 435.573,229.027 434.906,230.027 433.5,230.5C 428.416,230.369 423.082,230.369 417.5,230.5C 415.172,229.282 412.672,228.282 410,227.5C 409.501,222.511 409.334,217.511 409.5,212.5C 414.152,212.998 418.819,213.331 423.5,213.5 Z"/></g>
<g><path style="opacity:0.729" fill="#4a3d05" d="M 430.5,213.5 C 431.906,213.973 432.573,214.973 432.5,216.5C 431.094,216.027 430.427,215.027 430.5,213.5 Z"/></g>
<g><path style="opacity:1" fill="#f0c800" d="M 178.5,216.5 C 182.833,216.5 187.167,216.5 191.5,216.5C 191.666,221.179 191.499,225.845 191,230.5C 187.446,231.958 183.946,233.292 180.5,234.5C 180.167,234.5 179.833,234.5 179.5,234.5C 175.5,234.5 171.5,234.5 167.5,234.5C 165.84,232.678 164.84,230.511 164.5,228C 165.482,219.508 170.149,215.674 178.5,216.5 Z"/></g>
<g><path style="opacity:1" fill="#987e00" d="M 181.5,234.5 C 181.167,234.5 180.833,234.5 180.5,234.5C 183.946,233.292 187.446,231.958 191,230.5C 191.499,225.845 191.666,221.179 191.5,216.5C 187.167,216.5 182.833,216.5 178.5,216.5C 178.5,216.167 178.5,215.833 178.5,215.5C 183.141,214.873 187.807,214.54 192.5,214.5C 192.666,220.176 192.499,225.843 192,231.5C 188.761,233.352 185.261,234.352 181.5,234.5 Z"/></g>
<g><path style="opacity:0.753" fill="#4c4005" d="M 432.5,216.5 C 433.906,216.973 434.573,217.973 434.5,219.5C 433.094,219.027 432.427,218.027 432.5,216.5 Z"/></g>
<g><path style="opacity:0.563" fill="#534606" d="M 434.5,219.5 C 436.584,221.993 436.917,224.66 435.5,227.5C 435.167,224.833 434.833,222.167 434.5,219.5 Z"/></g>
<g><path style="opacity:1" fill="#2d2400" d="M 403.5,220.5 C 405.197,222.305 406.03,224.639 406,227.5C 407.167,270.169 408.333,312.835 409.5,355.5C 408.668,374.662 408.168,393.996 408,413.5C 403.98,404.786 399.48,396.453 394.5,388.5C 393.313,385.054 392.646,381.387 392.5,377.5C 393.833,342.833 393.833,308.167 392.5,273.5C 395.916,258.918 398.916,244.251 401.5,229.5C 402.913,226.781 403.58,223.781 403.5,220.5 Z"/></g>
<g><path style="opacity:1" fill="#e6bf00" d="M 409.5,230.5 C 409.75,240.503 410.084,250.503 410.5,260.5C 410.176,267.354 410.509,274.021 411.5,280.5C 411.5,290.5 411.5,300.5 411.5,310.5C 411.666,317.175 411.5,323.842 411,330.5C 410.317,301.307 409.151,272.14 407.5,243C 407.833,238.167 408.167,233.333 408.5,228.5C 409.298,228.957 409.631,229.624 409.5,230.5 Z"/></g>
<g><path style="opacity:1" fill="#69580b" d="M 433.5,230.5 C 428.672,232.748 423.672,233.082 418.5,231.5C 417.833,231.5 417.5,231.167 417.5,230.5C 423.082,230.369 428.416,230.369 433.5,230.5 Z"/></g>
<g><path style="opacity:0.04" fill="#251e04" d="M 167.5,234.5 C 171.5,234.5 175.5,234.5 179.5,234.5C 179.5,234.833 179.5,235.167 179.5,235.5C 175.241,237.029 171.241,236.696 167.5,234.5 Z"/></g>
<g><path style="opacity:1" fill="#b39400" d="M 419.5,211.5 C 420.833,212.167 422.167,212.833 423.5,213.5C 418.819,213.331 414.152,212.998 409.5,212.5C 409.334,217.511 409.501,222.511 410,227.5C 412.672,228.282 415.172,229.282 417.5,230.5C 417.167,230.5 416.833,230.5 416.5,230.5C 414.259,230.046 412.259,230.046 410.5,230.5C 410.167,230.5 409.833,230.5 409.5,230.5C 409.631,229.624 409.298,228.957 408.5,228.5C 408.167,233.333 407.833,238.167 407.5,243C 409.151,272.14 410.317,301.307 411,330.5C 411.5,323.842 411.666,317.175 411.5,310.5C 412.492,318.316 412.826,326.316 412.5,334.5C 411.713,364.838 411.38,395.171 411.5,425.5C 410.833,423.833 410.167,422.167 409.5,420.5C 409.983,399.005 409.983,377.339 409.5,355.5C 408.333,312.835 407.167,270.169 406,227.5C 406.03,224.639 405.197,222.305 403.5,220.5C 404.023,217.11 404.857,213.777 406,210.5C 406.333,213.5 406.667,216.5 407,219.5C 407.497,216.854 407.664,214.187 407.5,211.5C 411.5,211.5 415.5,211.5 419.5,211.5 Z"/></g>
<g><path style="opacity:0.277" fill="#110d01" d="M 179.5,234.5 C 179.833,234.5 180.167,234.5 180.5,234.5C 180.833,234.5 181.167,234.5 181.5,234.5C 182.567,244.806 182.733,255.14 182,265.5C 179.277,282.06 177.611,298.727 177,315.5C 176.118,374.516 176.618,433.516 178.5,492.5C 177.833,487.167 177.167,481.833 176.5,476.5C 174.407,421.504 174.241,366.504 176,311.5C 176.455,298.075 177.788,284.742 180,271.5C 180.792,259.454 180.626,247.454 179.5,235.5C 179.5,235.167 179.5,234.833 179.5,234.5 Z"/></g>
<g><path style="opacity:0.407" fill="#181302" d="M 416.5,230.5 C 416.833,230.5 417.167,230.5 417.5,230.5C 417.5,231.167 417.833,231.5 418.5,231.5C 417.092,239.049 416.425,246.716 416.5,254.5C 417.541,271.206 419.041,287.873 421,304.5C 423.08,359.237 422.913,413.903 420.5,468.5C 420.81,471.713 420.477,474.713 419.5,477.5C 420.551,421.171 420.718,364.838 420,308.5C 419.471,296.071 418.137,283.738 416,271.5C 415.304,257.817 415.471,244.151 416.5,230.5 Z"/></g>
<g><path style="opacity:0.897" fill="#534c4a" d="M 420.5,468.5 C 421.662,486.329 421.829,504.329 421,522.5C 420.292,523.381 419.458,524.047 418.5,524.5C 418.822,518.642 418.489,512.975 417.5,507.5C 418.138,497.492 418.805,487.492 419.5,477.5C 420.477,474.713 420.81,471.713 420.5,468.5 Z"/></g>
<g><path style="opacity:0.804" fill="#564d4b" d="M 176.5,476.5 C 177.167,481.833 177.833,487.167 178.5,492.5C 179.656,505.155 180.656,517.822 181.5,530.5C 180.833,531.167 180.167,531.833 179.5,532.5C 178.206,531.71 177.039,530.71 176,529.5C 175.171,511.662 175.338,493.995 176.5,476.5 Z"/></g>
<g><path style="opacity:1" fill="#e3bc00" d="M 424.5,128.5 C 424.5,129.5 424.5,130.5 424.5,131.5C 424.162,158.252 422.496,184.919 419.5,211.5C 415.5,211.5 411.5,211.5 407.5,211.5C 407.664,214.187 407.497,216.854 407,219.5C 406.667,216.5 406.333,213.5 406,210.5C 404.857,213.777 404.023,217.11 403.5,220.5C 403.58,223.781 402.913,226.781 401.5,229.5C 400.616,232.023 399.782,234.69 399,237.5C 400.687,222.567 402.187,207.567 403.5,192.5C 389.014,187.505 374.347,183.005 359.5,179C 363.199,178.904 366.866,179.404 370.5,180.5C 371.416,180.457 372.083,180.124 372.5,179.5C 373.492,179.328 374.158,179.662 374.5,180.5C 382.274,183.108 390.607,186.108 399.5,189.5C 400.442,189.392 401.275,189.059 402,188.5C 403.528,184.389 403.694,180.389 402.5,176.5C 403.552,167.364 404.552,158.364 405.5,149.5C 405.338,151.527 405.505,153.527 406,155.5C 409.722,116.51 410.056,77.5098 407,38.5C 406.275,32.5994 404.775,26.9327 402.5,21.5C 401.958,16.2674 399.291,12.434 394.5,10C 380.745,5.86821 366.745,4.70154 352.5,6.5C 354.38,9.61358 356.713,12.2802 359.5,14.5C 357.696,15.162 355.696,15.4954 353.5,15.5C 314.737,12.3184 276.07,13.1517 237.5,18C 238.094,18.4643 238.761,18.631 239.5,18.5C 238.432,19.4345 237.099,19.7678 235.5,19.5C 234.167,18.8333 232.833,18.1667 231.5,17.5C 236.279,16.7288 239.612,14.0622 241.5,9.5C 228.748,8.54079 216.081,9.37412 203.5,12C 195.558,15.4225 191.891,21.2558 192.5,29.5C 193.183,29.1373 193.85,28.8039 194.5,28.5C 195.492,28.3284 196.158,28.6618 196.5,29.5C 194.284,30.2026 192.451,31.5359 191,33.5C 189.687,37.4204 188.687,41.4204 188,45.5C 184.472,85.5321 184.805,125.532 189,165.5C 189.903,172.254 191.237,178.921 193,185.5C 193.424,188.025 194.59,190.025 196.5,191.5C 196.414,192.496 196.748,193.329 197.5,194C 196.342,195.009 195.675,196.342 195.5,198C 200.509,223.04 205.842,248.04 211.5,273C 211.333,273.833 211.167,274.667 211,275.5C 207.285,258.469 202.785,241.802 197.5,225.5C 197.5,225.167 197.5,224.833 197.5,224.5C 197.111,221.054 196.278,217.721 195,214.5C 192.335,264.455 190.669,314.455 190,364.5C 189.667,371.5 189.333,378.5 189,385.5C 188.501,379.843 188.334,374.176 188.5,368.5C 188.5,362.167 188.5,355.833 188.5,349.5C 189.037,329.171 189.37,308.837 189.5,288.5C 190.488,283.36 190.821,278.026 190.5,272.5C 190.901,260.161 191.067,247.828 191,235.5C 189.748,247.801 189.248,260.134 189.5,272.5C 188.617,277.103 188.283,281.77 188.5,286.5C 187.843,305.159 187.509,323.826 187.5,342.5C 186.501,389.664 186.168,436.997 186.5,484.5C 185.909,512.617 187.409,540.617 191,568.5C 191.383,569.056 191.883,569.389 192.5,569.5C 193.338,569.842 193.672,570.508 193.5,571.5C 197.412,573.982 201.745,575.815 206.5,577C 242.342,585.486 278.675,588.652 315.5,586.5C 339.212,585.492 362.545,581.992 385.5,576C 390.464,574.629 395.131,572.796 399.5,570.5C 402.754,570.206 405.421,568.873 407.5,566.5C 408.793,565.158 409.626,563.491 410,561.5C 411.245,553.871 412.079,546.205 412.5,538.5C 413.099,527.844 413.433,517.177 413.5,506.5C 414.485,502.366 414.818,498.032 414.5,493.5C 414.832,442.331 414.499,391.331 413.5,340.5C 413.545,319.492 413.212,298.492 412.5,277.5C 412.824,270.646 412.491,263.979 411.5,257.5C 411.716,248.467 411.383,239.467 410.5,230.5C 412.259,230.046 414.259,230.046 416.5,230.5C 415.471,244.151 415.304,257.817 416,271.5C 418.137,283.738 419.471,296.071 420,308.5C 420.718,364.838 420.551,421.171 419.5,477.5C 418.805,487.492 418.138,497.492 417.5,507.5C 416.71,523.19 415.543,538.857 414,554.5C 413.359,562.351 411.859,570.017 409.5,577.5C 402.61,581.409 395.277,584.242 387.5,586C 333.705,595.61 279.705,596.944 225.5,590C 212.704,587.401 200.371,583.401 188.5,578C 187.874,577.25 187.374,576.416 187,575.5C 184.18,560.618 182.346,545.618 181.5,530.5C 180.656,517.822 179.656,505.155 178.5,492.5C 176.618,433.516 176.118,374.516 177,315.5C 177.611,298.727 179.277,282.06 182,265.5C 182.733,255.14 182.567,244.806 181.5,234.5C 185.261,234.352 188.761,233.352 192,231.5C 192.499,225.843 192.666,220.176 192.5,214.5C 187.807,214.54 183.141,214.873 178.5,215.5C 174.413,185.953 172.746,156.287 173.5,126.5C 173.5,126.167 173.5,125.833 173.5,125.5C 174.616,121.713 175.282,117.713 175.5,113.5C 175.096,103.561 173.763,93.8946 171.5,84.5C 171.603,81.7814 171.269,79.1147 170.5,76.5C 173.621,59.4851 176.788,42.4851 180,25.5C 181.396,21.2076 183.896,17.7076 187.5,15C 198.352,9.03503 210.018,5.7017 222.5,5C 275.842,-0.926328 329.176,-0.926328 382.5,5C 398.588,6.10418 409.755,13.9375 416,28.5C 420.202,44.3451 423.702,60.3451 426.5,76.5C 424.434,88.7568 423.101,101.09 422.5,113.5C 422.334,118.755 423.001,123.755 424.5,128.5 Z"/></g>
<g><path style="opacity:1" fill="#504308" d="M 186.5,484.5 C 186.833,484.5 187.167,484.5 187.5,484.5C 187.548,512.949 189.214,541.282 192.5,569.5C 191.883,569.389 191.383,569.056 191,568.5C 187.409,540.617 185.909,512.617 186.5,484.5 Z"/></g>
<g><path style="opacity:1" fill="#443908" d="M 412.5,501.5 C 413.451,502.919 413.784,504.585 413.5,506.5C 413.433,517.177 413.099,527.844 412.5,538.5C 412.167,538.5 411.833,538.5 411.5,538.5C 411.675,526.161 412.008,513.828 412.5,501.5 Z"/></g>
<g><path style="opacity:1" fill="#8c7400" d="M 413.5,467.5 C 413.174,476.349 413.507,485.016 414.5,493.5C 414.818,498.032 414.485,502.366 413.5,506.5C 413.784,504.585 413.451,502.919 412.5,501.5C 412.172,489.988 412.505,478.654 413.5,467.5 Z"/></g>
<g><path style="opacity:1" fill="#1e1800" d="M 409.5,355.5 C 409.983,377.339 409.983,399.005 409.5,420.5C 408.674,417.515 407.341,414.849 405.5,412.5C 401.833,404.5 398.167,396.5 394.5,388.5C 399.48,396.453 403.98,404.786 408,413.5C 408.168,393.996 408.668,374.662 409.5,355.5 Z"/></g>
<g><path style="opacity:1" fill="#201a00" d="M 191.5,367.5 C 192.332,383.995 192.832,400.662 193,417.5C 193.383,416.944 193.883,416.611 194.5,416.5C 194.167,417.833 193.833,419.167 193.5,420.5C 192.662,420.842 192.328,421.508 192.5,422.5C 191.883,422.611 191.383,422.944 191,423.5C 190.833,420.167 190.667,416.833 190.5,413.5C 191.315,398.177 191.648,382.844 191.5,367.5 Z"/></g>
<g><path style="opacity:1" fill="#ceab00" d="M 412.5,334.5 C 412.5,337.5 412.5,340.5 412.5,343.5C 413.037,371.164 413.371,398.83 413.5,426.5C 412.508,426.672 411.842,426.338 411.5,425.5C 411.38,395.171 411.713,364.838 412.5,334.5 Z"/></g>
<g><path style="opacity:1" fill="#e9c200" d="M 187.5,390.5 C 188.331,403.327 188.831,416.327 189,429.5C 190.705,427.423 191.872,425.09 192.5,422.5C 192.328,421.508 192.662,420.842 193.5,420.5C 200.223,411.049 205.89,401.049 210.5,390.5C 211.712,400.684 213.879,410.684 217,420.5C 217.278,419.584 217.778,418.918 218.5,418.5C 213.877,446.339 210.21,474.339 207.5,502.5C 206.789,512.023 205.789,521.523 204.5,531C 204.667,532.5 204.833,534 205,535.5C 214.095,540.904 223.928,544.404 234.5,546C 265.604,552.64 296.937,554.307 328.5,551C 346.982,548.571 364.982,544.238 382.5,538C 386.44,536.114 389.94,533.614 393,530.5C 393.667,522.833 393.667,515.167 393,507.5C 391.613,496.853 390.446,486.186 389.5,475.5C 387.664,458.145 385.664,440.812 383.5,423.5C 387.397,413.244 390.064,402.577 391.5,391.5C 396.167,398.5 400.833,405.5 405.5,412.5C 407.341,414.849 408.674,417.515 409.5,420.5C 410.167,422.167 410.833,423.833 411.5,425.5C 411.842,426.338 412.508,426.672 413.5,426.5C 413.5,440.167 413.5,453.833 413.5,467.5C 412.505,478.654 412.172,489.988 412.5,501.5C 412.008,513.828 411.675,526.161 411.5,538.5C 410.639,547.861 409.306,557.194 407.5,566.5C 404.515,567.326 401.849,568.659 399.5,570.5C 371.066,579.507 342.066,584.507 312.5,585.5C 281.592,586.568 250.925,584.402 220.5,579C 211.349,576.963 202.349,574.463 193.5,571.5C 193.672,570.508 193.338,569.842 192.5,569.5C 189.214,541.282 187.548,512.949 187.5,484.5C 187.5,453.167 187.5,421.833 187.5,390.5 Z"/></g>
<g><path style="opacity:1" fill="#b09100" d="M 389.5,475.5 C 390.446,486.186 391.613,496.853 393,507.5C 393.667,515.167 393.667,522.833 393,530.5C 389.94,533.614 386.44,536.114 382.5,538C 364.982,544.238 346.982,548.571 328.5,551C 296.937,554.307 265.604,552.64 234.5,546C 223.928,544.404 214.095,540.904 205,535.5C 204.833,534 204.667,532.5 204.5,531C 205.789,521.523 206.789,512.023 207.5,502.5C 208.75,502.577 209.583,503.244 210,504.5C 210.383,503.944 210.883,503.611 211.5,503.5C 210.145,513.477 209.312,523.477 209,533.5C 216.509,538.228 224.676,541.394 233.5,543C 255.156,547.221 276.99,550.054 299,551.5C 325.867,550.273 352.033,545.439 377.5,537C 381.577,535.213 385.41,533.046 389,530.5C 390.065,527.625 390.565,524.625 390.5,521.5C 389.364,506.476 388.031,491.476 386.5,476.5C 387.609,476.443 388.609,476.11 389.5,475.5 Z"/></g>
<g><path style="opacity:1" fill="#282100" d="M 386.5,476.5 C 388.031,491.476 389.364,506.476 390.5,521.5C 390.565,524.625 390.065,527.625 389,530.5C 385.41,533.046 381.577,535.213 377.5,537C 352.033,545.439 325.867,550.273 299,551.5C 276.99,550.054 255.156,547.221 233.5,543C 224.676,541.394 216.509,538.228 209,533.5C 209.312,523.477 210.145,513.477 211.5,503.5C 214.431,470.951 218.931,438.618 225,406.5C 232.958,408.731 241.124,409.898 249.5,410C 291.957,411.587 334.29,410.087 376.5,405.5C 380.854,429.02 384.187,452.686 386.5,476.5 Z"/></g>
<g><path style="opacity:1" fill="#2c2400" d="M 289.5,412.5 C 309.257,412.437 327.257,417.937 343.5,429C 369.119,451.273 372.619,476.439 354,504.5C 332.187,526.169 306.02,534.335 275.5,529C 251.675,524.53 234.175,511.697 223,490.5C 214.998,461.666 223.831,439.499 249.5,424C 262.155,417.341 275.489,413.507 289.5,412.5 Z"/></g>
<g><path style="opacity:1" fill="#2f2700" d="M 281.5,423.5 C 306.136,420.432 326.97,427.765 344,445.5C 357.924,466.432 356.09,485.932 338.5,504C 309.867,524.819 280.533,525.819 250.5,507C 230.584,490.001 227.084,470.168 240,447.5C 250.767,434.2 264.6,426.2 281.5,423.5 Z"/></g>
<g><path style="opacity:1" fill="#322a00" d="M 285.5,448.5 C 295.686,447.214 305.02,449.381 313.5,455C 324.67,467.306 324.003,478.973 311.5,490C 299.674,496.812 287.674,497.145 275.5,491C 260.331,479.47 259.664,467.137 273.5,454C 277.481,451.838 281.481,450.005 285.5,448.5 Z"/></g>
<g><path style="opacity:1" fill="#b89800" d="M 383.5,423.5 C 385.664,440.812 387.664,458.145 389.5,475.5C 388.609,476.11 387.609,476.443 386.5,476.5C 384.187,452.686 380.854,429.02 376.5,405.5C 334.29,410.087 291.957,411.587 249.5,410C 241.124,409.898 232.958,408.731 225,406.5C 218.931,438.618 214.431,470.951 211.5,503.5C 210.883,503.611 210.383,503.944 210,504.5C 209.583,503.244 208.75,502.577 207.5,502.5C 210.21,474.339 213.877,446.339 218.5,418.5C 219.022,413.412 220.022,408.412 221.5,403.5C 225.682,405.022 230.015,405.855 234.5,406C 282.983,409.008 331.316,407.508 379.5,401.5C 380.732,408.981 382.065,416.315 383.5,423.5 Z"/></g>
<g><path style="opacity:1" fill="#564806" d="M 413.5,340.5 C 414.499,391.331 414.832,442.331 414.5,493.5C 413.507,485.016 413.174,476.349 413.5,467.5C 413.5,453.833 413.5,440.167 413.5,426.5C 413.371,398.83 413.037,371.164 412.5,343.5C 413.404,342.791 413.737,341.791 413.5,340.5 Z"/></g>
<g><path style="opacity:1" fill="#605002" d="M 187.5,342.5 C 187.198,345.059 187.532,347.393 188.5,349.5C 188.5,355.833 188.5,362.167 188.5,368.5C 187.508,375.648 187.175,382.981 187.5,390.5C 187.5,421.833 187.5,453.167 187.5,484.5C 187.167,484.5 186.833,484.5 186.5,484.5C 186.168,436.997 186.501,389.664 187.5,342.5 Z"/></g>
<g><path style="opacity:1" fill="#1f1a01" d="M 193.5,280.5 C 194.166,286.491 194.5,292.657 194.5,299C 194,317.5 193.5,336 193,354.5C 192.501,348.843 192.334,343.176 192.5,337.5C 192.5,318.493 192.834,299.493 193.5,280.5 Z"/></g>
<g><path style="opacity:1" fill="#b69600" d="M 197.5,224.5 C 195.803,226.305 194.97,228.639 195,231.5C 194.446,247.834 193.946,264.167 193.5,280.5C 192.834,299.493 192.5,318.493 192.5,337.5C 191.506,347.319 191.173,357.319 191.5,367.5C 191.648,382.844 191.315,398.177 190.5,413.5C 190.667,416.833 190.833,420.167 191,423.5C 191.383,422.944 191.883,422.611 192.5,422.5C 191.872,425.09 190.705,427.423 189,429.5C 188.831,416.327 188.331,403.327 187.5,390.5C 187.175,382.981 187.508,375.648 188.5,368.5C 188.334,374.176 188.501,379.843 189,385.5C 189.333,378.5 189.667,371.5 190,364.5C 190.669,314.455 192.335,264.455 195,214.5C 196.278,217.721 197.111,221.054 197.5,224.5 Z"/></g>
<g><path style="opacity:1" fill="#4c3f08" d="M 188.5,286.5 C 189.338,286.842 189.672,287.508 189.5,288.5C 189.37,308.837 189.037,329.171 188.5,349.5C 187.532,347.393 187.198,345.059 187.5,342.5C 187.509,323.826 187.843,305.159 188.5,286.5 Z"/></g>
<g><path style="opacity:1" fill="#463a08" d="M 412.5,277.5 C 413.212,298.492 413.545,319.492 413.5,340.5C 413.737,341.791 413.404,342.791 412.5,343.5C 412.5,340.5 412.5,337.5 412.5,334.5C 412.826,326.316 412.492,318.316 411.5,310.5C 411.5,300.5 411.5,290.5 411.5,280.5C 411.263,279.209 411.596,278.209 412.5,277.5 Z"/></g>
<g><path style="opacity:1" fill="#1f1900" d="M 392.5,273.5 C 393.833,308.167 393.833,342.833 392.5,377.5C 391.648,342.794 391.648,308.127 392.5,273.5 Z"/></g>
<g><path style="opacity:1" fill="#746000" d="M 189.5,272.5 C 189.833,272.5 190.167,272.5 190.5,272.5C 190.821,278.026 190.488,283.36 189.5,288.5C 189.672,287.508 189.338,286.842 188.5,286.5C 188.283,281.77 188.617,277.103 189.5,272.5 Z"/></g>
<g><path style="opacity:1" fill="#7d6800" d="M 411.5,257.5 C 412.491,263.979 412.824,270.646 412.5,277.5C 411.596,278.209 411.263,279.209 411.5,280.5C 410.509,274.021 410.176,267.354 410.5,260.5C 411.404,259.791 411.737,258.791 411.5,257.5 Z"/></g>
<g><path style="opacity:1" fill="#f1c800" d="M 257.5,266.5 C 255.661,294.111 258.827,321.111 267,347.5C 271.158,361.003 278.658,372.17 289.5,381C 298.595,386.064 307.262,385.397 315.5,379C 323.297,371.523 329.13,362.689 333,352.5C 342.62,324.979 346.453,296.646 344.5,267.5C 345.833,267.5 347.167,267.5 348.5,267.5C 360.685,270.255 372.852,273.255 385,276.5C 386.711,276.561 388.044,275.894 389,274.5C 389.25,313.529 390.084,352.529 391.5,391.5C 390.064,402.577 387.397,413.244 383.5,423.5C 382.065,416.315 380.732,408.981 379.5,401.5C 331.316,407.508 282.983,409.008 234.5,406C 230.015,405.855 225.682,405.022 221.5,403.5C 220.022,408.412 219.022,413.412 218.5,418.5C 217.778,418.918 217.278,419.584 217,420.5C 213.879,410.684 211.712,400.684 210.5,390.5C 211.262,352.505 211.595,314.505 211.5,276.5C 226.767,272.85 242.101,269.516 257.5,266.5 Z"/></g>
<g><path style="opacity:1" fill="#453a07" d="M 190.5,272.5 C 190.167,272.5 189.833,272.5 189.5,272.5C 189.248,260.134 189.748,247.801 191,235.5C 191.067,247.828 190.901,260.161 190.5,272.5 Z"/></g>
<g><path style="opacity:1" fill="#594a07" d="M 409.5,230.5 C 409.833,230.5 410.167,230.5 410.5,230.5C 411.383,239.467 411.716,248.467 411.5,257.5C 411.737,258.791 411.404,259.791 410.5,260.5C 410.084,250.503 409.75,240.503 409.5,230.5 Z"/></g>
<g><path style="opacity:1" fill="#372d00" d="M 197.5,224.5 C 197.5,224.833 197.5,225.167 197.5,225.5C 201.396,243.146 205.229,260.812 209,278.5C 209.881,315.848 209.547,353.182 208,390.5C 203.2,399.102 198.7,407.769 194.5,416.5C 193.883,416.611 193.383,416.944 193,417.5C 192.832,400.662 192.332,383.995 191.5,367.5C 191.173,357.319 191.506,347.319 192.5,337.5C 192.334,343.176 192.501,348.843 193,354.5C 193.5,336 194,317.5 194.5,299C 194.5,292.657 194.166,286.491 193.5,280.5C 193.946,264.167 194.446,247.834 195,231.5C 194.97,228.639 195.803,226.305 197.5,224.5 Z"/></g>
<g><path style="opacity:1" fill="#a88c00" d="M 402.5,176.5 C 403.694,180.389 403.528,184.389 402,188.5C 401.275,189.059 400.442,189.392 399.5,189.5C 390.607,186.108 382.274,183.108 374.5,180.5C 383.273,181.777 391.606,184.444 399.5,188.5C 401.348,184.772 402.348,180.772 402.5,176.5 Z"/></g>
<g><path style="opacity:1" fill="#b29300" d="M 372.5,179.5 C 372.083,180.124 371.416,180.457 370.5,180.5C 366.866,179.404 363.199,178.904 359.5,179C 374.347,183.005 389.014,187.505 403.5,192.5C 402.187,207.567 400.687,222.567 399,237.5C 399.782,234.69 400.616,232.023 401.5,229.5C 398.916,244.251 395.916,258.918 392.5,273.5C 391.648,308.127 391.648,342.794 392.5,377.5C 392.646,381.387 393.313,385.054 394.5,388.5C 398.167,396.5 401.833,404.5 405.5,412.5C 400.833,405.5 396.167,398.5 391.5,391.5C 390.084,352.529 389.25,313.529 389,274.5C 388.044,275.894 386.711,276.561 385,276.5C 372.852,273.255 360.685,270.255 348.5,267.5C 349.5,266.833 350.5,266.167 351.5,265.5C 362.447,268.158 373.447,270.825 384.5,273.5C 387.428,269.983 389.594,265.983 391,261.5C 396.38,239.465 399.88,217.131 401.5,194.5C 383.252,188.104 364.585,183.271 345.5,180C 327.56,177.926 309.56,177.093 291.5,177.5C 285.322,177.844 279.322,178.511 273.5,179.5C 247.464,182.107 222.131,187.773 197.5,196.5C 202.372,222.323 208.038,247.989 214.5,273.5C 227.619,270.149 240.619,266.816 253.5,263.5C 256.518,263.296 259.518,262.963 262.5,262.5C 261.737,263.268 260.737,263.768 259.5,264C 260.056,264.383 260.389,264.883 260.5,265.5C 259.209,265.263 258.209,265.596 257.5,266.5C 242.101,269.516 226.767,272.85 211.5,276.5C 211.595,314.505 211.262,352.505 210.5,390.5C 205.89,401.049 200.223,411.049 193.5,420.5C 193.833,419.167 194.167,417.833 194.5,416.5C 198.7,407.769 203.2,399.102 208,390.5C 209.547,353.182 209.881,315.848 209,278.5C 205.229,260.812 201.396,243.146 197.5,225.5C 202.785,241.802 207.285,258.469 211,275.5C 211.167,274.667 211.333,273.833 211.5,273C 205.842,248.04 200.509,223.04 195.5,198C 195.675,196.342 196.342,195.009 197.5,194C 196.748,193.329 196.414,192.496 196.5,191.5C 197.473,192.791 198.473,192.791 199.5,191.5C 199.833,192.167 200.167,192.833 200.5,193.5C 216.105,187.688 232.105,183.188 248.5,180C 244.148,179.581 243.815,178.914 247.5,178C 274.937,172.155 302.603,170.489 330.5,173C 344.622,174.47 358.622,176.636 372.5,179.5 Z"/></g>
<g><path style="opacity:1" fill="#c3a100" d="M 312.5,258.5 C 316.295,259.617 320.295,260.283 324.5,260.5C 331.832,261.833 339.165,263.166 346.5,264.5C 348.117,265.038 349.784,265.371 351.5,265.5C 350.5,266.167 349.5,266.833 348.5,267.5C 347.167,267.5 345.833,267.5 344.5,267.5C 316.796,259.098 288.796,258.431 260.5,265.5C 260.389,264.883 260.056,264.383 259.5,264C 260.737,263.768 261.737,263.268 262.5,262.5C 266.772,261.51 271.106,260.844 275.5,260.5C 276.791,260.737 277.791,260.404 278.5,259.5C 289.81,258.644 301.143,258.31 312.5,258.5 Z"/></g>
<g><path style="opacity:1" fill="#f5cb00" d="M 344.5,267.5 C 346.453,296.646 342.62,324.979 333,352.5C 329.13,362.689 323.297,371.523 315.5,379C 307.262,385.397 298.595,386.064 289.5,381C 278.658,372.17 271.158,361.003 267,347.5C 258.827,321.111 255.661,294.111 257.5,266.5C 258.209,265.596 259.209,265.263 260.5,265.5C 288.796,258.431 316.796,259.098 344.5,267.5 Z"/></g>
<g><path style="opacity:1" fill="#322900" d="M 273.5,179.5 C 274.552,179.351 275.552,179.517 276.5,180C 258.41,182.474 241.41,188.141 225.5,197C 201.458,212.503 199.458,230.17 219.5,250C 229.427,258.134 240.761,262.634 253.5,263.5C 240.619,266.816 227.619,270.149 214.5,273.5C 208.038,247.989 202.372,222.323 197.5,196.5C 222.131,187.773 247.464,182.107 273.5,179.5 Z"/></g>
<g><path style="opacity:1" fill="#322900" d="M 291.5,177.5 C 309.56,177.093 327.56,177.926 345.5,180C 364.585,183.271 383.252,188.104 401.5,194.5C 399.88,217.131 396.38,239.465 391,261.5C 389.594,265.983 387.428,269.983 384.5,273.5C 373.447,270.825 362.447,268.158 351.5,265.5C 349.784,265.371 348.117,265.038 346.5,264.5C 362.91,261.707 376.744,254.04 388,241.5C 396.841,225.681 394.007,212.181 379.5,201C 364.89,191.348 348.89,185.015 331.5,182C 318.051,180.15 304.718,178.65 291.5,177.5 Z"/></g>
<g><path style="opacity:1" fill="#392f00" d="M 291.5,177.5 C 304.718,178.65 318.051,180.15 331.5,182C 348.89,185.015 364.89,191.348 379.5,201C 394.007,212.181 396.841,225.681 388,241.5C 376.744,254.04 362.91,261.707 346.5,264.5C 339.165,263.166 331.832,261.833 324.5,260.5C 342.015,258.16 357.182,250.826 370,238.5C 377.248,225.883 375.081,215.049 363.5,206C 343.963,193.947 322.629,188.114 299.5,188.5C 282.224,188.546 265.557,191.712 249.5,198C 239.27,202.182 231.437,209.015 226,218.5C 223.32,229.328 226.487,238.161 235.5,245C 247.737,253.296 261.071,258.463 275.5,260.5C 271.106,260.844 266.772,261.51 262.5,262.5C 259.518,262.963 256.518,263.296 253.5,263.5C 240.761,262.634 229.427,258.134 219.5,250C 199.458,230.17 201.458,212.503 225.5,197C 241.41,188.141 258.41,182.474 276.5,180C 275.552,179.517 274.552,179.351 273.5,179.5C 279.322,178.511 285.322,177.844 291.5,177.5 Z"/></g>
<g><path style="opacity:1" fill="#3d3200" d="M 324.5,260.5 C 320.295,260.283 316.295,259.617 312.5,258.5C 309.228,257.77 304.561,257.437 298.5,257.5C 291.122,257.459 283.788,257.959 276.5,259C 277.094,259.464 277.761,259.631 278.5,259.5C 277.791,260.404 276.791,260.737 275.5,260.5C 261.071,258.463 247.737,253.296 235.5,245C 226.487,238.161 223.32,229.328 226,218.5C 231.437,209.015 239.27,202.182 249.5,198C 265.557,191.712 282.224,188.546 299.5,188.5C 322.629,188.114 343.963,193.947 363.5,206C 375.081,215.049 377.248,225.883 370,238.5C 357.182,250.826 342.015,258.16 324.5,260.5 Z"/></g>
<g><path style="opacity:1" fill="#130f00" d="M 312.5,258.5 C 301.143,258.31 289.81,258.644 278.5,259.5C 277.761,259.631 277.094,259.464 276.5,259C 283.788,257.959 291.122,257.459 298.5,257.5C 304.561,257.437 309.228,257.77 312.5,258.5 Z"/></g>
<g><path style="opacity:1" fill="#403500" d="M 285.5,195.5 C 305.58,193.458 324.913,196.292 343.5,204C 352.999,208.325 358.999,215.491 361.5,225.5C 358.201,236.97 350.867,244.804 339.5,249C 309.601,259.619 280.268,258.285 251.5,245C 234.717,234.478 233.384,222.478 247.5,209C 259.313,201.787 271.979,197.287 285.5,195.5 Z"/></g>
<g><path style="opacity:1" fill="#463a00" d="M 289.5,210.5 C 300.085,209.711 310.418,210.877 320.5,214C 331.975,219.365 333.308,226.365 324.5,235C 307.839,243.664 291.172,243.664 274.5,235C 266.082,227.494 266.749,220.827 276.5,215C 280.846,213.164 285.179,211.664 289.5,210.5 Z"/></g>
<g><path style="opacity:1" fill="#ad9000" d="M 196.5,29.5 C 195.207,31.2959 193.707,32.9625 192,34.5C 191.178,36.7885 190.511,39.1218 190,41.5C 184.825,87.9734 185.825,134.307 193,180.5C 193.874,184.288 195.041,187.954 196.5,191.5C 194.59,190.025 193.424,188.025 193,185.5C 191.237,178.921 189.903,172.254 189,165.5C 184.805,125.532 184.472,85.5321 188,45.5C 188.687,41.4204 189.687,37.4204 191,33.5C 192.451,31.5359 194.284,30.2026 196.5,29.5 Z"/></g>
<g><path style="opacity:1" fill="#b0950a" d="M 231.5,17.5 C 232.833,18.1667 234.167,18.8333 235.5,19.5C 221.956,20.8074 208.956,24.1408 196.5,29.5C 196.158,28.6618 195.492,28.3284 194.5,28.5C 206.081,22.643 218.414,18.9763 231.5,17.5 Z"/></g>
<g><path style="opacity:1" fill="#f6cd00" d="M 405.5,149.5 C 404.552,158.364 403.552,167.364 402.5,176.5C 402.348,180.772 401.348,184.772 399.5,188.5C 391.606,184.444 383.273,181.777 374.5,180.5C 374.158,179.662 373.492,179.328 372.5,179.5C 358.622,176.636 344.622,174.47 330.5,173C 302.603,170.489 274.937,172.155 247.5,178C 243.815,178.914 244.148,179.581 248.5,180C 232.105,183.188 216.105,187.688 200.5,193.5C 200.167,192.833 199.833,192.167 199.5,191.5C 198.473,192.791 197.473,192.791 196.5,191.5C 195.041,187.954 193.874,184.288 193,180.5C 185.825,134.307 184.825,87.9734 190,41.5C 190.511,39.1218 191.178,36.7885 192,34.5C 193.707,32.9625 195.207,31.2959 196.5,29.5C 208.956,24.1408 221.956,20.8074 235.5,19.5C 237.099,19.7678 238.432,19.4345 239.5,18.5C 285.507,14.3973 331.507,14.5639 377.5,19C 385.655,20.0307 393.655,21.6974 401.5,24C 404.884,32.458 406.717,41.2913 407,50.5C 407.833,83.5237 407.333,116.524 405.5,149.5 Z"/></g>
<g><path style="opacity:1" fill="#ab8e00" d="M 236.5,179.5 C 238.857,179.337 241.19,179.503 243.5,180C 230.379,182.865 217.379,185.865 204.5,189C 215.096,185.19 225.762,182.023 236.5,179.5 Z"/></g>
<g><path style="opacity:1" fill="#e1bb00" d="M 289.5,174.5 C 307.737,172.938 326.07,173.438 344.5,176C 326.213,174.826 307.88,174.326 289.5,174.5 Z"/></g>
<g><path style="opacity:1" fill="#ae9101" d="M 359.5,14.5 C 374.016,15.8116 388.35,18.1449 402.5,21.5C 404.775,26.9327 406.275,32.5994 407,38.5C 410.056,77.5098 409.722,116.51 406,155.5C 405.505,153.527 405.338,151.527 405.5,149.5C 407.333,116.524 407.833,83.5237 407,50.5C 406.717,41.2913 404.884,32.458 401.5,24C 393.655,21.6974 385.655,20.0307 377.5,19C 331.507,14.5639 285.507,14.3973 239.5,18.5C 238.761,18.631 238.094,18.4643 237.5,18C 276.07,13.1517 314.737,12.3184 353.5,15.5C 355.696,15.4954 357.696,15.162 359.5,14.5 Z"/></g>
<g><path style="opacity:1" fill="#b69700" d="M 282.5,10.5 C 302.851,10.302 323.184,10.802 343.5,12C 321.167,12.3333 298.833,12.6667 276.5,13C 267.1,13.4347 257.767,14.1013 248.5,15C 248.833,14.6667 249.167,14.3333 249.5,14C 260.626,12.5647 271.626,11.398 282.5,10.5 Z"/></g>
<g><path style="opacity:1" fill="#7f9b6b" d="M 231.5,17.5 C 218.414,18.9763 206.081,22.643 194.5,28.5C 193.85,28.8039 193.183,29.1373 192.5,29.5C 191.891,21.2558 195.558,15.4225 203.5,12C 216.081,9.37412 228.748,8.54079 241.5,9.5C 239.612,14.0622 236.279,16.7288 231.5,17.5 Z"/></g>
<g><path style="opacity:1" fill="#7f9c6e" d="M 402.5,21.5 C 388.35,18.1449 374.016,15.8116 359.5,14.5C 356.713,12.2802 354.38,9.61358 352.5,6.5C 366.745,4.70154 380.745,5.86821 394.5,10C 399.291,12.434 401.958,16.2674 402.5,21.5 Z"/></g>
<g><path style="opacity:1" fill="#b29400" d="M 279.5,4.5 C 298.662,3.33766 317.996,3.171 337.5,4C 339.833,4.33333 342.167,4.66667 344.5,5C 333.833,5.66667 333.833,6.33333 344.5,7C 340.5,7.33333 336.5,7.66667 332.5,8C 336.894,8.30284 341.227,8.96951 345.5,10C 320.522,8.15364 295.522,8.15364 270.5,10C 263.118,10.6762 255.784,11.3429 248.5,12C 254.411,10.5362 260.411,9.5362 266.5,9C 260.821,8.8024 255.155,8.8024 249.5,9C 254.833,8.33333 254.833,7.66667 249.5,7C 257.713,4.78585 266.046,4.11918 274.5,5C 271.167,5.33333 267.833,5.66667 264.5,6C 268.167,6.33333 271.833,6.66667 275.5,7C 272.833,7.33333 270.167,7.66667 267.5,8C 287.824,7.8655 308.157,7.53217 328.5,7C 311.5,6.66667 294.5,6.33333 277.5,6C 295.167,5.66667 312.833,5.33333 330.5,5C 313.503,4.50006 296.503,4.3334 279.5,4.5 Z"/></g>
<g><path style="opacity:0.422" fill="#120e01" d="M 417.5,507.5 C 418.489,512.975 418.822,518.642 418.5,524.5C 417.248,541.595 415.082,558.595 412,575.5C 411.727,577.329 410.893,578.829 409.5,580C 400.215,584.206 390.548,587.206 380.5,589C 335.361,595.57 290.028,597.236 244.5,594C 223.642,592.706 204.142,587.206 186,577.5C 182.781,562.631 180.614,547.631 179.5,532.5C 180.167,531.833 180.833,531.167 181.5,530.5C 182.346,545.618 184.18,560.618 187,575.5C 187.374,576.416 187.874,577.25 188.5,578C 200.371,583.401 212.704,587.401 225.5,590C 279.705,596.944 333.705,595.61 387.5,586C 395.277,584.242 402.61,581.409 409.5,577.5C 411.859,570.017 413.359,562.351 414,554.5C 415.543,538.857 416.71,523.19 417.5,507.5 Z"/></g>
<g><path style="opacity:1" fill="#574906" d="M 399.5,570.5 C 395.131,572.796 390.464,574.629 385.5,576C 362.545,581.992 339.212,585.492 315.5,586.5C 314.791,585.596 313.791,585.263 312.5,585.5C 342.066,584.507 371.066,579.507 399.5,570.5 Z"/></g>
<g><path style="opacity:1" fill="#493d07" d="M 193.5,571.5 C 202.349,574.463 211.349,576.963 220.5,579C 250.925,584.402 281.592,586.568 312.5,585.5C 313.791,585.263 314.791,585.596 315.5,586.5C 278.675,588.652 242.342,585.486 206.5,577C 201.745,575.815 197.412,573.982 193.5,571.5 Z"/></g>
<g><path style="opacity:1" fill="#4e4106" d="M 407.5,566.5 C 405.421,568.873 402.754,570.206 399.5,570.5C 401.849,568.659 404.515,567.326 407.5,566.5 Z"/></g>
<g><path style="opacity:1" fill="#594a05" d="M 411.5,538.5 C 411.833,538.5 412.167,538.5 412.5,538.5C 412.079,546.205 411.245,553.871 410,561.5C 409.626,563.491 408.793,565.158 407.5,566.5C 409.306,557.194 410.639,547.861 411.5,538.5 Z"/></g>
</svg>
