<svg xmlns="http://www.w3.org/2000/svg" width="600" height="600" viewBox="0 0 600 600" version="1.1"><path d="M 366 176.247 C 363.701 181.157, 358.827 183.429, 350.049 183.683 C 345.942 183.801, 342.114 183.542, 341.541 183.106 C 338.750 180.983, 318.599 173.973, 315.500 174.048 C 314.950 174.061, 317.797 175.618, 321.826 177.509 C 325.981 179.458, 328.877 181.390, 328.517 181.973 C 328.168 182.538, 328.273 183, 328.750 183 C 329.227 183, 330.447 183.607, 331.461 184.348 C 333.237 185.647, 333.226 185.774, 331.152 187.848 C 329.914 189.086, 327.737 190, 326.027 190 L 323.054 190 323.627 199.250 C 324.193 208.365, 324.156 208.568, 321.087 213.128 C 317.806 218.005, 315.576 219, 307.934 219 C 303.275 219, 302.384 220.132, 305.106 222.596 C 306.239 223.621, 307.753 225.867, 308.472 227.588 C 309.678 230.474, 310.255 230.771, 315.903 231.409 C 319.270 231.790, 322.470 231.828, 323.013 231.492 C 323.556 231.157, 324 229.573, 324 227.973 C 324 222.897, 335.452 215.979, 351.225 211.528 C 353.823 210.794, 357.423 209.294, 359.225 208.194 C 361.026 207.094, 365.355 205.002, 368.844 203.545 C 372.334 202.088, 377.655 199.257, 380.671 197.255 L 386.153 193.615 382.019 191.669 C 377.536 189.560, 373 183.858, 373 180.333 C 373 176.620, 371.155 172.999, 369.275 173.022 C 368.269 173.034, 366.850 174.431, 366 176.247 M 476.126 204.250 C 479.300 212.120, 479.482 215.135, 477.069 219.864 C 475.905 222.146, 474.158 224.509, 473.186 225.116 C 471.565 226.128, 471.678 226.478, 474.569 229.369 C 477.599 232.399, 479.934 238.387, 481.542 247.250 C 482.448 252.245, 481.283 252.167, 469.937 246.468 C 456.746 239.844, 451.069 238.635, 437.590 239.580 C 431.490 240.008, 425.600 240.236, 424.500 240.086 C 421.629 239.696, 419 237.041, 419 234.532 C 419 229.540, 406.639 222.113, 397.201 221.436 L 391.500 221.027 398.730 223.420 C 406.366 225.946, 414.101 230.133, 412.264 230.745 C 411.523 230.992, 411.624 231.969, 412.581 233.804 C 413.355 235.287, 413.990 237.030, 413.994 237.677 C 414.008 240.466, 420.185 242, 431.407 242 L 442.506 242 447.503 245.546 C 455.540 251.249, 458.648 255.888, 459.451 263.383 C 460.166 270.067, 458.945 277.003, 456.743 278.757 C 456.059 279.302, 453.052 279.971, 450.059 280.245 C 445.534 280.659, 444.140 281.279, 441.773 283.928 C 440.208 285.680, 438.665 288.427, 438.343 290.034 C 437.363 294.937, 436.213 295.261, 421.260 294.845 C 409.047 294.506, 406.944 294.184, 402.554 291.982 C 398.503 289.949, 397.021 288.414, 394.360 283.500 C 392.574 280.200, 391.343 276.712, 391.624 275.750 C 391.905 274.788, 391.654 274, 391.067 274 C 390.480 274, 390 274.984, 390 276.187 C 390 278.305, 389.909 278.287, 387.124 275.619 L 384.248 272.864 383.571 276.473 C 383.048 279.260, 382.165 280.407, 379.697 281.505 C 375.684 283.291, 355.720 287, 350.123 287 C 347.816 287, 344.933 287.621, 343.715 288.380 C 342.497 289.138, 337.337 290.764, 332.250 291.991 C 322.743 294.286, 319.794 295.717, 327.127 294.479 C 329.780 294.030, 331.033 294.137, 330.638 294.777 C 329.549 296.538, 334.214 296.990, 346.723 296.337 C 360.735 295.605, 361.421 295.991, 358.608 303.022 C 357.723 305.232, 357 308.961, 357 311.309 C 357 315.517, 357.661 317.131, 363.838 328 C 367.530 334.497, 367.635 336.236, 364.997 347.187 C 363.479 353.488, 363.147 357.221, 363.623 362.613 C 364.033 367.263, 363.879 369.957, 363.176 370.391 C 361.680 371.316, 360.551 368.851, 357.501 358.005 C 352.948 341.808, 349.540 339.261, 330.538 337.848 C 318.709 336.968, 306.796 334.656, 298.094 331.551 C 295.671 330.686, 293.462 330.204, 293.186 330.480 C 292.426 331.241, 308.835 338.686, 314.288 340.055 C 316.922 340.716, 318.865 341.468, 318.606 341.727 C 318.348 341.985, 321.850 344.740, 326.388 347.849 C 338.668 356.258, 339.698 357.209, 340.349 360.738 C 340.870 363.569, 340.586 364.163, 338.094 365.451 C 333.838 367.652, 332.481 372, 336.050 372 C 342.521 372, 350.043 380.176, 352.797 390.205 C 354.031 394.701, 353.936 394.798, 342.139 401.019 L 333.571 405.538 331.768 411.460 C 328.092 423.534, 325.793 424.470, 302.067 423.550 C 291.885 423.155, 282.716 422.383, 281.692 421.835 C 278.261 419.999, 277.032 414.996, 277.649 405.377 C 278.241 396.139, 279.623 390.619, 283.005 383.990 C 284.102 381.839, 285 379.837, 285 379.540 C 285 375.989, 275.128 388.294, 271.342 396.564 C 269.246 401.143, 268.806 403.549, 268.899 409.931 C 269.035 419.256, 267.268 422.306, 260.696 424.092 C 254.965 425.649, 243.577 424.634, 237.533 422.027 C 225.314 416.757, 219.678 409.081, 217.616 394.897 C 216.865 389.729, 216.194 386.893, 216.125 388.595 C 216.056 390.297, 215.098 392.506, 213.996 393.504 C 212.894 394.501, 209.943 398.870, 207.438 403.213 L 202.883 411.110 195.692 410.305 C 185.599 409.175, 181.366 409.477, 166.031 412.417 C 153.123 414.892, 142.924 415.623, 138.364 414.400 C 136.295 413.844, 136.277 413.704, 137.789 409.856 C 139.104 406.508, 139.176 404.593, 138.246 397.647 C 136.233 382.595, 127.681 360.387, 121.463 354.060 C 118.498 351.042, 118.827 354.200, 122.004 359.239 C 127.642 368.184, 128.249 369.963, 128.768 379.072 C 129.191 386.479, 128.809 389.870, 126.410 400.034 L 123.547 412.159 120.662 411.582 C 118.427 411.135, 113.559 412.908, 99.070 419.443 C 88.781 424.083, 78.265 428.408, 75.700 429.054 C 69.058 430.726, 51.405 429.878, 47.280 427.689 C 43.377 425.617, 42.458 424.022, 41.209 417.149 C 40.515 413.329, 40.560 411.754, 41.372 411.526 C 41.993 411.351, 46.400 410.437, 51.166 409.494 C 55.932 408.551, 61.332 406.861, 63.166 405.737 C 66.790 403.515, 65.572 402.074, 61.805 404.127 C 58.483 405.938, 38.881 405.415, 32.500 403.345 C 29.750 402.453, 25.318 400.630, 22.651 399.294 C 19.983 397.959, 17.617 397.050, 17.392 397.275 C 17.167 397.499, 18.596 400.778, 20.567 404.560 C 23.539 410.260, 24.096 412.280, 23.826 416.367 L 23.500 421.297 32 424.491 C 36.675 426.248, 44.550 429.506, 49.500 431.731 C 65.451 438.901, 66.360 439.003, 114.500 439.042 C 145.058 439.066, 149.271 438.871, 156.113 437.111 C 165.047 434.812, 180.166 429.135, 195.281 422.403 C 205.848 417.697, 206.155 417.626, 210.781 418.838 C 213.376 419.518, 222.025 423.733, 230 428.206 C 237.975 432.678, 246.750 437.582, 249.500 439.104 C 263.728 446.978, 285.921 449.737, 310.001 446.626 C 316.877 445.738, 327.480 444.611, 333.563 444.122 C 345.992 443.122, 352.013 440.840, 354.353 436.240 C 357.026 430.985, 361.086 417.889, 361.791 412.243 L 362.502 406.555 367.001 405.726 C 369.475 405.270, 375.325 405.057, 380 405.252 C 389.766 405.659, 390.964 406.255, 400.941 415.670 L 407.500 421.860 407.796 415.415 C 407.996 411.057, 407.267 405.548, 405.546 398.405 C 404.146 392.594, 403 387.024, 403 386.027 C 403 383.732, 405.510 382.705, 406.931 384.417 C 408.324 386.096, 411.592 398.888, 412.515 406.276 C 412.910 409.439, 413.570 412.234, 413.980 412.488 C 414.391 412.742, 414.977 410.192, 415.282 406.822 C 415.830 400.788, 417.968 396.402, 421.050 394.991 C 421.848 394.625, 425.650 392.791, 429.500 390.913 L 436.500 387.500 428.039 386.799 C 413.225 385.572, 411.184 384.728, 405.500 377.484 C 401.156 371.948, 399.614 370.765, 393.750 368.468 L 387 365.825 387 361.415 C 387 357.797, 387.616 356.324, 390.434 353.205 C 392.877 350.500, 393.610 348.988, 392.975 347.960 C 392.073 346.500, 392.666 342.159, 393.965 340.714 C 394.353 340.282, 399.808 338.591, 406.086 336.956 C 423.756 332.353, 434 327.781, 434 324.497 C 434 323.745, 435.540 322.573, 437.422 321.892 C 440.285 320.857, 441.178 319.750, 442.883 315.121 C 444.004 312.078, 444.740 309.407, 444.518 309.185 C 444.297 308.963, 442.852 309.672, 441.308 310.760 C 438.039 313.062, 434 314.488, 434 313.340 C 434 312.902, 437.427 309.097, 441.616 304.883 C 445.805 300.670, 451.317 294.171, 453.866 290.442 C 460.485 280.759, 462.184 279.702, 469.014 281.023 C 474.308 282.047, 508.981 281.600, 518.868 280.381 L 523.235 279.842 520.204 277.171 C 516.734 274.113, 516.243 272.289, 512.479 248.500 C 509.259 228.146, 507.686 222.617, 503.462 216.797 C 498.393 209.813, 481.730 199, 476.036 199 C 474.010 199, 474.010 199.005, 476.126 204.250 M 310.382 239.004 C 308.395 243.968, 304.203 247.593, 298.705 249.100 C 294.037 250.379, 268.299 249.671, 261.630 248.080 L 257.759 247.156 261.076 250.578 C 262.900 252.460, 266.039 255.141, 268.052 256.536 C 272.717 259.769, 274.685 263.588, 272.042 264.279 C 270.508 264.680, 270.301 265.488, 270.737 269.360 C 271.156 273.076, 270.708 275.079, 268.415 279.733 C 264.994 286.676, 260.302 293, 258.571 293 C 257.877 293, 256.453 293.965, 255.405 295.145 C 251.897 299.096, 245.745 300.992, 233.310 301.955 C 220.168 302.973, 212.004 305.150, 198.500 311.235 L 189.500 315.291 177 314.090 C 170.125 313.430, 163.375 312.670, 162 312.402 C 159.754 311.964, 159.804 312.070, 162.500 313.447 C 164.198 314.315, 164.632 314.804, 163.500 314.574 C 162.400 314.351, 159.250 313.887, 156.500 313.543 C 148.857 312.587, 153.066 314.675, 161.474 316.011 C 165.338 316.625, 172.073 317.998, 176.440 319.063 C 180.808 320.129, 186.208 321.016, 188.440 321.036 L 192.500 321.072 189.500 323.533 C 187.154 325.458, 186.430 325.674, 186.181 324.521 C 185.578 321.733, 171.273 330.050, 164.073 337.374 C 154.844 346.761, 150.544 348.316, 135.090 347.856 C 125.311 347.565, 123.529 347.721, 125.315 348.715 C 127.373 349.859, 127.301 349.931, 124.083 349.965 C 122.204 349.984, 120.911 350.244, 121.210 350.543 C 121.509 350.842, 128.446 352.444, 136.627 354.103 C 150.900 356.997, 158.290 357.326, 165.202 355.376 C 167.017 354.864, 183.627 335.303, 189.799 326.409 L 193.500 321.076 199.500 321.033 C 202.800 321.009, 210 320.693, 215.500 320.332 C 226.894 319.582, 227.133 320.139, 217.952 326.031 C 214.007 328.562, 212.927 329.873, 212.378 332.797 C 211.574 337.082, 213.274 344.171, 216.035 348.049 C 218.441 351.427, 218.531 355.736, 216.327 361.943 C 214.856 366.084, 214.812 367.402, 215.963 372.827 C 217.337 379.302, 218.391 380.518, 219.364 376.750 C 220.404 372.722, 228.273 361.748, 231.300 360.104 C 232.924 359.222, 235.580 357.419, 237.202 356.097 L 240.152 353.694 239.449 339.491 L 238.745 325.287 243.758 317.894 C 249.999 308.688, 251.882 307.037, 260 303.650 C 268.168 300.243, 275.454 294.956, 277.539 290.925 C 278.884 288.323, 279.029 285.818, 278.436 275.411 C 277.897 265.939, 277.406 263, 276.365 263 C 275.614 263, 275 262.100, 275 261 C 275 259.399, 275.667 259, 278.341 259 C 280.179 259, 283.891 258.300, 286.591 257.445 C 289.291 256.589, 294.580 255.679, 298.345 255.421 C 307.963 254.763, 310.575 253.170, 312.463 246.812 C 315.389 236.960, 313.714 230.676, 310.382 239.004 M 327.085 240.626 C 328.413 242.060, 332.113 244.376, 335.307 245.772 C 339.050 247.408, 340.673 248.584, 339.872 249.079 C 335.067 252.049, 359.445 262.009, 371.480 261.993 C 374.770 261.989, 377.519 261.315, 379.457 260.037 L 382.415 258.088 377.977 256.101 C 373.184 253.955, 373.269 253.868, 382 251.943 C 388.487 250.513, 398.334 247.001, 397.682 246.349 C 397.432 246.098, 393.250 246.638, 388.391 247.549 C 373.961 250.253, 350.689 247.538, 333.085 241.098 L 324.669 238.019 327.085 240.626 M 249.045 240.555 C 249.755 241.410, 251.273 242.596, 252.418 243.190 C 254.276 244.155, 254.239 243.988, 252.076 241.636 C 249.515 238.852, 246.840 237.897, 249.045 240.555 M 553.173 302.750 C 551.009 306.739, 550.045 307.829, 550.027 306.309 C 549.977 302.254, 548.201 302.962, 546.594 307.677 C 544.568 313.626, 544.549 313.474, 547.448 314.794 C 550.630 316.244, 552.913 323.652, 553.675 335 L 554.246 343.500 549.239 345.250 C 546.485 346.212, 544.009 347, 543.737 347 C 543.465 347, 542.677 345.635, 541.986 343.967 C 540.819 341.150, 540.605 341.048, 538.968 342.529 C 537.310 344.030, 536.987 343.461, 533.465 332.812 C 529.588 321.092, 527.315 315.925, 524.530 312.500 C 522.997 310.615, 522.924 310.888, 523.249 317.250 C 523.439 320.962, 523.200 324, 522.717 324 C 522.225 324, 522.151 328.393, 522.549 334.004 L 523.258 344.008 516.379 341.369 C 506.802 337.697, 496.358 335, 491.712 335 L 487.788 335 490.644 337.840 C 492.215 339.401, 494.997 342.562, 496.827 344.864 C 498.716 347.241, 502.605 350.311, 505.827 351.969 C 513.430 355.882, 525.960 365.758, 528.206 369.608 C 529.203 371.318, 530.754 376.493, 531.653 381.108 C 532.552 385.724, 533.560 389.815, 533.894 390.200 C 534.227 390.585, 536.348 390.485, 538.607 389.977 C 540.865 389.470, 550.990 388.407, 561.107 387.615 C 574.923 386.534, 580.951 385.631, 585.332 383.985 C 592.060 381.458, 597.212 377.316, 599.003 372.993 C 600.769 368.729, 599.780 361.114, 596.620 354.656 C 594.250 349.812, 592.841 348.452, 584.716 343.169 C 568.049 332.331, 563.870 325.972, 559.470 304.750 C 558.587 300.488, 557.510 297, 557.078 297 C 556.646 297, 554.889 299.587, 553.173 302.750 M 514.500 393.565 C 495.530 396.569, 477.833 400.066, 474.731 401.423 L 471.500 402.837 474.500 402.982 L 477.500 403.127 475 404.178 C 473.625 404.756, 465.849 405.464, 457.720 405.751 C 449.591 406.039, 443.195 406.529, 443.507 406.840 C 443.818 407.152, 447.657 407.284, 452.037 407.135 C 456.416 406.986, 460 407.087, 460 407.361 C 460 407.634, 457.637 408.561, 454.750 409.420 C 445.476 412.179, 445.836 412.886, 456.507 412.864 C 471.069 412.834, 491.570 414.108, 493.139 415.140 C 495.412 416.636, 489.776 420.761, 484.348 421.575 C 481.768 421.962, 473.097 422.039, 465.079 421.747 C 453.583 421.328, 449.337 420.770, 445 419.108 C 441.975 417.949, 439.229 417.001, 438.898 417.001 C 438.566 417, 436.128 419.813, 433.480 423.250 C 430.832 426.688, 428.349 429.868, 427.964 430.319 C 427.578 430.769, 423.728 428.188, 419.409 424.582 C 411.664 418.117, 411.539 418.058, 410.300 420.264 C 409.190 422.241, 409.339 422.731, 411.592 424.500 C 412.993 425.600, 418.046 428.226, 422.820 430.336 L 431.500 434.172 472.829 435.095 C 519.457 436.137, 518.004 436.318, 524.561 428.658 C 529.475 422.917, 532.758 415.442, 534.065 407.021 C 535.396 398.443, 534.675 393.005, 532.205 392.989 C 531.267 392.983, 528.925 392.789, 527 392.559 C 525.075 392.329, 519.450 392.782, 514.500 393.565" stroke="none" fill="#6d655a" fill-rule="evenodd"/><path d="M 280.180 153.119 C 266.301 155.427, 258.007 161.858, 253.924 173.477 C 252.191 178.407, 251.978 180.644, 252.550 187.949 L 253.226 196.590 249.802 199.202 C 245.712 202.322, 240.509 211.676, 239.042 218.546 C 238.461 221.271, 237.747 224.542, 237.457 225.816 C 236.674 229.251, 231.417 231, 221.873 231 L 213.683 231 201.091 238.802 C 194.166 243.094, 182.715 249.956, 175.645 254.052 C 153.981 266.604, 143.756 276.576, 139.965 288.849 C 137.134 298.014, 137.397 307, 140.496 307 C 141.201 307, 142.841 307.925, 144.139 309.056 L 146.500 311.113 144.139 309.962 C 142.049 308.943, 141.360 309.208, 138.139 312.269 C 136.138 314.172, 131.661 317.624, 128.191 319.941 C 121.892 324.148, 113.554 333.944, 112.417 338.474 C 111.881 340.611, 111.286 340.716, 96.249 341.337 C 81.793 341.933, 80.175 342.197, 74.391 344.904 C 64.804 349.391, 56.980 355.134, 44.884 366.566 C 32.840 377.947, 28.736 380.751, 18.898 384.320 C 11.703 386.930, 1.233 393.230, 0.375 395.466 C -0.388 397.453, 9.430 411.410, 14.431 415.449 C 20.503 420.353, 22.668 421.307, 23.400 419.400 C 24.783 415.797, 23.808 410.778, 20.492 404.414 C 18.562 400.712, 17.167 397.499, 17.392 397.275 C 17.617 397.050, 19.983 397.959, 22.651 399.294 C 25.318 400.630, 29.750 402.453, 32.500 403.345 C 38.881 405.415, 58.483 405.938, 61.805 404.127 C 65.572 402.074, 66.790 403.515, 63.166 405.737 C 61.332 406.861, 55.932 408.551, 51.166 409.494 C 46.400 410.437, 41.993 411.351, 41.372 411.526 C 40.560 411.754, 40.515 413.329, 41.209 417.149 C 42.458 424.022, 43.377 425.617, 47.280 427.689 C 51.405 429.878, 69.058 430.726, 75.700 429.054 C 78.265 428.408, 88.781 424.083, 99.070 419.443 C 113.559 412.908, 118.427 411.135, 120.662 411.582 L 123.547 412.159 126.410 400.034 C 128.809 389.870, 129.191 386.479, 128.768 379.072 C 128.249 369.963, 127.642 368.184, 122.004 359.239 C 118.827 354.200, 118.498 351.042, 121.463 354.060 C 127.681 360.387, 136.233 382.595, 138.246 397.647 C 139.176 404.593, 139.104 406.508, 137.789 409.856 C 136.277 413.704, 136.295 413.844, 138.364 414.400 C 142.924 415.623, 153.123 414.892, 166.031 412.417 C 181.366 409.477, 185.599 409.175, 195.692 410.305 L 202.883 411.110 207.438 403.213 C 209.943 398.870, 212.894 394.501, 213.996 393.504 C 215.098 392.506, 216.056 390.297, 216.125 388.595 C 216.194 386.893, 216.865 389.729, 217.616 394.897 C 219.678 409.081, 225.314 416.757, 237.533 422.027 C 243.577 424.634, 254.965 425.649, 260.696 424.092 C 267.268 422.306, 269.035 419.256, 268.899 409.931 C 268.806 403.549, 269.246 401.143, 271.342 396.564 C 275.128 388.294, 285 375.989, 285 379.540 C 285 379.837, 284.102 381.839, 283.005 383.990 C 279.623 390.619, 278.241 396.139, 277.649 405.377 C 277.032 414.996, 278.261 419.999, 281.692 421.835 C 282.716 422.383, 291.885 423.155, 302.067 423.550 C 325.793 424.470, 328.092 423.534, 331.768 411.460 L 333.571 405.538 342.139 401.019 C 353.936 394.798, 354.031 394.701, 352.797 390.205 C 350.043 380.176, 342.521 372, 336.050 372 C 332.481 372, 333.838 367.652, 338.094 365.451 C 340.586 364.163, 340.870 363.569, 340.349 360.738 C 339.698 357.209, 338.668 356.258, 326.388 347.849 C 321.850 344.740, 318.348 341.985, 318.606 341.727 C 318.865 341.468, 316.922 340.716, 314.288 340.055 C 308.835 338.686, 292.426 331.241, 293.186 330.480 C 293.462 330.204, 295.671 330.686, 298.094 331.551 C 306.796 334.656, 318.709 336.968, 330.538 337.848 C 349.540 339.261, 352.948 341.808, 357.501 358.005 C 360.551 368.851, 361.680 371.316, 363.176 370.391 C 363.879 369.957, 364.033 367.263, 363.623 362.613 C 363.147 357.221, 363.479 353.488, 364.997 347.187 C 367.635 336.236, 367.530 334.497, 363.838 328 C 357.661 317.131, 357 315.517, 357 311.309 C 357 308.961, 357.723 305.232, 358.608 303.022 C 361.421 295.991, 360.735 295.605, 346.723 296.337 C 334.214 296.990, 329.549 296.538, 330.638 294.777 C 331.033 294.137, 329.780 294.030, 327.127 294.479 C 319.794 295.717, 322.743 294.286, 332.250 291.991 C 337.337 290.764, 342.497 289.138, 343.715 288.380 C 344.933 287.621, 347.816 287, 350.123 287 C 355.720 287, 375.684 283.291, 379.697 281.505 C 382.165 280.407, 383.048 279.260, 383.571 276.473 L 384.248 272.864 387.124 275.619 C 389.909 278.287, 390 278.305, 390 276.187 C 390 274.984, 390.480 274, 391.067 274 C 391.654 274, 391.905 274.788, 391.624 275.750 C 391.343 276.712, 392.574 280.200, 394.360 283.500 C 397.021 288.414, 398.503 289.949, 402.554 291.982 C 406.944 294.184, 409.047 294.506, 421.260 294.845 C 436.213 295.261, 437.363 294.937, 438.343 290.034 C 438.665 288.427, 440.208 285.680, 441.773 283.928 C 444.140 281.279, 445.534 280.659, 450.059 280.245 C 453.052 279.971, 456.059 279.302, 456.743 278.757 C 458.945 277.003, 460.166 270.067, 459.451 263.383 C 458.648 255.888, 455.540 251.249, 447.503 245.546 L 442.506 242 431.407 242 C 420.185 242, 414.008 240.466, 413.994 237.677 C 413.990 237.030, 413.355 235.287, 412.581 233.804 C 411.624 231.969, 411.523 230.992, 412.264 230.745 C 414.101 230.133, 406.366 225.946, 398.730 223.420 L 391.500 221.027 397.201 221.436 C 406.639 222.113, 419 229.540, 419 234.532 C 419 237.041, 421.629 239.696, 424.500 240.086 C 425.600 240.236, 431.490 240.008, 437.590 239.580 C 451.069 238.635, 456.746 239.844, 469.937 246.468 C 481.283 252.167, 482.448 252.245, 481.542 247.250 C 479.934 238.387, 477.599 232.399, 474.569 229.369 C 471.678 226.478, 471.565 226.128, 473.186 225.116 C 475.398 223.734, 479 216.797, 479 213.918 C 479 212.729, 477.791 208.661, 476.313 204.878 C 473.692 198.167, 473.540 198, 470.063 197.992 C 468.104 197.988, 454.350 196.864, 439.500 195.495 C 424.650 194.127, 406.738 193.005, 399.695 193.003 L 386.890 193 381.139 196.906 C 377.975 199.054, 372.487 202.023, 368.943 203.503 C 365.400 204.983, 361.026 207.094, 359.225 208.194 C 357.423 209.294, 353.823 210.794, 351.225 211.528 C 341.887 214.163, 334.409 217.465, 329.250 221.231 C 324.998 224.335, 324 225.616, 324 227.973 C 324 229.573, 323.556 231.157, 323.013 231.492 C 322.470 231.828, 319.270 231.790, 315.903 231.409 C 310.255 230.771, 309.678 230.474, 308.472 227.588 C 307.753 225.867, 306.239 223.621, 305.106 222.596 C 302.384 220.132, 303.275 219, 307.934 219 C 315.576 219, 317.806 218.005, 321.087 213.128 C 324.156 208.568, 324.193 208.365, 323.627 199.250 L 323.054 190 326.027 190 C 327.737 190, 329.914 189.086, 331.152 187.848 C 333.226 185.774, 333.237 185.647, 331.461 184.348 C 330.447 183.607, 329.227 183, 328.750 183 C 328.273 183, 328.168 182.538, 328.517 181.973 C 328.877 181.390, 325.981 179.458, 321.826 177.509 C 317.797 175.618, 314.950 174.061, 315.500 174.048 C 318.599 173.973, 338.750 180.983, 341.541 183.106 C 342.114 183.542, 345.942 183.801, 350.049 183.683 C 358.827 183.429, 363.701 181.157, 366 176.247 C 366.825 174.485, 368.175 173.020, 369 172.990 C 369.825 172.961, 368.700 171.803, 366.500 170.416 C 358.534 165.395, 350.641 161.826, 343.416 159.979 C 339.362 158.942, 334.798 157.188, 333.273 156.082 C 331.748 154.975, 328.475 153.615, 326 153.060 C 320.563 151.838, 287.621 151.881, 280.180 153.119 M 310.382 239.004 C 308.395 243.968, 304.203 247.593, 298.705 249.100 C 294.037 250.379, 268.299 249.671, 261.630 248.080 L 257.759 247.156 261.076 250.578 C 262.900 252.460, 266.039 255.141, 268.052 256.536 C 272.717 259.769, 274.685 263.588, 272.042 264.279 C 270.508 264.680, 270.301 265.488, 270.737 269.360 C 271.156 273.076, 270.708 275.079, 268.415 279.733 C 264.994 286.676, 260.302 293, 258.571 293 C 257.877 293, 256.453 293.965, 255.405 295.145 C 251.897 299.096, 245.745 300.992, 233.310 301.955 C 220.168 302.973, 212.004 305.150, 198.500 311.235 L 189.500 315.291 177 314.090 C 170.125 313.430, 163.375 312.670, 162 312.402 C 159.754 311.964, 159.804 312.070, 162.500 313.447 C 164.198 314.315, 164.632 314.804, 163.500 314.574 C 162.400 314.351, 159.250 313.887, 156.500 313.543 C 148.857 312.587, 153.066 314.675, 161.474 316.011 C 165.338 316.625, 172.073 317.998, 176.440 319.063 C 180.808 320.129, 186.208 321.016, 188.440 321.036 L 192.500 321.072 189.500 323.533 C 187.154 325.458, 186.430 325.674, 186.181 324.521 C 185.578 321.733, 171.273 330.050, 164.073 337.374 C 154.844 346.761, 150.544 348.316, 135.090 347.856 C 125.311 347.565, 123.529 347.721, 125.315 348.715 C 127.373 349.859, 127.301 349.931, 124.083 349.965 C 122.204 349.984, 120.911 350.244, 121.210 350.543 C 121.509 350.842, 128.446 352.444, 136.627 354.103 C 150.900 356.997, 158.290 357.326, 165.202 355.376 C 167.017 354.864, 183.627 335.303, 189.799 326.409 L 193.500 321.076 199.500 321.033 C 202.800 321.009, 210 320.693, 215.500 320.332 C 226.894 319.582, 227.133 320.139, 217.952 326.031 C 214.007 328.562, 212.927 329.873, 212.378 332.797 C 211.574 337.082, 213.274 344.171, 216.035 348.049 C 218.441 351.427, 218.531 355.736, 216.327 361.943 C 214.856 366.084, 214.812 367.402, 215.963 372.827 C 217.337 379.302, 218.391 380.518, 219.364 376.750 C 220.404 372.722, 228.273 361.748, 231.300 360.104 C 232.924 359.222, 235.580 357.419, 237.202 356.097 L 240.152 353.694 239.449 339.491 L 238.745 325.287 243.758 317.894 C 249.999 308.688, 251.882 307.037, 260 303.650 C 268.168 300.243, 275.454 294.956, 277.539 290.925 C 278.884 288.323, 279.029 285.818, 278.436 275.411 C 277.897 265.939, 277.406 263, 276.365 263 C 275.614 263, 275 262.100, 275 261 C 275 259.399, 275.667 259, 278.341 259 C 280.179 259, 283.891 258.300, 286.591 257.445 C 289.291 256.589, 294.580 255.679, 298.345 255.421 C 307.963 254.763, 310.575 253.170, 312.463 246.812 C 315.389 236.960, 313.714 230.676, 310.382 239.004 M 327.085 240.626 C 328.413 242.060, 332.113 244.376, 335.307 245.772 C 339.050 247.408, 340.673 248.584, 339.872 249.079 C 335.067 252.049, 359.445 262.009, 371.480 261.993 C 374.770 261.989, 377.519 261.315, 379.457 260.037 L 382.415 258.088 377.977 256.101 C 373.184 253.955, 373.269 253.868, 382 251.943 C 388.487 250.513, 398.334 247.001, 397.682 246.349 C 397.432 246.098, 393.250 246.638, 388.391 247.549 C 373.961 250.253, 350.689 247.538, 333.085 241.098 L 324.669 238.019 327.085 240.626 M 249.045 240.555 C 249.755 241.410, 251.273 242.596, 252.418 243.190 C 254.276 244.155, 254.239 243.988, 252.076 241.636 C 249.515 238.852, 246.840 237.897, 249.045 240.555 M 521 279.938 C 516.513 281.277, 474.908 282.134, 469.014 281.009 C 462.184 279.706, 460.479 280.767, 453.866 290.442 C 451.317 294.171, 445.805 300.670, 441.616 304.883 C 437.427 309.097, 434 312.902, 434 313.340 C 434 314.488, 438.039 313.062, 441.308 310.760 C 442.852 309.672, 444.297 308.963, 444.518 309.185 C 444.740 309.407, 444.004 312.078, 442.883 315.121 C 441.178 319.750, 440.285 320.857, 437.422 321.892 C 435.540 322.573, 434 323.745, 434 324.497 C 434 327.781, 423.756 332.353, 406.086 336.956 C 399.808 338.591, 394.353 340.282, 393.965 340.714 C 392.666 342.159, 392.073 346.500, 392.975 347.960 C 393.610 348.988, 392.877 350.500, 390.434 353.205 C 387.616 356.324, 387 357.797, 387 361.415 L 387 365.825 393.750 368.468 C 399.614 370.765, 401.156 371.948, 405.500 377.484 C 411.184 384.728, 413.225 385.572, 428.039 386.799 L 436.500 387.500 429.500 390.913 C 425.650 392.791, 421.848 394.625, 421.050 394.991 C 417.968 396.402, 415.830 400.788, 415.282 406.822 C 414.977 410.192, 414.391 412.742, 413.980 412.488 C 413.570 412.234, 412.910 409.439, 412.515 406.276 C 411.592 398.888, 408.324 386.096, 406.931 384.417 C 405.505 382.699, 403 383.735, 403 386.043 C 403 387.049, 404.124 392.514, 405.499 398.186 C 406.897 403.956, 407.998 411.474, 407.999 415.250 C 408 422.037, 408.923 423.720, 410.597 419.987 C 411.432 418.125, 412.090 418.468, 419.381 424.556 C 423.716 428.176, 427.578 430.769, 427.964 430.319 C 428.349 429.868, 430.832 426.688, 433.480 423.250 C 436.128 419.813, 438.566 417, 438.898 417.001 C 439.229 417.001, 441.975 417.949, 445 419.108 C 449.337 420.770, 453.583 421.328, 465.079 421.747 C 473.097 422.039, 481.768 421.962, 484.348 421.575 C 489.776 420.761, 495.412 416.636, 493.139 415.140 C 491.570 414.108, 471.069 412.834, 456.507 412.864 C 445.836 412.886, 445.476 412.179, 454.750 409.420 C 457.637 408.561, 460 407.634, 460 407.361 C 460 407.087, 456.416 406.986, 452.037 407.135 C 447.657 407.284, 443.818 407.152, 443.507 406.840 C 443.195 406.529, 449.591 406.019, 457.720 405.707 C 465.849 405.395, 473.625 404.789, 475 404.359 L 477.500 403.577 474.500 402.961 C 471.640 402.373, 471.756 402.267, 477 400.675 C 486.585 397.765, 518.057 392.773, 526.750 392.784 C 531.288 392.789, 535 392.609, 535 392.383 C 535 392.158, 534.566 391.191, 534.035 390.236 C 533.504 389.281, 532.372 384.929, 531.519 380.565 C 530.666 376.200, 529.163 371.250, 528.180 369.565 C 525.956 365.752, 513.394 355.864, 505.827 351.969 C 502.605 350.311, 498.716 347.241, 496.827 344.864 C 494.997 342.562, 492.215 339.401, 490.644 337.840 L 487.788 335 491.712 335 C 496.358 335, 506.802 337.697, 516.379 341.369 L 523.258 344.008 522.549 334.004 C 522.151 328.393, 522.225 324, 522.717 324 C 523.200 324, 523.439 320.962, 523.249 317.250 C 522.924 310.888, 522.997 310.615, 524.530 312.500 C 527.315 315.925, 529.588 321.092, 533.465 332.812 C 536.987 343.461, 537.310 344.030, 538.968 342.529 C 540.605 341.048, 540.819 341.150, 541.986 343.967 C 542.677 345.635, 543.465 347, 543.737 347 C 544.009 347, 546.485 346.212, 549.239 345.250 L 554.246 343.500 553.675 335 C 552.913 323.652, 550.630 316.244, 547.448 314.794 C 544.549 313.474, 544.568 313.626, 546.594 307.677 C 548.200 302.965, 549.990 302.248, 550.011 306.309 C 550.019 307.794, 551.151 306.474, 553.525 302.209 C 556.100 297.582, 556.782 295.466, 556.103 294.209 C 554.633 291.488, 545.097 286.230, 535.937 283.089 C 524.709 279.239, 523.908 279.070, 521 279.938" stroke="none" fill="#ada295" fill-rule="evenodd"/></svg>