<svg xmlns="http://www.w3.org/2000/svg" width="744" height="1052" viewBox="0 0 744 1052" version="1.1"><path d="M 386.003 204.336 C 385.998 205.761, 393.307 215.711, 395.249 216.924 C 396.993 218.013, 397.009 217.928, 395.555 215.286 C 393.743 211.995, 386.007 203.126, 386.003 204.336 M 423.132 208.329 C 421.948 209.766, 419.127 227.250, 419.033 233.734 C 419.015 234.963, 420.376 237.438, 422.057 239.234 L 425.114 242.500 423.557 239.300 C 421.581 235.237, 421.579 229.415, 423.551 221.803 C 424.404 218.511, 424.967 213.759, 424.801 211.243 C 424.536 207.214, 424.337 206.867, 423.132 208.329 M 401.417 225.500 C 401.718 226.600, 402.874 231.064, 403.985 235.419 C 405.096 239.774, 406.169 243.502, 406.369 243.703 C 406.570 243.903, 407.037 241.392, 407.407 238.123 C 407.961 233.225, 407.741 231.622, 406.157 229.018 C 405.100 227.279, 403.895 225.928, 403.479 226.014 C 403.064 226.100, 402.306 225.570, 401.796 224.835 C 401.135 223.883, 401.026 224.073, 401.417 225.500 M 443.230 233.694 C 440.442 241.085, 440.093 242.901, 441.573 242.334 C 442.358 242.032, 443 241.201, 443 240.487 C 443 239.757, 443.767 239.370, 444.750 239.604 C 445.712 239.834, 448.750 238.674, 451.500 237.028 C 457.367 233.515, 456.980 233.249, 450 236 C 443.393 238.604, 442.611 238.524, 444.626 235.449 C 445.745 233.740, 445.965 232.565, 445.293 231.893 C 444.621 231.221, 443.939 231.816, 443.230 233.694 M 369.040 235.957 C 364.771 240.527, 363.431 244.502, 365.048 247.795 L 366.377 250.500 366.975 246 C 367.675 240.736, 370.288 236.371, 373.339 235.368 C 376.165 234.439, 380.720 234.780, 383.197 236.105 C 384.283 236.687, 385.400 236.934, 385.679 236.655 C 386.756 235.578, 379.895 233, 375.951 233 C 372.644 233, 371.242 233.600, 369.040 235.957 M 309 239.822 C 309 242.371, 309.683 245.012, 313.160 255.915 C 315.053 261.851, 319.296 267.882, 322.476 269.157 C 324.139 269.824, 327.750 272.724, 330.500 275.601 C 334.199 279.471, 337.386 281.609, 342.750 283.819 C 349.497 286.599, 350 286.674, 350 284.903 C 350 283.856, 350.219 283, 350.487 283 C 351.849 283, 365.839 292.016, 369.870 295.491 C 372.417 297.687, 374 298.812, 373.388 297.991 C 372.776 297.171, 371.993 295.315, 371.648 293.867 C 371.163 291.832, 369.258 290.318, 363.260 287.202 C 358.992 284.985, 353.050 282.242, 350.055 281.107 C 345.217 279.274, 344.426 279.210, 342.967 280.530 C 341.502 281.855, 341.118 281.786, 339.412 279.887 C 338.361 278.716, 334.272 275.324, 330.327 272.348 C 319.933 264.509, 313.277 253.701, 311.485 241.749 C 310.711 236.588, 309 235.261, 309 239.822 M 351.259 249.340 C 354.555 254.902, 356.018 255.631, 355.978 251.691 C 355.949 248.902, 353.155 245.409, 350.259 244.542 C 348.130 243.905, 348.180 244.145, 351.259 249.340 M 430.010 248.982 C 429.388 250.143, 428.494 253.434, 428.022 256.296 C 427.551 259.158, 426.684 262.750, 426.097 264.278 L 425.029 267.055 420.764 264.913 C 418.419 263.735, 414.968 261.622, 413.095 260.217 L 409.690 257.662 410.394 262.081 C 410.781 264.511, 412.360 268.750, 413.902 271.500 C 420.062 282.486, 420.199 287.966, 414.548 297.350 C 411.723 302.041, 411.157 304.091, 410.596 311.663 C 408.991 333.340, 409.089 332.883, 406.143 332.355 C 402.184 331.646, 395.217 327.262, 393.243 324.238 C 391.848 322.103, 391.535 319.610, 391.676 311.772 C 391.854 301.828, 391.261 300.540, 389.009 305.979 C 388.321 307.640, 387.466 309, 387.111 309 C 386.208 309, 378.988 304.147, 376.114 301.608 L 373.729 299.500 375.026 302 C 375.739 303.375, 378.021 306.525, 380.097 309 C 383.128 312.614, 388 321.604, 388 323.583 C 388 323.812, 387.082 324, 385.960 324 C 381.266 324, 367.702 333.061, 368.660 335.557 C 369.036 336.537, 370.693 335.893, 374.837 333.154 C 377.952 331.095, 382.847 328.464, 385.716 327.306 L 390.932 325.201 392.966 330.638 C 394.085 333.628, 395 337.321, 395 338.843 C 395 341.312, 398.745 354, 399.474 354 C 399.634 354, 400.990 350.069, 402.488 345.264 L 405.212 336.528 407.598 339.514 C 408.911 341.156, 412.059 346.550, 414.593 351.500 C 418.552 359.232, 419.139 361.142, 418.765 365.060 C 418.359 369.320, 414.572 378.528, 412.769 379.643 C 412.326 379.916, 410.140 378.695, 407.911 376.929 L 403.857 373.718 404.505 377.609 C 404.862 379.749, 406.068 383.720, 407.184 386.434 C 410.012 393.308, 409.381 401.003, 405.449 407.573 C 403.827 410.283, 401.323 416.472, 399.884 421.326 L 397.268 430.152 399.634 431.051 C 400.935 431.546, 402 432.196, 402 432.495 C 402 433.753, 396.433 441.811, 392.859 445.728 C 390.736 448.053, 389 450.594, 389 451.376 C 389 452.157, 387.880 454.754, 386.512 457.148 C 383.253 462.849, 383.309 464.809, 386.750 465.571 C 388.262 465.906, 390.913 466.608, 392.640 467.131 L 395.780 468.082 393.289 473.291 C 389.452 481.317, 386.395 484.801, 382.048 486.104 C 379.473 486.875, 377.971 487.990, 377.626 489.386 C 376.514 493.885, 374.963 509.132, 375.526 510.042 C 375.851 510.569, 375.657 511, 375.094 511 C 374.531 511, 373.589 510.100, 373 509 C 371.520 506.234, 370 506.497, 370 509.519 C 370 511.756, 369.692 511.966, 367.250 511.398 C 363.046 510.420, 355.798 507.124, 353.649 505.212 C 350.546 502.452, 348.929 497.369, 348.295 488.385 C 347.968 483.759, 347.138 479.203, 346.450 478.262 C 345.347 476.754, 345.061 477.059, 344.046 480.828 C 343.413 483.181, 341.974 486.026, 340.849 487.151 C 338.936 489.064, 331.814 492.689, 322.500 496.490 C 318.834 497.987, 318.667 498.211, 320.500 499.184 C 327.064 502.665, 327.272 502.936, 325.477 505.676 C 324.562 507.072, 324.193 508.534, 324.657 508.926 C 325.121 509.318, 328.722 510.869, 332.660 512.372 C 336.598 513.876, 342.388 516.905, 345.526 519.103 C 348.665 521.302, 351.341 522.966, 351.473 522.800 C 351.605 522.635, 352.514 520.362, 353.492 517.750 C 354.471 515.138, 355.580 513, 355.957 513 C 356.334 513, 359.048 517.981, 361.988 524.068 C 368.320 537.179, 368.749 541.177, 364.667 549.045 C 363.200 551.872, 362 555.043, 362 556.092 C 362 558.435, 361.968 558.434, 354.161 555.987 C 346.505 553.587, 344.085 553.502, 342.566 555.578 C 341.532 556.993, 340.804 556.888, 335.552 554.566 C 332.329 553.140, 329.626 552.092, 329.545 552.237 C 329.463 552.382, 328.605 555.101, 327.638 558.280 L 325.879 564.059 320.716 561.280 C 317.876 559.751, 313.899 556.859, 311.879 554.853 C 307.417 550.423, 300.294 548.406, 297.073 550.661 C 294.638 552.367, 286.857 555.190, 286.253 554.587 C 286.014 554.348, 285.295 551.793, 284.655 548.911 L 283.491 543.669 272.534 538.835 C 266.507 536.176, 261.421 534, 261.232 534 C 261.042 534, 261.584 534.996, 262.437 536.214 C 263.290 537.431, 264.261 540.490, 264.596 543.010 C 265.148 547.176, 265.625 547.835, 269.852 550.267 L 274.500 552.943 269.269 552.971 C 264.534 552.997, 263.979 553.237, 263.411 555.500 C 263.066 556.875, 262.597 558, 262.370 558 C 262.142 558, 258.979 556.650, 255.340 555 C 251.701 553.350, 247.098 551.997, 245.112 551.992 C 235.802 551.973, 212.057 546.200, 209.092 543.235 C 207.764 541.907, 207.484 542.006, 206.601 544.119 C 206.054 545.429, 205.526 546.632, 205.428 546.792 C 204.999 547.492, 194.291 542.046, 192.262 540.096 C 191.031 538.913, 189.756 536.720, 189.429 535.222 C 189.101 533.725, 188.671 531.966, 188.472 531.313 C 188.273 530.660, 183.839 526.725, 178.618 522.568 C 173.396 518.411, 168.891 514.632, 168.605 514.170 C 167.857 512.959, 165.269 499.468, 164.530 492.926 C 163.532 484.091, 166.014 467.684, 170.495 453.500 C 170.845 452.393, 170.418 452.722, 169.539 454.237 C 167.793 457.244, 163.299 473.334, 161.783 482 C 161.254 485.025, 161.018 491.325, 161.258 496 C 161.498 500.675, 161.537 504.953, 161.345 505.507 C 161.152 506.064, 158.909 506.348, 156.327 506.143 L 151.659 505.771 153.740 509.136 C 154.885 510.986, 157.999 513.712, 160.661 515.193 C 167.332 518.906, 170.644 522.947, 172.574 529.727 C 174.381 536.075, 176.997 539.310, 186.746 547.253 C 190.181 550.052, 192.880 552.453, 192.745 552.589 C 192.609 552.724, 188.924 552.434, 184.556 551.944 C 180.187 551.455, 176.435 551.232, 176.218 551.449 C 176 551.667, 176.978 553.546, 178.391 555.625 C 180.306 558.443, 180.647 559.611, 179.730 560.208 C 177.210 561.849, 165.663 565, 162.145 565.007 C 160.102 565.010, 157.181 565.923, 155.500 567.083 C 153.521 568.448, 153.181 568.965, 154.500 568.604 C 174.656 563.083, 197.731 561.915, 215.500 565.517 C 219.350 566.297, 224.593 567.196, 227.150 567.514 C 229.708 567.832, 232.815 568.972, 234.053 570.046 C 235.292 571.121, 236.609 572, 236.979 572 C 237.349 572, 242.527 572.684, 248.486 573.521 C 254.445 574.357, 271.286 575.476, 285.910 576.006 C 311.762 576.944, 327.342 578.420, 345.184 581.624 C 356.465 583.650, 357.065 584.144, 355.972 590.500 C 353.031 607.604, 353.936 645.651, 358.136 681.427 C 361.131 706.947, 361.352 716.851, 359.593 746.686 C 358.711 761.638, 357.697 779.317, 357.339 785.972 C 356.718 797.519, 356.525 798.351, 353.094 804.187 C 351.117 807.551, 346.125 813.837, 342 818.156 C 335.094 825.387, 334.183 826.010, 330.500 826.023 C 322.338 826.053, 284.345 830.891, 280.033 832.450 C 270.368 835.943, 260.523 843.438, 255.040 851.477 C 252.300 855.494, 245.537 874.152, 246.167 875.955 C 246.350 876.478, 248.959 874.007, 251.964 870.463 C 259.944 861.051, 265.439 859.749, 302.500 858.489 C 323.797 857.765, 330.924 856.501, 342.066 851.470 C 346.293 849.562, 350.014 848, 350.335 848 C 350.655 848, 349.533 850.226, 347.842 852.948 C 342.633 861.326, 343.248 871.675, 349.064 873.520 C 351.880 874.414, 352.298 873.748, 350.879 870.633 C 348.775 866.016, 351.472 864.219, 368.264 859.048 C 376.449 856.527, 384.006 852.029, 387.811 847.413 L 390.631 843.992 396.093 846.951 C 403.938 851.200, 411.828 852.995, 425.500 853.641 C 432.467 853.970, 440.016 854.957, 443.500 855.994 C 456.070 859.734, 497.377 866.956, 498.691 865.642 C 499.044 865.289, 499.146 864.850, 498.917 864.666 C 498.687 864.482, 494.843 861.338, 490.373 857.678 C 485.904 854.019, 478.254 848.290, 473.373 844.947 C 468.336 841.496, 465.581 839.104, 467 839.413 C 468.375 839.712, 476.180 841.096, 484.345 842.488 C 508.688 846.638, 535.017 853.996, 543.876 859.126 C 555.602 865.916, 538.257 848.608, 523.472 838.765 C 500.787 823.663, 474.010 813.948, 439.510 808.301 L 434.520 807.484 432.796 798.492 C 427.885 772.879, 426.624 760.037, 426.561 735 C 426.528 721.525, 427.131 699.025, 427.902 685 C 429.076 663.627, 429.099 652.645, 428.041 617.146 L 426.779 574.793 431.640 569.852 C 434.313 567.134, 438.805 563.781, 441.621 562.401 L 446.743 559.891 446.230 550.891 L 445.716 541.891 448.608 542.516 C 460.350 545.057, 465.144 547.886, 467.642 553.750 C 468.404 555.538, 469.731 557, 470.592 557 C 471.452 557, 475.431 555.425, 479.433 553.500 C 484.702 550.966, 488.062 550, 491.612 550 C 495.989 550, 497.264 550.569, 503.507 555.312 C 510.493 560.618, 510.512 560.625, 522.500 562.323 C 533.889 563.935, 534.565 563.933, 535.782 562.276 C 536.955 560.679, 536.119 560.272, 525.946 557.485 L 514.828 554.440 529.164 552.709 C 537.049 551.757, 547.775 549.918, 553 548.622 L 562.500 546.267 569.352 548.165 C 573.121 549.209, 577.941 550.949, 580.062 552.032 C 584.027 554.055, 591 554.721, 591 553.077 C 591 552.569, 588.427 550.544, 585.281 548.577 C 581.019 545.911, 578.464 545, 575.249 545 C 569.415 545, 565.112 543.031, 561.193 538.567 L 557.917 534.836 555.977 537.302 C 553.571 540.361, 547.678 542.785, 540.637 543.613 L 535.270 544.244 535.747 539.279 L 536.224 534.314 525.191 533.644 C 515.182 533.036, 513.838 533.163, 510.703 535.013 L 507.247 537.052 506.678 534.875 C 506.123 532.753, 505.838 532.716, 495.304 533.395 C 484.607 534.084, 484.463 534.127, 480.780 537.719 L 477.061 541.347 474.958 538.673 C 473.193 536.430, 472.073 536, 467.986 536 C 461.960 536, 461.069 534.799, 465.011 531.992 C 467.840 529.977, 468.007 529.514, 467.464 525.165 C 466.953 521.072, 467.369 519.558, 470.858 512.813 C 473.213 508.260, 474.256 505.348, 473.417 505.670 C 471.273 506.493, 471.695 505.264, 474.954 501.191 C 479.795 495.143, 482.328 488.282, 482.225 481.500 C 482.143 476.112, 483.028 470.697, 484.703 466.331 C 485.132 465.215, 484.290 465.439, 481.660 467.144 C 479.661 468.440, 477.999 470.175, 477.968 471 C 477.616 480.401, 475.965 487.379, 473.003 491.995 C 469.743 497.076, 459.662 506.972, 452.771 511.857 C 450.236 513.653, 448.839 515.543, 448.409 517.755 C 447.446 522.706, 442.915 528.191, 437.237 531.278 L 432.128 534.055 429.956 528.100 C 428.010 522.763, 427.563 522.226, 425.647 522.935 C 424.353 523.414, 423.175 525.060, 422.660 527.113 C 421.474 531.834, 418.835 538, 417.999 538 C 417.358 538, 412.408 534.759, 407.216 530.939 C 403.968 528.549, 402.882 524.571, 401.909 511.500 C 401.417 504.900, 400.739 497.012, 400.402 493.970 C 399.479 485.644, 401.334 482.228, 410.162 475.995 C 414.198 473.147, 420.875 469.094, 425 466.990 C 429.125 464.886, 433.400 462.467, 434.500 461.614 C 436.491 460.071, 436.490 460.063, 434.397 460.032 C 432.467 460.003, 432.335 459.570, 432.794 454.788 L 433.295 449.577 430.898 451.136 C 426.841 453.774, 413 461.207, 413 460.747 C 413 460.508, 413.830 457.880, 414.844 454.907 C 415.858 451.933, 416.992 448.262, 417.363 446.750 L 418.038 444 411.019 444 C 406.205 444, 404 443.621, 404 442.793 C 404 442.130, 408.454 437.252, 413.898 431.955 L 423.796 422.323 424.898 415.220 C 426.769 403.163, 426.352 395.768, 423.500 390.404 C 420.165 384.132, 420.343 381.023, 424.499 372.867 C 426.424 369.090, 427.572 366.113, 427.051 366.250 C 425.512 366.656, 418.125 356.177, 416.997 351.989 C 415.789 347.502, 417.632 341.570, 422.887 333.029 C 425.829 328.248, 426 327.418, 426 317.918 C 426 308.494, 425.828 307.641, 423.250 304.259 C 419.373 299.172, 419.644 293.337, 424.379 280 C 426.429 274.225, 428.959 266.258, 430.001 262.295 C 431.043 258.332, 432.655 253.930, 433.583 252.513 C 434.511 251.097, 435.097 249.824, 434.885 249.686 C 434.673 249.547, 433.744 248.857, 432.820 248.152 C 431.396 247.066, 430.967 247.193, 430.010 248.982 M 514.952 251.570 C 513.222 254.084, 512.027 256.360, 512.295 256.628 C 512.807 257.140, 515.895 253.071, 517.893 249.250 C 519.864 245.483, 518.281 246.732, 514.952 251.570 M 398 258.426 C 398 259.115, 399.146 260.201, 400.547 260.839 C 403.748 262.298, 404 262.289, 404 260.719 C 404 260.015, 402.650 258.929, 401 258.306 C 398.661 257.423, 398 257.450, 398 258.426 M 540.500 260.737 C 535.964 261.881, 511.902 286.775, 504.060 298.435 C 496.592 309.540, 496.058 311.183, 501.691 305.726 C 504.401 303.100, 506.863 301.196, 507.163 301.496 C 507.462 301.796, 508.971 300.119, 510.515 297.770 C 514.145 292.249, 523.916 280.322, 527.875 276.580 C 530.145 274.434, 530.687 273.328, 529.919 272.403 C 528.911 271.188, 530.269 269.912, 541.203 261.795 C 543.641 259.985, 543.618 259.950, 540.500 260.737 M 505.095 268.045 C 503.760 270.421, 503.096 272.795, 503.488 273.795 C 504.060 275.260, 504.338 275.148, 505.459 273 C 506.815 270.401, 508.454 264, 507.764 264 C 507.546 264, 506.345 265.820, 505.095 268.045 M 371.112 276.761 C 368.985 281.301, 368.913 281.956, 370.253 284.513 L 371.716 287.305 372.960 280.710 C 374.600 272.020, 373.966 270.666, 371.112 276.761 M 231.935 277.671 C 231.376 279.140, 231.050 281.016, 231.210 281.840 C 231.369 282.663, 232 281.461, 232.611 279.168 C 233.862 274.476, 233.475 273.620, 231.935 277.671 M 228.046 291.250 C 226.362 296.012, 225.516 310.312, 226.784 312.579 C 227.773 314.345, 227.879 314.306, 228.371 311.986 C 228.912 309.434, 229.862 288, 229.434 288 C 229.303 288, 228.678 289.462, 228.046 291.250 M 459.384 292.846 C 458.033 297.592, 451.183 310.643, 447.495 315.500 C 445.406 318.250, 444.647 319.659, 445.808 318.632 C 446.969 317.604, 449.997 316.529, 452.538 316.243 C 455.551 315.903, 457.561 315.075, 458.319 313.861 C 458.958 312.838, 460.039 312, 460.721 312 C 462.044 312, 462.556 310.253, 463.401 302.859 C 463.792 299.445, 463.419 297.197, 461.992 294.359 C 460.153 290.701, 460.018 290.622, 459.384 292.846 M 287.568 295.890 C 287.220 296.452, 286.356 296.690, 285.646 296.418 C 284.387 295.935, 282 299.820, 282 302.351 C 282 303.042, 280.827 305.961, 279.394 308.837 C 277.408 312.822, 276.374 313.936, 275.050 313.516 C 273.673 313.079, 272.641 314.472, 270.076 320.232 C 268.296 324.229, 265.762 329.750, 264.446 332.500 C 261.066 339.563, 259 345.803, 259 348.951 C 259 350.436, 257.792 354.992, 256.314 359.076 C 253.833 365.937, 253.624 367.725, 253.564 382.644 L 253.500 398.788 251 397.531 C 249.625 396.840, 247.931 396.477, 247.236 396.725 C 246.542 396.973, 243.537 395.801, 240.559 394.120 C 237.581 392.440, 226.225 388.295, 215.323 384.910 C 193.066 378, 191.459 377.312, 185.969 372.353 C 181.143 367.993, 180.166 363.895, 182.395 357.355 C 183.278 354.764, 183.979 351.486, 183.953 350.072 L 183.906 347.500 181.327 350.747 L 178.748 353.994 176.022 349.747 C 174.523 347.411, 171.767 344.693, 169.898 343.706 C 166.964 342.158, 166.816 342.146, 168.816 343.622 C 173.670 347.205, 180.030 359, 177.108 359 C 176.499 359, 176 360.351, 176 362.003 C 176 364.243, 177.028 365.934, 180.052 368.666 C 185.501 373.588, 186.755 375.998, 184.522 377.248 C 183.092 378.048, 183.763 378.776, 188.658 381.739 C 196.724 386.623, 203.736 389.678, 224.700 397.444 C 249.079 406.474, 256.876 410.454, 259.538 415.227 C 261.438 418.632, 261.755 418.817, 263.206 417.365 C 265.074 415.498, 265.377 416.152, 266.511 424.500 C 267.006 428.137, 268.405 431.203, 271.646 435.750 C 275.793 441.567, 278 443.391, 278 441 C 278 438.233, 280.061 440.673, 282.436 446.250 C 284.198 450.390, 287.116 454.587, 291.079 458.682 C 296.530 464.315, 297.354 464.817, 300.357 464.330 C 304.666 463.630, 312.712 467.076, 316.929 471.427 L 320.121 474.720 317.281 477.110 C 315.719 478.425, 314.365 479.903, 314.272 480.396 C 314.179 480.890, 311.717 482.145, 308.802 483.186 C 302.330 485.498, 299.107 485.029, 290.668 480.553 L 284.343 477.197 281.606 480.628 L 278.868 484.058 274.866 479.279 C 272.665 476.651, 270.040 472.920, 269.033 470.988 C 266.935 466.964, 255.479 456.586, 254.085 457.447 C 253.575 457.763, 251.884 455.429, 250.329 452.260 C 248.203 447.931, 247.448 444.832, 247.290 439.788 C 247.055 432.286, 244.711 426.528, 239.775 421.332 C 238.120 419.589, 236.256 417.194, 235.633 416.011 C 235.010 414.827, 231.874 412.683, 228.664 411.247 C 222.989 408.707, 222.660 408.674, 216.664 410.054 C 213.274 410.835, 208.162 411.479, 205.305 411.487 C 200.789 411.498, 199.672 411.075, 196.757 408.250 C 193.699 405.285, 192.854 405, 187.133 405 C 181.211 405, 180.879 405.125, 181.180 407.236 C 181.466 409.234, 182.407 409.604, 190 410.705 C 194.675 411.383, 202.100 412.238, 206.500 412.605 C 210.984 412.980, 216.101 414.077, 218.143 415.102 C 222.562 417.321, 228.983 424.581, 229.045 427.430 C 229.070 428.568, 230.119 431.465, 231.375 433.867 L 233.660 438.234 234.990 435.024 L 236.320 431.813 239.758 437.157 C 241.649 440.095, 244.755 445.650, 246.660 449.500 C 250.737 457.739, 250.675 461.540, 246.322 470.415 C 243.702 475.758, 243.416 476, 239.722 476 C 236.312 476, 235.898 476.257, 236.180 478.203 C 236.449 480.053, 237.490 480.585, 242.676 481.519 L 248.851 482.632 249.545 474.301 C 249.927 469.719, 250.582 465.758, 251.001 465.500 C 252.209 464.753, 267.014 480.790, 268.583 484.543 C 269.362 486.409, 270 489.252, 270 490.861 C 270 496.089, 272.777 495.658, 279.041 489.459 L 284.718 483.841 285.359 487.046 C 285.712 488.808, 286 491.683, 286 493.434 C 286 497.635, 287.685 499.624, 292.284 500.849 C 295.439 501.690, 296.852 501.502, 300.784 499.717 C 303.378 498.539, 307.884 497.334, 310.797 497.038 L 316.095 496.500 318.966 488.282 C 322.906 477.003, 325.787 472.241, 330.298 469.550 L 334.138 467.261 323.319 457.965 C 317.368 452.853, 309.733 445.989, 306.350 442.713 C 300.401 436.951, 300.163 436.827, 299.042 438.922 C 297.900 441.055, 297.805 441.023, 292.796 436.829 C 286.533 431.586, 284.009 427.591, 284.004 422.917 C 283.999 418.237, 283.132 417.527, 280.472 420.026 L 278.296 422.070 274.535 417.908 C 272.467 415.618, 269.907 411.782, 268.846 409.384 C 266.444 403.955, 267.207 400.531, 273.696 387.610 C 278.183 378.675, 278.190 378.645, 275.351 380.451 C 273.783 381.449, 271.543 383.132, 270.373 384.191 L 268.246 386.118 267.522 379.360 C 267.008 374.564, 266.103 371.690, 264.403 369.462 C 260.042 363.744, 259.617 360.948, 261.870 352.810 C 262.983 348.789, 264.988 342.835, 266.324 339.577 L 268.755 333.653 270.200 336.413 C 271.634 339.148, 271.677 339.077, 275.213 328.336 C 280.468 312.370, 283.402 304.543, 284.277 304.158 C 285.370 303.676, 289.240 295.906, 288.670 295.337 C 288.412 295.078, 287.916 295.327, 287.568 295.890 M 492.706 298.666 C 491.748 300.216, 489.641 315.974, 490.303 316.636 C 490.659 316.992, 491.807 316.225, 492.855 314.931 C 495.387 311.804, 496.585 301.156, 494.625 299.196 C 493.861 298.433, 492.998 298.194, 492.706 298.666 M 192.500 322.423 C 192.500 330.656, 192.772 332.641, 193.844 332.230 C 194.867 331.837, 195.106 329.605, 194.844 322.906 C 194.340 310.014, 192.500 309.635, 192.500 322.423 M 435.520 328.158 C 433.459 330.608, 433.026 331.898, 433.589 333.908 C 433.989 335.334, 435.059 339.408, 435.968 342.963 C 437.867 350.394, 439.326 349.822, 438.109 342.123 C 437.658 339.272, 437.502 335.825, 437.762 334.464 C 438.022 333.102, 437.745 331.398, 437.146 330.676 C 436.346 329.712, 436.462 328.785, 437.585 327.182 C 439.863 323.930, 438.560 324.546, 435.520 328.158 M 325.184 336.750 C 324.006 341.563, 321.412 348.731, 319.419 352.681 C 317.427 356.630, 316.107 360.364, 316.487 360.979 C 318.934 364.939, 326.315 347.174, 328.423 332.250 C 329.475 324.803, 327.403 327.681, 325.184 336.750 M 499.575 338.917 C 498.110 340.536, 498.036 341.196, 499.095 343.167 C 499.785 344.450, 500.889 347.300, 501.550 349.500 L 502.750 353.500 505.067 348.765 C 507.303 344.196, 507.325 343.905, 505.708 340.515 C 503.821 336.556, 502.114 336.111, 499.575 338.917 M 141 338.941 C 146.775 339.359, 154.200 339.989, 157.500 340.341 C 162.458 340.870, 163.066 340.782, 161 339.837 C 159.606 339.199, 152.305 338.580, 144.500 338.437 C 130.535 338.182, 130.526 338.184, 141 338.941 M 544.315 350.007 C 543.114 350.491, 541.653 351.780, 541.069 352.871 C 540.110 354.663, 540.467 354.604, 544.754 352.259 C 547.364 350.830, 549.688 349.513, 549.917 349.331 C 550.790 348.637, 546.400 349.167, 544.315 350.007 M 535.403 359.777 C 532.151 362.636, 522.989 380.226, 523.015 383.560 C 523.024 384.627, 523.414 386.105, 523.883 386.845 C 524.508 387.831, 524.920 387.456, 525.425 385.442 C 525.805 383.930, 527.380 380.850, 528.926 378.596 C 530.473 376.343, 532.947 371.141, 534.425 367.035 C 535.903 362.929, 537.592 358.992, 538.179 358.285 C 539.888 356.225, 538.742 356.841, 535.403 359.777 M 463.015 362.750 C 463.024 363.163, 463.449 364.162, 463.961 364.971 C 465.113 366.793, 466.465 365.653, 465.655 363.543 C 465.057 361.985, 462.987 361.363, 463.015 362.750 M 595.500 366.145 C 593.300 366.657, 590.775 367.625, 589.889 368.297 C 588.302 369.499, 582.565 379.927, 583.183 380.487 C 583.357 380.645, 587.308 377.225, 591.962 372.887 C 596.616 368.549, 600.216 365.048, 599.962 365.107 C 599.708 365.166, 597.700 365.633, 595.500 366.145 M 301.500 368.097 C 294.534 370.733, 280 378.172, 280 379.101 C 280 379.524, 280.441 381.030, 280.980 382.448 L 281.960 385.025 286.917 381.464 C 289.643 379.506, 292.015 376.980, 292.187 375.852 C 292.500 373.801, 292.502 373.802, 295.222 375.950 C 297.530 377.774, 298.286 377.917, 300.199 376.893 C 302.381 375.726, 302.390 375.662, 300.478 374.958 C 298.698 374.302, 298.776 374.157, 301.266 373.502 C 303.877 372.816, 308 368.752, 308 366.865 C 308 365.740, 307.457 365.842, 301.500 368.097 M 500.501 368.750 C 503.563 376.238, 502.782 383.060, 497.970 390.859 C 496.045 393.978, 495.772 394.103, 494.135 392.622 C 492.776 391.392, 492.101 391.299, 491.186 392.214 C 489.042 394.358, 489.932 395, 495.055 395 L 500.110 395 502.415 389.750 C 507.596 377.952, 507.585 378.075, 503.962 372.246 C 500.709 367.013, 499.146 365.434, 500.501 368.750 M 474.013 377.250 C 474.020 377.387, 475.344 380.100, 476.956 383.278 C 478.567 386.455, 480.186 391.057, 480.553 393.504 C 481.162 397.567, 481.393 397.860, 483.217 396.884 C 485.770 395.518, 485.165 391.913, 480.930 383.250 C 478.748 378.786, 477.321 377, 475.937 377 C 474.872 377, 474.006 377.113, 474.013 377.250 M 587.500 385.963 C 581.701 388.732, 581.613 388.831, 584.864 388.914 C 588.171 388.999, 596 385.414, 596 383.816 C 596 382.418, 593.718 382.995, 587.500 385.963 M 606.554 392.913 C 606.215 393.462, 607.855 394.422, 610.220 395.058 C 612.574 395.691, 615.779 396.871, 617.343 397.679 C 618.907 398.486, 620.414 398.920, 620.692 398.641 C 621.228 398.106, 613.008 393.726, 609.334 392.589 C 608.143 392.220, 606.892 392.366, 606.554 392.913 M 546.661 401.048 C 542.930 409.037, 542.909 409.155, 543.736 417.298 L 544.570 425.500 546.702 421.500 C 549.503 416.245, 555.792 409.840, 562.950 404.954 C 566.128 402.785, 569.935 399.186, 571.411 396.955 L 574.095 392.900 571.234 394.379 C 567.115 396.509, 556 397.659, 556 395.955 C 556 395.167, 554.957 395.610, 553.364 397.076 C 550.868 399.372, 550.789 399.385, 551.864 397.316 C 553.353 394.452, 553.301 393, 551.710 393 C 551 393, 548.728 396.621, 546.661 401.048 M 351 405.406 C 351 407.387, 352.927 408.473, 354.194 407.206 C 354.888 406.512, 354.540 405.824, 353.107 405.057 C 351.407 404.147, 351 404.214, 351 405.406 M 490.702 415.061 L 484.904 420 490.702 419.968 C 495.792 419.940, 496.282 419.771, 494.716 418.583 C 493.015 417.292, 493.031 417.062, 495.065 413.615 C 496.238 411.627, 497.041 410.028, 496.849 410.061 C 496.657 410.095, 493.891 412.345, 490.702 415.061 M 369 414.901 C 369 416.494, 370.469 417.727, 374.963 419.904 L 380.926 422.793 377.251 418.396 C 375.230 415.978, 373.259 414, 372.870 414 C 372.481 414, 371.452 413.727, 370.582 413.393 C 369.447 412.957, 369 413.383, 369 414.901 M 466.506 422.994 C 458.266 431.273, 457.824 431.911, 460.960 431.011 C 462.834 430.474, 464.479 430.146, 464.616 430.282 C 464.752 430.419, 463.089 434.306, 460.920 438.920 C 458.751 443.534, 457.168 447.501, 457.401 447.734 C 457.635 447.968, 460.779 446.178, 464.389 443.756 C 468.665 440.888, 470.612 439.012, 469.975 438.375 C 468.207 436.607, 473.801 427.325, 479.644 422.333 C 482.650 419.765, 485.551 416.839, 486.090 415.832 C 486.988 414.154, 486.583 414, 481.264 414 L 475.458 414 466.506 422.994 M 393.221 426 C 392.465 427.939, 392.573 428.576, 393.701 428.838 C 395.811 429.329, 396.163 428.600, 395.119 425.895 L 394.196 423.500 393.221 426 M 162.500 434.399 C 158.382 435.701, 152 438.759, 152 439.430 C 152 439.638, 154.242 438.956, 156.982 437.915 C 159.722 436.874, 164.437 435.731, 167.458 435.376 C 170.479 435.021, 172.711 434.341, 172.417 433.865 C 171.672 432.660, 167.245 432.898, 162.500 434.399 M 197 434.068 C 197 434.552, 198.306 435.624, 199.903 436.450 C 202.279 437.678, 202.898 437.709, 203.317 436.617 C 203.645 435.761, 202.604 434.907, 200.414 434.235 C 198.536 433.659, 197 433.584, 197 434.068 M 217.015 442.263 C 217.037 445.430, 217.790 446.230, 224.132 449.822 L 229.765 453.012 230.310 450.256 C 230.993 446.807, 229.932 445.728, 222.750 442.561 L 217 440.025 217.015 442.263 M 533.121 442.101 C 531.024 443.801, 530.609 443.850, 529.621 442.512 C 528.662 441.213, 527.448 441.752, 521.209 446.247 C 514.536 451.055, 513.784 451.958, 512.343 456.904 C 511.184 460.882, 510.943 464.311, 511.430 469.904 C 512.156 478.243, 510.887 483.541, 506.785 489.303 L 504.527 492.473 507.668 490.236 C 509.395 489.006, 511.142 488, 511.549 488 C 511.956 488, 512.013 490.961, 511.675 494.579 L 511.060 501.158 514.280 499.063 C 516.051 497.911, 520.722 495.167, 524.659 492.964 C 530.038 489.956, 532.081 488.206, 532.875 485.929 C 533.456 484.262, 536.720 479.994, 540.128 476.445 C 543.536 472.896, 546.046 469.713, 545.705 469.372 C 545.364 469.031, 543.398 469.425, 541.335 470.248 C 538.068 471.551, 537.341 472.477, 535.684 477.447 C 533.357 484.429, 528.818 489.193, 522.414 491.375 C 514.598 494.038, 514.022 493.794, 513.855 487.750 C 513.483 474.319, 514.911 471.031, 523.064 466.550 C 524.848 465.570, 526.493 462.911, 528.468 457.820 C 530.029 453.794, 532.360 448.284, 533.647 445.577 C 534.934 442.869, 535.877 440.545, 535.743 440.413 C 535.609 440.280, 534.429 441.040, 533.121 442.101 M 631.555 450.911 C 631.245 451.413, 628.091 452.863, 624.547 454.134 C 618.094 456.449, 617.605 457.954, 623.298 457.985 C 625.756 457.998, 637 451.866, 637 450.512 C 637 449.609, 632.139 449.965, 631.555 450.911 M 489.442 455.250 C 486.030 458.514, 485.229 459.848, 485.986 461 C 486.813 462.257, 487.381 462.014, 489.498 459.500 C 497.276 450.260, 497.243 447.785, 489.442 455.250 M 591.500 461.579 C 590.950 461.747, 585.034 462.359, 578.354 462.940 C 566.948 463.931, 565.891 464.209, 561.004 467.498 C 558.141 469.424, 555.169 471, 554.400 471 C 553.439 471, 553 472.225, 553 474.904 L 553 478.808 557.790 476.988 C 562.067 475.363, 576.317 472, 578.926 472 C 579.482 472, 579.690 472.645, 579.387 473.433 C 578.979 474.496, 580.732 475.429, 586.169 477.043 C 590.201 478.240, 597.695 480.788, 602.822 482.704 C 607.949 484.621, 612.436 485.897, 612.793 485.540 C 613.729 484.604, 612.008 483.687, 597.268 477.265 C 584.556 471.726, 581.847 470, 585.867 470 C 586.945 470, 588.879 468.269, 590.442 465.908 C 593.161 461.800, 593.353 461.014, 591.500 461.579 M 134.518 470.971 C 133.061 473.329, 139.895 481.222, 141.856 479.444 C 142.198 479.134, 135.944 470, 135.389 470 C 135.240 470, 134.848 470.437, 134.518 470.971 M 645.905 474.103 C 643.821 476.360, 639.784 481.760, 636.932 486.103 C 634.081 490.446, 631.418 494, 631.015 494 C 629.846 494, 621 502.069, 621 503.136 C 621 503.667, 622.593 504.768, 624.540 505.581 C 628.519 507.244, 628.409 508.174, 624.021 509.991 C 622.360 510.679, 621 511.638, 621 512.121 C 621 513.532, 621.947 513.202, 628.654 509.451 C 634.632 506.108, 636.579 504.019, 633.750 503.985 C 633.063 503.976, 631.908 503.594, 631.185 503.135 C 629.084 501.803, 635.103 490.300, 640.412 485.500 C 645.264 481.114, 652.767 470, 650.877 470 C 650.226 470, 647.988 471.846, 645.905 474.103 M 202.244 474.642 C 199.392 475.842, 202.533 477, 208.642 477 C 213.415 477, 215.056 476.664, 214.754 475.750 C 214.334 474.476, 204.672 473.620, 202.244 474.642 M 211.778 491.511 C 213.070 494.017, 217 497.653, 217 496.342 C 217 495.810, 215.592 494.052, 213.870 492.437 C 211.636 490.340, 211.037 490.075, 211.778 491.511 M 497.500 492.581 C 495.850 493.960, 491.739 496.654, 488.364 498.567 L 482.229 502.044 484.438 509.012 C 485.653 512.845, 486.888 516.221, 487.181 516.515 C 487.475 516.808, 487.982 514.450, 488.309 511.274 C 488.852 505.990, 489.309 505.116, 493.701 500.972 C 496.341 498.482, 499.806 495.512, 501.402 494.373 C 503.097 493.164, 504.009 491.823, 503.593 491.151 C 502.518 489.411, 500.813 489.810, 497.500 492.581 M 237.065 494.420 C 236.931 496.309, 243.534 513.990, 244.375 513.995 C 244.856 513.998, 244.998 512.763, 244.691 511.250 C 244.069 508.195, 237.168 492.965, 237.065 494.420 M 578.762 508.250 C 580.386 510.266, 581.175 515.549, 580.439 519.473 C 579.865 522.535, 579.123 523.367, 575.778 524.705 L 571.801 526.297 574.728 527.528 C 576.338 528.205, 579.260 530.167, 581.221 531.889 C 584.618 534.872, 588.613 535.340, 587.717 532.651 C 587.515 532.044, 589.608 530.752, 592.368 529.780 C 595.129 528.808, 597.737 527.663, 598.163 527.237 C 598.590 526.810, 596.677 524.780, 593.913 522.726 C 589.887 519.734, 588.513 519.191, 587.009 519.995 C 584.191 521.503, 584 521.322, 584 517.149 C 584 511.367, 582.184 507, 579.780 507 C 578.290 507, 578.021 507.330, 578.762 508.250 M 235.630 514.523 C 235.280 515.435, 235.247 516.590, 235.556 517.090 C 235.865 517.591, 235.641 518, 235.059 518 C 232.454 518, 234.491 520.689, 238.546 522.602 L 243 524.705 243 522.049 C 243 518.518, 236.603 511.986, 235.630 514.523 M 624.441 514.437 C 625.870 515.588, 628.773 516.011, 635.441 516.044 C 640.424 516.068, 646.525 516.478, 649 516.957 C 655.285 518.171, 655.210 517.447, 648.849 515.496 C 645.907 514.593, 638.775 513.634, 633 513.365 C 623.362 512.915, 622.659 513.003, 624.441 514.437 M 210 518.051 C 216.482 519.204, 221.230 519.181, 220.500 518 C 220.160 517.450, 216.646 517.056, 212.691 517.125 C 205.846 517.244, 205.717 517.289, 210 518.051 M 109 539.653 C 109 540.819, 126.474 547, 129.769 547 C 130.511 547, 130.870 547.401, 130.568 547.891 C 129.582 549.486, 134.369 551.673, 140.368 552.366 L 146.237 553.045 143.368 549.609 C 139.717 545.235, 140.112 545.393, 123.250 541.591 C 112.707 539.213, 109 538.709, 109 539.653 M 106.750 554.428 C 105.787 555.139, 105 556.008, 105 556.360 C 105 557.444, 108.841 557.067, 109.554 555.913 C 110.664 554.117, 108.629 553.039, 106.750 554.428 M 100.751 573.609 C 100.194 574.524, 103.905 585.428, 104.553 584.780 C 104.751 584.582, 104.099 581.787, 103.103 578.569 C 102.107 575.350, 101.049 573.119, 100.751 573.609" stroke="none" fill="#532404" fill-rule="evenodd"/><path d="M 422.285 180.239 C 417.535 186.530, 414 193.170, 414 195.800 C 414 197.992, 419.814 210, 420.875 210 C 421.935 210, 428.584 202.850, 429.882 200.316 C 430.497 199.114, 431 196.503, 431 194.513 C 431 190.400, 428.165 176.908, 427.047 175.704 C 426.641 175.267, 424.498 177.308, 422.285 180.239 M 403.543 188.005 C 398.593 194.685, 392.985 205.342, 393.023 208 C 393.034 208.825, 393.922 211.434, 394.995 213.799 L 396.946 218.098 394.174 216.124 C 392.649 215.038, 386.550 212.474, 380.620 210.426 C 372.422 207.594, 369.341 206.028, 367.761 203.890 C 366.617 202.344, 365.345 201.287, 364.933 201.541 C 364.521 201.796, 363.422 206.235, 362.491 211.406 C 361.046 219.433, 360.996 221.217, 362.149 223.608 C 363.481 226.369, 371.233 233, 373.130 233 C 373.666 233, 374.575 231.650, 375.150 230 C 376.469 226.215, 377.542 226.213, 379.495 229.991 C 380.346 231.635, 382.066 233.653, 383.319 234.473 L 385.596 235.965 381.300 244.733 C 376.127 255.292, 375.880 258.897, 379.909 265.054 C 384.686 272.355, 387.386 275.173, 389.008 274.550 C 389.832 274.234, 392.079 271.668, 394.003 268.847 C 397.213 264.138, 397.495 263.135, 397.441 256.609 C 397.397 251.292, 396.721 247.924, 394.761 243.250 L 392.140 237 398.115 237 L 404.091 237 403.405 233.250 C 403.028 231.188, 402.333 228.458, 401.860 227.185 C 400.736 224.159, 400.789 223.117, 401.971 224.987 C 402.734 226.193, 403.852 225.497, 407.901 221.297 C 414.954 213.979, 415.807 210.250, 413.227 198 C 412.127 192.775, 410.581 186.927, 409.792 185.005 L 408.357 181.509 403.543 188.005 M 449.437 197.991 C 440.125 208.718, 438.745 211.350, 439.379 217.172 C 439.863 221.620, 443.951 231.233, 445.859 232.413 C 447.006 233.122, 455.168 226.918, 457.232 223.769 C 460.256 219.153, 460.885 214.424, 459.895 203.741 C 458.883 192.828, 458.312 190, 457.119 190 C 456.709 190, 453.252 193.596, 449.437 197.991 M 312.303 205.226 C 311.152 206.477, 308.326 210.425, 306.021 214 C 302.379 219.648, 301.890 221.056, 302.291 224.742 C 302.552 227.144, 304.088 231.036, 305.832 233.717 L 308.911 238.451 313.403 233.762 C 319.023 227.897, 319.679 224.701, 317.484 213.866 C 315.275 202.958, 314.925 202.374, 312.303 205.226 M 426.721 210.802 C 423.991 218.638, 422 227.556, 422 231.944 C 422 238.474, 423.762 241.046, 433.826 249.214 C 435.842 250.850, 436.008 250.827, 437.504 248.714 C 438.366 247.496, 439.994 243.477, 441.123 239.781 C 442.886 234.011, 443.004 232.529, 441.960 229.281 C 440.701 225.367, 430.637 207.512, 429.182 206.613 C 428.729 206.332, 427.621 208.217, 426.721 210.802 M 502.621 208.750 C 502.338 209.713, 501.407 213.968, 500.553 218.208 L 499 225.915 490.500 234.301 L 482 242.687 482 248.306 C 482 251.537, 482.878 256.273, 484.067 259.449 L 486.133 264.973 489.968 263.017 L 493.802 261.060 490.966 268.425 C 489.406 272.475, 487.818 277.454, 487.436 279.488 C 486.937 282.148, 485.866 283.720, 483.621 285.089 C 481.905 286.136, 480.275 286.995, 480 286.998 C 479.725 287, 479.654 284.524, 479.843 281.494 C 480.165 276.324, 478.382 259.048, 477.428 258.094 C 477.188 257.855, 475.926 258.660, 474.624 259.884 C 472.675 261.715, 472.154 261.845, 471.684 260.619 C 471.347 259.741, 472.521 257.591, 474.542 255.384 C 479.176 250.326, 481.383 244.254, 480.767 238.268 C 480.217 232.938, 473.241 214, 471.828 214 C 470.374 214, 460.901 234.319, 460.314 238.695 C 459.956 241.365, 460.334 243.746, 461.464 245.930 C 462.390 247.721, 463.002 249.261, 462.824 249.354 C 462.646 249.446, 461.515 250.349, 460.311 251.360 C 458.134 253.190, 458.085 253.161, 450.975 245.850 C 443.885 238.559, 443.819 238.520, 442.798 241 C 442.231 242.375, 441.615 250.025, 441.428 258 C 441.175 268.780, 440.599 274.017, 439.184 278.413 L 437.279 284.327 433.038 277.065 C 430.705 273.071, 428.438 270.185, 428 270.652 C 426.089 272.688, 420.657 290.900, 420.582 295.525 C 420.491 301.091, 423.399 306.102, 429.884 311.557 L 433.267 314.403 435.643 311.451 C 436.950 309.828, 438.556 307.038, 439.211 305.250 C 439.866 303.462, 440.649 302.004, 440.951 302.010 C 441.253 302.015, 443.483 303.596, 445.907 305.523 C 450.043 308.810, 450.426 308.924, 452.136 307.377 C 454.355 305.369, 458 295.941, 457.999 292.212 C 457.999 290.721, 456.680 286.714, 455.069 283.308 C 453.088 279.121, 452.603 277.294, 453.570 277.665 C 454.357 277.967, 455 279.082, 455 280.142 C 455 281.677, 455.361 281.877, 456.769 281.123 C 458.306 280.301, 458.552 280.659, 458.640 283.838 C 458.695 285.852, 459.909 289.914, 461.336 292.865 C 463.391 297.116, 463.820 299.192, 463.401 302.865 C 462.556 310.252, 462.044 312, 460.721 312 C 460.039 312, 458.958 312.838, 458.319 313.861 C 457.571 315.059, 455.565 315.902, 452.689 316.226 C 447.583 316.801, 442.066 320.537, 438.439 325.875 C 436.817 328.262, 436.374 329.745, 437.042 330.550 C 437.580 331.199, 437.925 333.253, 437.808 335.115 C 437.538 339.439, 438.831 349.109, 439.915 350.862 C 440.590 351.954, 441.659 351.803, 445.623 350.052 C 451.398 347.501, 456.377 342.948, 458.126 338.619 C 459.676 334.784, 461.031 333.780, 462.741 335.200 C 463.460 335.797, 464.333 336, 464.681 335.652 C 465.029 335.304, 466.305 337.458, 467.516 340.438 C 468.727 343.418, 471.128 347.636, 472.850 349.811 L 475.982 353.765 472.965 355.015 C 467.774 357.165, 465.735 361.258, 464.128 372.750 L 463.395 378 468.447 377.956 C 471.226 377.932, 475.300 377.264, 477.500 376.471 C 479.700 375.679, 481.613 375.023, 481.750 375.015 C 481.887 375.007, 482 376.334, 482 377.965 C 482 381.225, 485.653 385.973, 492.073 391.058 L 495.951 394.129 497.996 390.815 C 499.122 388.992, 500.750 385.103, 501.614 382.173 C 503.032 377.371, 503.036 376.389, 501.655 372.195 C 500.813 369.636, 500.253 367.414, 500.410 367.256 C 500.568 367.099, 502.388 369.709, 504.454 373.057 C 506.521 376.405, 508.771 379.359, 509.455 379.621 C 510.337 379.960, 509.651 382.256, 507.100 387.512 L 503.500 394.925 495.284 394.962 C 482.785 395.020, 479.267 397.388, 474.859 408.717 C 473.338 412.627, 473.338 412.971, 474.859 413.440 C 478.123 414.446, 489.658 414.253, 491.704 413.159 C 492.856 412.542, 496.319 409.253, 499.399 405.848 C 502.480 402.444, 505 400.200, 505 400.860 C 505 401.521, 503.449 403.423, 501.554 405.087 C 499.659 406.751, 496.957 410.173, 495.549 412.692 C 493.137 417.007, 493.090 417.348, 494.745 418.604 C 496.262 419.755, 495.562 419.941, 489.594 419.968 C 483.800 419.995, 482.162 420.402, 479.414 422.498 C 475.578 425.423, 472.532 429.483, 470.471 434.415 C 468.996 437.944, 468.998 437.947, 472.248 439.652 C 474.294 440.724, 477.942 441.383, 482.085 441.428 C 489.785 441.512, 491.984 440.277, 504.249 428.975 C 508.412 425.139, 512.463 422, 513.250 422 C 514.038 422, 518.664 419.239, 523.532 415.865 C 532.329 409.767, 532.363 409.753, 529.277 413.650 C 523.815 420.546, 522.435 424.431, 523.727 429.270 C 524.345 431.587, 524.742 433.591, 524.609 433.724 C 524.476 433.857, 522.825 433.523, 520.940 432.983 C 519.055 432.442, 514.533 432, 510.891 432 C 502.993 432, 500.890 433.326, 494.974 442.038 C 492.788 445.257, 491 448.085, 491 448.324 C 491 448.562, 492.350 449.317, 494 450 C 495.650 450.683, 497 451.612, 497 452.064 C 497 452.516, 495.650 456.916, 494 461.841 C 489.303 475.861, 489.977 479.198, 499.179 487.471 L 504.442 492.203 501.471 494.335 C 499.837 495.507, 496.384 498.428, 493.797 500.826 C 489.987 504.358, 488.968 506.033, 488.424 509.656 C 487.778 513.964, 489.532 525.593, 490.961 526.476 C 491.333 526.706, 493.911 525.840, 496.691 524.552 L 501.746 522.210 502.967 526.283 C 503.638 528.523, 504.966 531.809, 505.917 533.584 L 507.647 536.812 512.825 533.822 C 515.674 532.178, 518.678 529.870, 519.502 528.694 C 520.965 526.605, 521 526.630, 521 529.777 C 521 532.651, 521.307 533, 523.841 533 C 525.404 533, 528.891 532.330, 531.591 531.511 C 534.291 530.692, 536.550 530.017, 536.611 530.011 C 536.673 530.005, 536.581 531.013, 536.407 532.250 C 536.234 533.487, 535.895 536.694, 535.655 539.375 L 535.218 544.250 540.611 543.616 C 547.676 542.786, 553.568 540.364, 555.977 537.302 L 557.917 534.836 561.193 538.567 C 562.995 540.619, 565.924 542.906, 567.702 543.649 C 571.264 545.137, 583.109 545.375, 589.740 544.092 C 592.969 543.468, 594.264 543.613, 595.168 544.702 C 598.088 548.221, 602.481 549.329, 615.394 549.803 C 626.207 550.199, 628.157 550.052, 627.477 548.888 C 625.417 545.366, 616.640 534.908, 612.934 531.559 C 610.673 529.516, 608.975 527.744, 609.161 527.621 C 609.347 527.497, 612.200 526.579, 615.500 525.579 C 624.486 522.858, 632 519.942, 631.998 519.178 C 631.996 518.805, 629.521 517.207, 626.498 515.627 C 623.474 514.047, 621 512.415, 621 511.999 C 621 511.583, 622.360 510.679, 624.021 509.991 C 625.683 509.303, 627.248 508.407, 627.500 508 C 628.575 506.261, 607.140 496.966, 602.227 497.042 C 598.559 497.098, 594.186 499.599, 588.437 504.927 L 583.661 509.354 586.810 511.983 C 589.623 514.331, 589.798 514.774, 588.446 516.126 C 587.094 517.478, 587.637 518.158, 593.525 522.480 L 600.118 527.321 593.615 529.428 L 587.112 531.535 589.023 535.802 L 590.933 540.068 584.236 534.387 C 576.006 527.405, 572.585 525.853, 567.802 526.932 C 565.841 527.374, 563.733 528.047, 563.118 528.427 C 561.436 529.467, 561.720 528.498, 565 522 C 566.650 518.731, 568 515.594, 568 515.029 C 568 513.298, 563.936 513.955, 553.946 517.301 L 544.392 520.500 548.133 511 C 550.191 505.775, 552.465 501.187, 553.187 500.804 C 553.909 500.421, 556.173 499.841, 558.218 499.515 C 560.263 499.188, 562.527 498.377, 563.249 497.711 C 569.056 492.357, 569.040 492.352, 566.474 498.665 C 565.169 501.874, 564.432 504.831, 564.836 505.235 C 566.145 506.546, 575.914 507.966, 579.252 507.332 C 581.039 506.992, 583.680 506.122, 585.122 505.398 C 587.753 504.077, 604 487.353, 604 485.967 C 604 483.787, 582.261 483.872, 576.348 486.074 C 575.164 486.515, 573.002 488.141, 571.542 489.688 C 569.512 491.840, 569.874 490.865, 573.084 485.539 C 578.261 476.947, 580.412 472, 578.971 472 C 576.325 472, 562.104 475.349, 557.790 476.988 L 553 478.808 553 474.904 C 553 472.361, 553.455 471, 554.304 471 C 555.022 471, 557.751 469.641, 560.369 467.981 C 563.771 465.824, 565.695 463.683, 567.111 460.481 C 568.202 458.016, 569.241 456, 569.421 456 C 569.601 456, 571.662 456.675, 574 457.500 C 582.790 460.601, 588.121 459.182, 600.820 450.360 C 604.296 447.945, 607.559 446.227, 608.070 446.543 C 608.582 446.859, 609 448.640, 609 450.500 C 609 452.360, 609.398 454.128, 609.884 454.428 C 611.274 455.288, 619.815 452.388, 623.947 449.654 C 628.409 446.701, 630.949 441.688, 633.876 430.060 C 637.151 417.045, 637.349 417.301, 627.750 422.117 C 613.302 429.366, 610.314 432.167, 608.610 440.060 L 608.057 442.621 599.279 440.362 C 594.450 439.120, 587.928 438.080, 584.785 438.052 C 579.754 438.006, 578.637 438.380, 575.457 441.172 L 571.845 444.343 572.534 440.672 C 572.913 438.652, 572.906 437, 572.520 437 C 570.848 437, 554.167 446.227, 550.774 449.029 C 546.341 452.690, 544.515 458.218, 545.364 465.408 L 545.943 470.317 539.524 477.122 C 530.799 486.371, 530.493 488.497, 535.639 504.154 C 536.009 505.277, 535.432 506.045, 533.841 506.550 C 532.554 506.958, 529.853 508.332, 527.840 509.602 C 523.401 512.403, 523 511.813, 523 502.477 C 523 498.946, 522.513 495.817, 521.904 495.441 C 521.302 495.068, 518.569 496.954, 515.831 499.632 L 510.854 504.500 511.556 496.250 C 511.942 491.712, 511.932 488, 511.533 488 C 511.135 488, 509.451 488.967, 507.792 490.148 L 504.776 492.296 507.283 488.398 C 513.164 479.256, 513.224 472.367, 507.522 461.043 C 505.585 457.197, 504 453.814, 504 453.525 C 504 453.236, 505.749 453, 507.886 453 C 511.038 453, 513.352 451.868, 520.136 447.008 C 527.285 441.886, 528.664 441.236, 529.629 442.533 C 530.598 443.836, 531.486 443.474, 535.922 439.967 C 538.763 437.722, 541.803 434.384, 542.677 432.550 C 544.155 429.452, 544.487 429.279, 547.377 430.108 C 556.696 432.781, 563.244 429.896, 572.348 419.107 C 578.016 412.391, 579.533 411.170, 582.879 410.635 C 587.285 409.931, 595.781 403.931, 603.382 396.156 L 608.265 391.162 603.382 390.358 C 600.697 389.915, 593.979 389.541, 588.452 389.527 L 578.405 389.500 583.702 378.777 C 586.616 372.879, 589 367.620, 589 367.090 C 589 366.558, 586.089 366.934, 582.500 367.929 C 578.925 368.920, 576 369.552, 576 369.334 C 576 369.115, 576.675 367.320, 577.500 365.346 C 578.325 363.371, 579 361.586, 579 361.378 C 579 359.276, 558.443 367.186, 553.661 371.128 C 549.476 374.577, 548.014 378.852, 548.006 387.655 L 548 393.810 552 393.273 C 555.645 392.784, 556 392.937, 556 394.997 C 556 397.177, 556.222 397.233, 562.186 396.558 C 565.589 396.173, 569.636 395.206, 571.179 394.408 C 573.961 392.969, 573.951 393.008, 569.992 399.133 C 567.796 402.531, 566 405.858, 566 406.527 C 566 407.196, 568.362 408.440, 571.250 409.291 L 576.500 410.839 567.315 410.919 C 562.263 410.964, 557.019 411.422, 555.661 411.939 C 552.475 413.150, 549.359 416.484, 546.726 421.500 L 544.626 425.500 543.416 414.862 C 542.750 409.010, 541.876 403.183, 541.472 401.913 L 540.739 399.602 538.417 402.301 C 537.100 403.832, 535.102 404.977, 533.798 404.948 L 531.500 404.895 533.991 403.198 C 545.389 395.430, 547.560 390.466, 546.635 374.281 C 546.270 367.877, 545.740 362.406, 545.458 362.125 C 544.724 361.391, 532.352 373.749, 529.064 378.500 C 527.542 380.700, 525.835 383.850, 525.272 385.500 L 524.247 388.500 523.596 385.500 C 523.238 383.850, 522.099 379.690, 521.065 376.255 C 519.538 371.185, 519.390 369.338, 520.279 366.442 C 521.564 362.257, 520.248 354.529, 516.487 344.168 C 514.038 337.420, 514.057 336, 516.599 336 C 519.133 336, 525.714 332.180, 527.844 329.471 C 528.962 328.050, 530.616 324.662, 531.519 321.943 L 533.161 316.998 537.697 320.715 L 542.232 324.431 544.116 322.105 C 545.780 320.051, 545.996 319.996, 545.968 321.639 C 545.921 324.405, 544.288 326.048, 535.759 331.914 C 531.502 334.841, 526.440 338.985, 524.509 341.121 C 521.384 344.580, 521 345.614, 521 350.560 C 521 357.562, 522.831 365, 524.554 365 C 531.718 365, 542.929 353.952, 543.033 346.790 L 543.067 344.500 545.031 346.858 C 546.180 348.237, 547.619 348.976, 548.498 348.639 C 549.526 348.245, 550 348.695, 550 350.065 C 550 353.940, 557.412 366, 559.794 366 C 561.362 366, 568.070 358.077, 569.597 354.422 C 570.369 352.575, 571.001 349.812, 571.003 348.282 C 571.006 345.968, 571.468 346.474, 573.753 351.294 L 576.500 357.088 581.119 354.149 C 583.659 352.533, 587.034 349.510, 588.619 347.431 C 591.489 343.666, 591.500 343.596, 591.500 329.076 C 591.500 316.314, 591.729 314.251, 593.340 312.500 C 595.372 310.291, 605 290.926, 605 289.048 C 605 288.386, 604.229 288.099, 603.250 288.395 C 580.100 295.407, 577.453 296.722, 574.910 302.470 C 573.853 304.859, 572.702 309.556, 572.352 312.907 L 571.715 319 576.792 319 C 579.585 319, 583.129 318.521, 584.667 317.936 C 586.924 317.078, 586.251 318.102, 581.183 323.237 C 574.125 330.388, 571.016 334.668, 571.007 337.250 C 570.992 341.137, 569.385 338.571, 567.435 331.548 C 565.698 325.290, 565.574 323.744, 566.649 321.805 C 569.454 316.748, 574.439 296, 572.849 296 C 571.333 296, 560.822 301.570, 555.250 305.326 L 550 308.865 550 305.967 C 550 302.668, 539.025 280.428, 537.500 280.636 C 536.291 280.801, 530.308 296.011, 529.400 301.228 C 528.811 304.612, 528.083 305.323, 521.500 308.935 C 517.512 311.124, 513.125 314.251, 511.751 315.884 L 509.252 318.854 508.626 314.287 C 508.282 311.776, 508 308.010, 508 305.919 C 508 303.829, 507.630 301.889, 507.178 301.610 C 506.393 301.125, 493.850 312.979, 492.054 315.903 C 491.371 317.015, 490.271 316.506, 486.760 313.451 C 482.639 309.866, 482.417 309.426, 483.589 307.166 C 484.282 305.830, 485.601 301.960, 486.519 298.566 L 488.190 292.395 494.046 298.448 C 500.667 305.290, 500.581 305.307, 505.115 296.159 C 509.272 287.771, 508.920 284.848, 502.153 271.553 L 496.096 259.655 499.034 256.309 C 500.649 254.469, 502.235 251.734, 502.557 250.232 C 503.958 243.699, 504.041 243.667, 509.657 247.452 C 515.406 251.327, 515.616 251.249, 518.342 244.230 C 520.642 238.307, 520.462 231.333, 517.887 226.527 C 515.822 222.675, 504.291 207, 503.522 207 C 503.309 207, 502.903 207.787, 502.621 208.750 M 334.748 220.240 C 337.586 238.211, 340.334 242.222, 351.759 245.071 L 357.019 246.383 356.379 249.941 C 356.027 251.899, 355.389 253.950, 354.962 254.500 C 354.535 255.050, 353.705 258.107, 353.118 261.294 C 352.240 266.065, 352.333 267.791, 353.642 271.063 C 355.681 276.159, 365.982 285.506, 367.581 283.712 C 369.616 281.431, 374 270.253, 374 267.347 C 374 264.313, 369.067 253.706, 364.073 246 C 362.470 243.525, 361.119 240.150, 361.073 238.500 C 360.918 232.974, 358.923 227.990, 355.495 224.561 C 351.926 220.993, 336.409 211, 334.436 211 C 333.596 211, 333.680 213.471, 334.748 220.240 M 323.230 223.206 C 316.878 231.447, 312 240.111, 312 243.154 C 312 246.975, 315.546 255.882, 318.500 259.484 L 320.948 262.468 325.608 257.984 C 329.692 254.055, 330.188 253.809, 329.621 256 C 329.264 257.375, 328.730 260.300, 328.433 262.500 C 327.782 267.329, 330.153 271.508, 337.140 277.844 L 341.779 282.051 344.381 278.959 C 345.812 277.258, 347.718 273.339, 348.616 270.249 C 350.120 265.075, 350.122 264.232, 348.640 259.566 C 346.916 254.140, 338.165 238, 336.947 238 C 336.544 238, 335.559 239.641, 334.759 241.647 L 333.304 245.294 332.766 239.397 C 332.178 232.966, 329.214 219.977, 328.043 218.706 C 327.641 218.269, 325.475 220.294, 323.230 223.206 M 551.302 224.851 C 542.199 232.461, 536.208 239.387, 535.484 243.136 C 534.876 246.289, 534.292 246.709, 526.167 249.846 C 515.852 253.828, 510.737 257.096, 509.041 260.786 C 508.355 262.279, 507.551 266.988, 507.254 271.250 L 506.714 279 509.676 279 C 511.304 279, 514.919 278.322, 517.707 277.494 C 524.464 275.488, 528.998 270.367, 532.654 260.614 C 534.219 256.438, 535.765 253.017, 536.090 253.011 C 536.414 253.005, 537.283 254.828, 538.021 257.063 C 539.223 260.706, 539.627 261.064, 541.931 260.522 C 543.344 260.190, 546.377 258.620, 548.672 257.035 C 551.549 255.046, 552.991 254.534, 553.318 255.386 C 554.632 258.811, 568.872 260.104, 574.720 257.328 C 578.531 255.520, 594.839 240.548, 593.972 239.654 C 593.681 239.355, 588.492 238.591, 582.440 237.958 C 569.106 236.562, 564.556 237.464, 560.260 242.356 L 557.338 245.685 557.802 232.842 C 558.057 225.779, 558.004 220, 557.685 220 C 557.365 220, 554.493 222.183, 551.302 224.851 M 407.654 234.250 C 405.984 255.707, 406.554 257.170, 419.252 264.018 L 425.004 267.119 426.084 264.310 C 428.228 258.735, 428.968 251.048, 427.706 247.466 C 426.567 244.230, 410.745 226, 409.076 226 C 408.647 226, 408.007 229.713, 407.654 234.250 M 287 232.083 C 287 234.994, 291.371 249.899, 293.085 252.835 L 295.033 256.170 290.404 261.318 C 284.445 267.945, 280.285 274.016, 279.467 277.277 C 278.703 280.319, 281.110 289.127, 283.972 293.763 C 285.808 296.736, 286.186 296.914, 288.243 295.763 C 291.956 293.685, 297.067 288.698, 298.720 285.539 C 299.573 283.910, 300.547 280.451, 300.885 277.852 L 301.500 273.126 305.607 276.965 L 309.714 280.805 305.871 288.653 C 303.757 292.969, 301.497 298.567, 300.849 301.093 C 299.795 305.196, 299.900 306.155, 301.832 310.093 C 303.021 312.517, 305.744 316.432, 307.883 318.792 L 311.772 323.085 315.423 318.819 C 317.513 316.377, 319.747 312.237, 320.649 309.136 C 322.177 303.878, 322.149 303.492, 319.697 296.109 C 318.307 291.924, 316.879 287.766, 316.524 286.869 C 315.994 285.532, 316.587 285.228, 319.812 285.183 C 322.864 285.141, 331.371 282.238, 333.850 280.393 C 334.043 280.250, 332.693 278.255, 330.850 275.961 C 324.881 268.527, 319.076 266.925, 305.250 268.894 L 300 269.641 299.986 266.071 C 299.979 264.107, 299.683 261.417, 299.329 260.094 C 298.929 258.599, 299.064 257.921, 299.684 258.305 C 300.234 258.645, 303.230 259.322, 306.342 259.810 L 312 260.697 312 256.215 C 312 250.273, 310.202 244.538, 307.561 242.057 C 304.873 239.533, 289.991 231, 288.274 231 C 287.573 231, 287 231.488, 287 232.083 M 212.455 259.250 C 211.516 263.238, 210.526 269.926, 210.254 274.114 L 209.759 281.727 213.546 285.919 C 217.037 289.783, 225.616 295.736, 226.448 294.871 C 226.645 294.667, 227.488 292.925, 228.321 291 C 229.626 287.987, 229.848 287.828, 229.918 289.860 C 229.997 292.148, 234.568 301.490, 237.545 305.448 C 238.962 307.332, 239.141 307.268, 243.005 303.495 L 247 299.594 247 308.347 C 247 318.044, 248.124 321.263, 252.683 324.618 C 256.068 327.108, 263.505 331, 264.880 331 C 265.408 331, 266.603 328.701, 267.536 325.891 C 269.707 319.355, 269.085 311.992, 265.998 307.686 C 263.714 304.500, 263.714 304.501, 267.607 308.132 C 269.748 310.129, 272.570 312.313, 273.877 312.985 C 276.594 314.381, 276.954 314.058, 280.028 307.458 C 283.214 300.614, 283.497 295.912, 281.053 290.385 C 278.244 284.032, 270.115 271, 268.961 271 C 267.962 271, 263.528 284.844, 262.130 292.329 C 261.196 297.331, 261.543 300.422, 263.327 303 C 263.898 303.825, 261.368 301.575, 257.705 298 C 251.711 292.150, 251.042 291.100, 251.016 287.500 C 250.985 283.418, 248.034 269.832, 246.041 264.601 L 244.937 261.703 240.091 268.601 C 237.426 272.396, 234.291 277.293, 233.123 279.485 L 231 283.470 231 278.970 C 231 276.494, 230.213 273.014, 229.250 271.235 C 226.570 266.283, 216.010 252, 215.029 252 C 214.551 252, 213.393 255.262, 212.455 259.250 M 404.598 258.077 C 404.339 258.860, 402.947 262.862, 401.505 266.971 C 400.063 271.080, 398.623 277.228, 398.305 280.633 C 397.609 288.087, 399.377 291.617, 407 298 L 411.901 302.103 414.895 296.861 C 420.477 287.087, 420.091 282.654, 412.454 268.822 C 406.628 258.270, 405.187 256.300, 404.598 258.077 M 537.500 264.516 C 535.300 265.998, 532.488 268.141, 531.251 269.278 C 529.101 271.256, 529.079 271.430, 530.751 273.279 C 534.088 276.969, 540.007 279.256, 544.926 278.755 C 549.536 278.286, 565 272.326, 565 271.019 C 565 269.803, 549.187 262.834, 545.254 262.317 C 542.309 261.929, 540.637 262.404, 537.500 264.516 M 375.722 266.642 C 374.619 268.428, 371.584 286.700, 371.640 291.216 C 371.673 293.810, 372.329 296.732, 373.100 297.708 C 373.870 298.684, 372.417 297.687, 369.870 295.491 C 365.626 291.833, 351.822 283, 350.347 283 C 349.436 283, 350.571 292.361, 352.502 300.775 C 353.516 305.194, 355.155 309.219, 356.675 311.025 L 359.178 314 355.839 314.012 C 354.003 314.018, 350.167 314.645, 347.316 315.404 L 342.132 316.784 343.066 314.327 C 343.580 312.976, 344 306.233, 344 299.342 L 344 286.815 336.250 293.269 C 325.643 302.103, 322 306.989, 322 312.384 C 322 314.709, 322.938 319.389, 324.084 322.784 L 326.169 328.956 329.707 327.478 C 334.186 325.607, 334.275 325.617, 333.064 327.880 C 330.816 332.081, 327 345.511, 327 349.223 C 327 351.670, 326.183 354.339, 324.869 356.184 C 323.093 358.679, 322.825 360.133, 323.260 364.926 C 323.546 368.088, 324.557 372.211, 325.505 374.088 C 328.349 379.717, 325.519 375.966, 322.044 369.500 C 320.271 366.200, 318.186 362.790, 317.410 361.921 C 315.521 359.806, 315.623 358.660, 318.141 353.724 C 320.085 349.913, 320.228 348.470, 319.702 338.014 C 319.383 331.681, 318.731 325.443, 318.252 324.151 C 317.422 321.909, 317.054 322.154, 310.191 329.502 L 303 337.203 303 330.678 C 303 324.738, 302.676 323.721, 299.384 319.327 C 294.547 312.870, 285.859 304, 284.372 304 C 282.364 304, 280.409 322.366, 281.761 328.525 C 282.465 331.732, 282.122 334.096, 279.983 340.762 C 277.387 348.851, 277.305 348.966, 276.074 346.262 C 275.383 344.743, 273.420 341.344, 271.714 338.709 L 268.610 333.919 265.816 340.960 C 264.279 344.833, 262.292 350.907, 261.400 354.457 C 259.826 360.725, 259.841 361.040, 261.916 365.326 C 264.096 369.830, 271.536 378, 273.457 378 C 274.636 378, 276.450 375.400, 279.213 369.750 C 280.221 367.688, 281.219 366, 281.429 366 C 281.639 366, 283.716 367.592, 286.044 369.537 C 288.373 371.482, 290.730 372.923, 291.282 372.739 C 293.209 372.097, 297.315 362.774, 297.774 358.002 C 298.131 354.281, 297.657 351.930, 295.673 347.597 C 294.264 344.519, 293.290 342, 293.508 342 C 293.727 342, 295.052 342.522, 296.453 343.161 C 298.578 344.129, 299 344.999, 299.001 348.411 C 299.002 353.803, 304.389 365.448, 306.507 364.636 C 309.167 363.615, 308.174 367.604, 304.750 371.690 C 298.370 379.304, 298.861 379.061, 295.537 376.264 L 292.572 373.769 291.846 376.483 C 291.447 377.976, 290.848 382.865, 290.515 387.349 C 290.183 391.832, 289.650 397.075, 289.332 399 C 288.754 402.495, 288.750 402.491, 286.521 396 C 285.294 392.425, 283.324 387.387, 282.145 384.805 C 280.965 382.223, 280 379.635, 280 379.055 C 280 378.475, 279.630 378, 279.179 378 C 278.175 378, 268.414 398.402, 267.557 402.290 C 266.748 405.958, 269.694 412.549, 274.540 417.913 L 278.306 422.081 281.153 419.353 L 284 416.626 284.004 421.563 C 284.008 427.633, 286.037 431.170, 292.728 436.772 L 297.746 440.974 300.373 437.183 C 301.818 435.098, 303.056 432.742, 303.125 431.946 C 303.193 431.151, 303.600 432.909, 304.028 435.853 C 304.916 441.959, 308.271 446.136, 316.227 451.040 L 320.955 453.954 322.152 451.727 C 322.810 450.502, 323.915 447.700, 324.608 445.500 L 325.866 441.500 325.933 446.185 C 325.970 448.762, 326.397 451.912, 326.882 453.185 C 328.121 456.433, 332.758 460.836, 337.477 463.243 L 341.480 465.285 337.314 466.515 C 327.540 469.401, 324.161 473.409, 318.966 488.282 L 316.095 496.500 310.797 497.024 C 305.443 497.553, 296.286 501.236, 291.045 504.968 C 289.476 506.085, 287.985 507, 287.733 507 C 287.481 507, 286.956 503.072, 286.567 498.271 C 286.177 493.471, 285.602 488.258, 285.287 486.687 L 284.716 483.832 277.358 491.141 L 270 498.450 270 493.193 C 270 490.301, 269.362 486.409, 268.583 484.543 C 266.698 480.034, 251.971 464.629, 250.730 465.870 C 250.214 466.386, 249.597 473.264, 249.360 481.154 C 249.069 490.855, 248.337 497.604, 247.099 502 C 245.304 508.380, 243.681 516.903, 242.496 526.180 L 241.898 530.861 238.879 529.808 C 233.773 528.028, 228.554 529.420, 221.763 534.375 C 215.313 539.080, 210 543.578, 210 544.333 C 210 545.228, 219.497 547.101, 226.943 547.675 L 234.692 548.273 238.846 544.520 C 242.230 541.463, 243.001 541.113, 243.004 542.634 C 243.012 546.991, 246.973 551.118, 254.469 554.581 C 258.539 556.461, 262.051 558, 262.274 558 C 262.497 558, 263.267 556.221, 263.985 554.047 C 265.663 548.961, 264.765 539.898, 262.178 535.812 L 260.221 532.721 262.601 527.611 C 265.690 520.977, 265.670 514.981, 262.536 508.250 C 261.192 505.363, 260.275 503, 260.499 503 C 260.723 503, 261.999 503.498, 263.336 504.107 C 265.286 504.996, 265.855 506.141, 266.217 509.904 C 266.763 515.592, 271.346 526, 273.304 526 C 275.286 526, 283.773 518.341, 285.507 514.986 L 286.947 512.201 294.724 514.600 C 299.001 515.920, 303.288 517, 304.250 517 C 307.287 517, 306.163 518.715, 301.250 521.577 C 292.612 526.609, 286.330 531.789, 285.015 534.964 C 283.720 538.091, 284.048 549.420, 285.546 553.280 C 286.375 555.415, 288.193 555.031, 296 551.075 C 302.645 547.707, 304.835 544.334, 307.061 534.038 L 308.690 526.500 308.213 538.618 L 307.736 550.736 311.644 554.618 C 313.793 556.753, 317.876 559.751, 320.716 561.280 L 325.879 564.059 327.638 558.280 C 328.605 555.101, 329.463 552.382, 329.545 552.237 C 329.626 552.092, 332.329 553.140, 335.552 554.566 C 340.930 556.944, 341.512 557.021, 342.623 555.501 C 344.535 552.885, 345.264 544.709, 344.013 539.886 C 343.089 536.320, 341.104 533.771, 333.391 526.250 C 328.174 521.163, 323.476 517, 322.953 517 C 322.426 517, 322 520.679, 322 525.219 L 322 533.437 316.117 527.616 C 312.125 523.665, 310.062 522.230, 309.696 523.148 C 309.364 523.982, 309.134 523.734, 309.094 522.500 C 309.006 519.735, 309.979 518.597, 313.725 517.082 C 316.976 515.768, 323.814 509.084, 325.905 505.178 C 327.078 502.986, 326.535 502.385, 320.500 499.184 C 318.668 498.212, 318.836 497.988, 322.500 496.515 C 324.700 495.630, 329.764 493.327, 333.753 491.397 C 342.797 487.021, 344.195 484.688, 344.770 473 C 345 468.325, 345.821 462.572, 346.594 460.215 C 348.489 454.440, 348.331 449.311, 346.109 444.500 C 343.892 439.697, 330.230 423.740, 328.991 424.506 C 328.510 424.803, 327.798 428.282, 327.408 432.237 L 326.699 439.428 325.524 435.464 C 323.886 429.939, 322.827 428.172, 316.012 419.596 C 310.658 412.858, 310.130 411.789, 311.013 409.466 C 311.556 408.038, 312 403.974, 312 400.435 C 312 396.896, 312.243 394, 312.540 394 C 312.838 394, 314.452 395.012, 316.127 396.250 L 319.173 398.500 320.997 396.250 C 324.339 392.127, 325 393.447, 325.004 404.250 C 325.008 416.568, 326.145 418.991, 334.111 423.656 C 343.232 428.996, 343.466 428.963, 345.413 422.023 C 346.343 418.711, 347.418 416.001, 347.802 416.002 C 348.186 416.003, 348.556 418.408, 348.625 421.347 C 348.850 430.990, 351.109 444.172, 352.449 443.658 C 353.192 443.373, 354.353 445.079, 355.406 448.008 C 359.552 459.539, 365.256 464.984, 373.218 465.011 L 376.500 465.022 373 467.680 C 371.075 469.142, 367.130 472.786, 364.233 475.778 L 358.967 481.217 353.458 476.967 C 350.428 474.630, 347.706 472.961, 347.409 473.258 C 347.112 473.555, 347.365 479.131, 347.972 485.649 C 349.218 499.043, 350.848 503.373, 355.912 506.746 C 359.307 509.008, 368.960 512.373, 369.759 511.574 C 369.990 511.343, 370.397 507.632, 370.664 503.327 C 371.066 496.836, 370.817 494.903, 369.205 492 L 367.261 488.500 375.253 487.354 C 385.184 485.930, 387.451 484.306, 392.206 475.214 L 395.913 468.126 392.706 467.153 C 390.943 466.618, 388.262 465.906, 386.750 465.571 C 384.308 465.030, 384 464.512, 384 460.949 C 384 458.742, 383.325 455.320, 382.500 453.346 C 381.675 451.371, 381 449.586, 381 449.378 C 381 449.170, 382.765 449, 384.923 449 C 389.746 449, 393.882 445.786, 398.650 438.333 C 400.493 435.453, 402 432.871, 402 432.595 C 402 431.958, 396.063 429.238, 393.756 428.818 C 392.124 428.521, 392.117 428.306, 393.640 425.500 C 394.614 423.707, 395.394 419.484, 395.581 415 C 395.753 410.875, 395.918 407.365, 395.947 407.199 C 395.976 407.034, 397.540 408.073, 399.423 409.509 L 402.846 412.120 405.622 407.382 C 409.685 400.449, 410.027 392.923, 406.617 385.474 C 403.275 378.174, 397.104 368, 396.018 368 C 395.557 368, 394.061 371.330, 392.693 375.400 C 390.395 382.233, 382.995 393.661, 381.703 392.370 C 381.416 392.082, 382.092 389.787, 383.205 387.268 C 386.707 379.353, 386.017 374.715, 379.463 362.101 C 376.291 355.995, 373.378 351, 372.991 351 C 372.603 351, 370.837 354.749, 369.065 359.331 C 367.294 363.913, 364.867 368.878, 363.672 370.364 C 361.619 372.916, 361.377 372.978, 359.258 371.481 C 354.294 367.976, 354.580 366.543, 361.040 362.556 C 364.466 360.442, 367.743 357.508, 368.717 355.683 C 370.516 352.313, 371.021 342.751, 369.668 337.653 C 369.011 335.174, 368.562 334.886, 366.206 335.433 C 359.840 336.910, 352.545 341.533, 350.286 345.523 C 349.047 347.710, 348.025 348.805, 348.016 347.955 C 348.007 347.106, 345.976 342.381, 343.502 337.455 C 341.029 332.530, 339.004 328.405, 339.002 328.289 C 339.001 328.173, 342.250 329.636, 346.222 331.539 C 350.194 333.443, 354.709 335, 356.255 335 C 359.569 335, 367.117 331.234, 371.868 327.211 L 375.237 324.358 370.868 320.599 L 366.500 316.840 370.500 317.542 C 372.700 317.928, 374.950 318.302, 375.500 318.372 C 377.316 318.604, 377.252 306.394, 375.419 302.791 L 373.746 299.500 376.123 301.608 C 378.976 304.137, 386.204 309, 387.111 309 C 387.466 309, 388.321 307.640, 389.009 305.979 C 391.266 300.528, 391.854 301.834, 391.676 311.906 C 391.467 323.698, 392.565 325.854, 401.036 330.284 C 407.622 333.729, 408.720 332.974, 409.617 324.387 C 410.433 316.582, 409.052 313.661, 400.141 304.341 C 394.141 298.065, 393.216 296.585, 392.644 292.341 C 392.160 288.751, 390.570 285.433, 386.491 279.500 C 379.388 269.168, 376.380 265.576, 375.722 266.642 M 176.559 272.696 C 176.175 273.688, 175.633 279.900, 175.354 286.500 C 174.894 297.367, 175.038 298.803, 176.884 301.710 C 179.081 305.171, 184.313 309.004, 190.147 311.426 L 193.794 312.941 195.534 306.512 C 198.456 295.717, 196.853 291.055, 186.364 279.844 C 184.128 277.455, 181.165 274.463, 179.778 273.196 C 177.431 271.051, 177.207 271.017, 176.559 272.696 M 197 284.774 C 197 288.738, 200.052 304.090, 201.619 308.006 C 204.127 314.273, 207.952 316.500, 221.250 319.432 L 224 320.038 224 313.084 C 224 305.353, 222.931 301.651, 219.683 298.139 C 217.305 295.566, 209.252 289.921, 201.750 285.567 C 197.298 282.983, 197 282.933, 197 284.774 M 170.667 303.035 C 170.294 304.391, 169.695 310.373, 169.337 316.329 C 168.756 325.978, 168.555 326.847, 167.488 324.310 C 166.830 322.744, 164.681 320.049, 162.714 318.322 C 158.312 314.457, 140.669 305.492, 140.205 306.885 C 139.657 308.529, 144.767 326.623, 147.036 331.070 C 149.560 336.018, 155.335 338.948, 164.137 339.746 L 170 340.278 170 336.062 L 170 331.846 173.116 334.962 C 174.829 336.675, 178.092 339.015, 180.366 340.162 C 182.639 341.308, 184.543 342.303, 184.596 342.373 C 184.649 342.443, 184.408 345.313, 184.059 348.750 C 183.370 355.554, 183.214 355.377, 189.582 355.039 C 192.636 354.877, 192.685 354.954, 194.922 363.424 C 197.581 373.486, 200.217 377.857, 205.063 380.237 C 209.262 382.299, 220.833 384.080, 221.632 382.787 C 221.936 382.295, 221.872 379.206, 221.491 375.921 L 220.798 369.948 224.402 372.075 L 228.007 374.202 229.853 370.079 L 231.699 365.955 231.600 376.362 C 231.513 385.444, 231.755 387.054, 233.500 389.001 C 235.682 391.436, 244.802 396.976, 246.652 396.991 C 248.367 397.005, 250 391.399, 250 385.501 C 250 379.582, 248.227 376.613, 238.664 366.525 C 234.261 361.880, 233 359.854, 233 357.424 C 233 355.705, 231.873 352.179, 230.496 349.589 C 227.541 344.032, 217.980 331, 216.858 331 C 215.423 331, 212.176 345.281, 211.778 353.348 C 211.625 356.448, 211.275 358.873, 211 358.737 C 210.725 358.600, 208.133 357.244, 205.240 355.722 L 199.980 352.956 203.390 349.962 C 206.664 347.088, 217.965 326.631, 216.879 325.545 C 216.186 324.852, 198.617 329.629, 195.024 331.488 C 191.056 333.540, 191 333.509, 191 329.316 C 191 323.746, 187.865 318.356, 179.201 309.028 C 171.758 301.014, 171.310 300.700, 170.667 303.035 M 228.152 312.779 C 225.288 318.708, 222.686 325.159, 222.369 327.115 C 221.676 331.385, 224.308 337.121, 229.696 343.086 L 233.306 347.081 235.927 344.570 L 238.547 342.060 238.178 345.928 C 237.659 351.372, 240.294 356.243, 246.737 361.747 C 251.961 366.210, 252.279 366.338, 253.607 364.523 C 256.623 360.398, 259.190 351.557, 258.746 346.821 C 258.308 342.148, 252.569 330.725, 247.483 324.401 L 245.149 321.500 244.231 323.942 L 243.313 326.385 242.594 323.517 C 241.353 318.574, 234.769 302, 234.047 302 C 233.667 302, 231.015 306.851, 228.152 312.779 M 427.716 324.311 C 426.772 325.751, 426 327.164, 426 327.450 C 426 327.736, 424.599 330.246, 422.887 333.029 C 417.632 341.570, 415.789 347.502, 416.997 351.989 C 418.125 356.177, 425.512 366.656, 427.051 366.250 C 427.572 366.113, 426.424 369.090, 424.499 372.867 C 419.580 382.520, 419.811 385.111, 426.527 395.610 C 429.390 400.085, 430.357 400.949, 431.471 400.024 C 432.459 399.204, 432.304 400.326, 430.928 403.948 C 428.452 410.463, 428.499 411.760, 431.404 417.223 L 433.808 421.744 428.840 422.333 C 424.978 422.790, 422.788 423.829, 419.001 426.999 C 413.321 431.755, 404 441.747, 404 443.081 C 404 445.183, 428.755 444.695, 432.981 442.510 L 435.897 441.002 434.565 444.251 C 433.832 446.038, 433.039 450.313, 432.803 453.750 C 432.407 459.502, 432.537 460.012, 434.436 460.145 C 438.097 460.403, 443.338 459.822, 445.804 458.885 C 447.814 458.120, 449.210 458.686, 454.353 462.347 C 457.734 464.753, 462.525 467.766, 465 469.040 L 469.500 471.359 465.513 472.213 C 458.746 473.663, 455.280 476.798, 450.957 485.377 C 447.749 491.745, 445.268 494.873, 438.011 501.705 C 427.014 512.058, 425.715 515.057, 428.445 523.790 C 429.428 526.930, 430.747 530.499, 431.378 531.721 L 432.525 533.942 437.761 530.951 C 445.286 526.654, 447.849 522.242, 449.245 511.186 L 450.389 502.123 454.944 500.415 C 464.845 496.703, 470.930 493.036, 472.644 489.748 C 473.622 487.873, 474.530 483.251, 474.794 478.815 L 475.249 471.130 481.375 467.404 C 484.744 465.354, 487.658 463.554, 487.851 463.404 C 488.948 462.551, 480.055 454.805, 476.359 453.393 C 472.297 451.842, 471.414 451.837, 464.239 453.329 C 459.983 454.215, 455.404 455.252, 454.064 455.635 L 451.629 456.330 453.678 453.415 C 454.805 451.812, 456.738 448.250, 457.974 445.500 C 459.209 442.750, 461.304 438.104, 462.630 435.176 C 464.771 430.448, 464.842 429.913, 463.270 430.390 C 462.296 430.686, 460.150 431.156, 458.500 431.435 C 453.979 432.199, 442.796 435.973, 440.285 437.581 C 437.026 439.669, 436.637 439.330, 438.757 436.250 C 439.799 434.738, 441.271 431.925, 442.029 430 C 442.786 428.075, 444.665 424.745, 446.203 422.600 C 447.741 420.455, 449.021 417.980, 449.047 417.100 C 449.073 416.220, 449.948 417.688, 450.993 420.363 C 452.038 423.037, 453.098 425.431, 453.349 425.683 C 454.227 426.560, 461.975 421.958, 465.421 418.512 C 467.332 416.601, 469.367 413.342, 469.942 411.269 C 471.191 406.771, 471.366 385, 470.153 385 C 468.733 385, 454.389 397.645, 451.995 401.007 L 449.750 404.160 445.879 394.330 C 443.750 388.924, 442.031 383.375, 442.058 382 C 442.097 380.105, 442.597 380.710, 444.125 384.500 C 445.233 387.250, 446.526 389.895, 446.997 390.377 C 448.936 392.361, 459.924 383.028, 461.939 377.685 C 463.062 374.704, 463.200 355.476, 462.132 350.639 C 461.504 347.797, 461.436 347.843, 452.230 357.365 C 446.120 363.684, 442.753 367.983, 442.355 369.976 C 442.022 371.639, 441.460 373, 441.106 373 C 439.636 373, 436.030 356.424, 436.622 352.390 C 437.348 347.449, 434.502 334.042, 430.829 325.096 L 429.432 321.692 427.716 324.311 M 385.928 327.819 C 379.097 332.168, 377.638 336.026, 378.223 348.181 C 378.484 353.598, 379.001 358.335, 379.373 358.707 C 380.236 359.569, 390.455 349.559, 393.180 345.184 C 395.617 341.270, 395.354 335.889, 392.399 329.204 L 390.500 324.907 385.928 327.819 M 506.609 331.659 C 505.483 335.202, 492.044 345.400, 491.995 342.750 C 491.993 342.613, 490.879 339.800, 489.519 336.500 L 487.047 330.500 487.024 334.800 C 486.996 339.882, 485.226 343.624, 480.193 349.244 C 478.131 351.547, 477.256 353.087, 478.212 352.730 C 482.911 350.978, 496.084 347.751, 496.566 348.233 C 496.869 348.536, 496.414 350.468, 495.554 352.526 C 494.028 356.178, 494.062 356.392, 496.973 361.384 L 499.956 366.500 500.017 362 C 500.065 358.484, 501.245 355.423, 505.413 348 C 508.348 342.775, 510.355 338.350, 509.874 338.167 C 509.393 337.983, 508.968 336.858, 508.930 335.667 C 508.891 334.475, 508.508 332.600, 508.078 331.500 C 507.312 329.542, 507.281 329.546, 506.609 331.659 M 608.871 337.872 C 595.849 343.037, 593.397 344.925, 591.523 351.233 C 589.834 356.923, 589.468 367, 590.951 367 C 593.988 367, 603.008 364.496, 606 362.822 C 610.509 360.300, 611.882 358.317, 616.262 348 C 620.837 337.222, 621.669 333.991, 619.858 334.027 C 619.111 334.042, 614.167 335.772, 608.871 337.872 M 401.622 347.895 C 397.313 361.372, 397.172 364.336, 400.590 369.550 C 403.304 373.688, 411.488 380.434, 412.806 379.620 C 414.578 378.525, 418.363 369.278, 418.765 365.060 C 419.139 361.142, 418.552 359.232, 414.593 351.500 C 412.059 346.550, 408.918 341.165, 407.614 339.534 L 405.243 336.567 401.622 347.895 M 138 339.691 C 138 341.412, 151.568 357.453, 154.967 359.750 C 159.036 362.501, 166.433 362.753, 173.400 360.379 C 177.735 358.902, 178.100 358.535, 177.521 356.226 C 176.631 352.683, 171.611 345.630, 168.551 343.625 C 165.415 341.570, 159.390 340.391, 147.250 339.455 C 141.578 339.018, 138 339.109, 138 339.691 M 118.001 355.750 C 118.001 357.085, 122 367.067, 124.551 372.101 C 125.917 374.795, 126.896 377, 126.728 377 C 126.560 377, 124.658 376.100, 122.500 375 C 119.356 373.397, 116.682 373.011, 109.039 373.058 C 103.792 373.089, 97.700 373.446, 95.500 373.851 L 91.500 374.586 100.038 383.078 C 112.958 395.929, 117.002 397.057, 129.841 391.388 L 135.182 389.030 133.023 385.538 L 130.865 382.046 134.400 383.523 C 136.399 384.358, 141.041 385, 145.079 385 L 152.223 385 151.558 381.250 C 151.192 379.188, 150.644 376.656, 150.340 375.625 C 150.035 374.593, 150.171 373.992, 150.643 374.287 C 151.114 374.583, 154.573 376.890, 158.328 379.413 C 166.371 384.816, 169.964 385.216, 177.500 381.545 C 184.847 377.966, 186.362 376.539, 185.161 374.332 C 184 372.198, 178.590 367.030, 175.027 364.651 C 171.871 362.543, 162.604 362.480, 152.995 364.501 C 145.956 365.982, 145.803 365.969, 141.680 363.588 C 137.790 361.341, 120.985 355, 118.920 355 C 118.414 355, 118 355.337, 118.001 355.750 M 603.629 372.122 C 601.036 373.840, 597.744 376.780, 596.313 378.656 C 593.782 381.975, 593.763 382.110, 595.605 383.593 C 596.647 384.432, 599.906 386.270, 602.847 387.677 C 610.436 391.308, 615.276 390.626, 628.746 384.024 L 639.500 378.755 633 375.808 C 623.711 371.596, 615.589 369, 611.703 369 C 609.613 369, 606.560 370.181, 603.629 372.122 M 334.599 384.772 C 337.403 387.372, 341.500 390.933, 343.704 392.685 C 348.415 396.430, 351 401.337, 351 406.538 L 351 410.274 355.957 405.637 C 358.684 403.087, 361.365 401, 361.915 401 C 363.676 401, 367.966 409.495, 369.128 415.286 C 370.194 420.589, 370.109 421.138, 367.562 425.485 C 366.081 428.012, 363.489 431.652, 361.801 433.573 C 358.375 437.476, 358.358 437.357, 362.500 438.697 C 365.241 439.585, 366.126 439.197, 372.767 434.200 C 379.014 429.500, 380.838 428.646, 385.767 428.115 L 391.500 427.497 386.768 425.673 C 383.776 424.519, 380.522 422.130, 377.916 419.174 L 373.795 414.500 374.178 404.858 L 374.562 395.216 370.696 399.608 C 368.570 402.024, 366.531 403.996, 366.165 403.991 C 364.777 403.973, 358.021 392.256, 357.212 388.465 L 356.367 384.500 355.083 388.319 C 353.661 392.550, 353.407 392.552, 346.826 388.376 C 341.329 384.888, 331.807 380.023, 330.500 380.034 C 329.950 380.039, 331.794 382.171, 334.599 384.772 M 145.442 387.750 C 147.026 391.980, 154.816 404.642, 158.140 408.393 L 161.781 412.500 171.319 412.488 C 176.566 412.481, 181.157 412.177, 181.522 411.812 C 182.790 410.544, 178.929 399.989, 175.961 396.608 C 172.444 392.602, 167.603 390.497, 156 387.926 C 145.313 385.559, 144.616 385.547, 145.442 387.750 M 181 389.736 C 181 391.337, 190.543 402.845, 195.460 407.173 C 201.048 412.093, 204.778 412.751, 214.193 410.482 C 218.212 409.514, 221.657 408.589, 221.849 408.428 C 222.041 408.267, 220.940 405.824, 219.403 402.999 C 215.967 396.686, 211.234 392.400, 206.263 391.099 C 200.492 389.589, 181 388.537, 181 389.736 M 525.685 396.629 C 525.396 397.658, 524.884 399.460, 524.549 400.634 C 524.060 402.343, 524.466 402.900, 526.587 403.433 C 528.044 403.798, 529.416 403.917, 529.636 403.698 C 529.856 403.478, 529.175 401.376, 528.124 399.028 C 526.633 395.697, 526.096 395.169, 525.685 396.629 M 128 397.456 C 121.693 399.825, 109 405.872, 109 406.508 C 109 407.707, 126.091 415.125, 131.436 416.246 C 138.267 417.679, 142.691 415.913, 149.442 409.059 L 154.109 404.321 150.554 401.609 C 143.275 396.057, 135.523 394.630, 128 397.456 M 604.973 398.647 C 601.838 400.734, 593 409.199, 593 410.114 C 593 410.493, 594.462 411.740, 596.250 412.885 L 599.500 414.966 594.066 414.983 C 588.882 414.999, 588.422 415.221, 584.066 419.809 C 581.555 422.454, 578.697 426.037, 577.716 427.771 L 575.932 430.924 580.143 433.073 C 582.460 434.255, 586.886 435.451, 589.980 435.732 C 596.795 436.350, 600.027 434.901, 612.068 425.828 C 620.269 419.648, 620.325 419.576, 617.732 418.516 C 615.173 417.470, 615.243 417.395, 620.806 415.218 C 623.938 413.992, 629.165 411.468, 632.422 409.609 L 638.344 406.229 635.422 404.725 C 629.583 401.719, 614.751 397, 611.143 397 C 609.109 397, 606.332 397.741, 604.973 398.647 M 302.341 416.036 C 303.528 418.740, 304.788 420.963, 305.141 420.976 C 305.493 420.989, 305.961 419.463, 306.180 417.585 C 306.533 414.559, 306.214 413.995, 303.380 412.644 L 300.181 411.119 302.341 416.036 M 174.500 414.039 C 166.791 414.884, 152.910 417.837, 151.786 418.871 C 150.358 420.185, 172.165 435, 175.527 435 C 178.645 435, 176.776 437.211, 171.750 439.467 C 161.759 443.952, 161.736 444.144, 170.717 448.249 C 175.076 450.242, 179.875 452.182, 181.381 452.560 C 182.887 452.938, 183.918 453.754, 183.673 454.373 C 183.427 454.993, 181.593 459.431, 179.596 464.234 C 174.520 476.447, 174.069 480.746, 177.290 486.193 C 178.690 488.562, 181.609 492.216, 183.775 494.314 L 187.715 498.128 190.295 495.061 L 192.875 491.995 192.332 495.343 C 191.422 500.949, 195.642 507.033, 204.339 512.656 C 208.008 515.027, 208.238 515.057, 209.514 513.319 C 211.386 510.770, 214 502.339, 214 498.852 C 214 494.974, 209.961 487.192, 203.206 478.060 C 197.918 470.908, 197.654 470.703, 196.770 473.051 C 195.902 475.357, 195.716 475.179, 193.582 470 C 192.335 466.975, 190.112 462.137, 188.641 459.250 C 187.170 456.363, 186.089 454, 186.240 454 C 186.390 454, 188.026 454.434, 189.875 454.964 C 192.792 455.801, 193.476 455.635, 195.041 453.714 L 196.845 451.500 197.974 454.500 C 199.528 458.628, 205.247 468, 206.211 468 C 206.645 468, 208.688 466.312, 210.750 464.249 L 214.500 460.499 214.373 468.999 C 214.239 478.039, 214.999 481.287, 218.003 484.500 C 219.821 486.444, 219.822 486.684, 218.061 493.032 C 215.094 503.722, 214.617 509.359, 216.391 512.790 C 218.221 516.328, 228.966 526.175, 230.463 525.686 C 232.021 525.178, 236.836 512.962, 236.924 509.298 C 236.969 507.376, 235.404 503.064, 233.009 498.517 C 229.894 492.603, 229.438 491.164, 230.931 491.963 C 232.629 492.872, 233.034 492.413, 234.537 487.889 C 236.795 481.091, 236.137 473.039, 232.971 468.719 C 231.207 466.311, 232.068 466.823, 236.387 470.750 C 239.563 473.637, 242.481 476, 242.872 476 C 244.182 476, 249.055 464.879, 249.592 460.665 C 250.025 457.269, 249.484 455.207, 246.660 449.500 C 244.755 445.650, 241.650 440.097, 239.760 437.160 L 236.324 431.819 234.242 436.660 C 231.809 442.316, 229 453.819, 229 458.128 C 229 459.780, 229.502 462.114, 230.115 463.316 C 230.728 464.517, 228.342 462.677, 224.814 459.226 L 218.399 452.953 217.183 443.326 C 216.514 438.032, 216.087 433.655, 216.233 433.600 C 219.178 432.497, 228.452 427.144, 228.698 426.406 C 229.257 424.729, 222.042 417.062, 217.932 414.966 C 213.179 412.541, 206.534 412.439, 194.703 414.610 C 186.611 416.096, 185.763 416.096, 184.124 414.613 C 183.144 413.726, 182.153 413.061, 181.921 413.136 C 181.690 413.210, 178.350 413.617, 174.500 414.039 M 258.439 421.894 C 248.936 431.736, 246.750 435.584, 247.234 441.626 C 247.781 448.462, 252.454 458.133, 254.799 457.284 C 262.008 454.673, 268.013 445.630, 267.980 437.434 C 267.960 432.428, 265.613 417.279, 264.718 416.385 C 264.449 416.116, 261.624 418.595, 258.439 421.894 M 660.633 426.096 C 650.823 427.131, 642.855 429.398, 640.714 431.763 C 638.544 434.162, 635.324 441.601, 634.486 446.150 C 633.846 449.632, 633.961 449.833, 636.974 450.494 L 640.133 451.188 636.817 453.632 C 632.740 456.637, 626.825 463.959, 627.292 465.423 C 627.481 466.015, 629.291 467.400, 631.315 468.500 C 633.339 469.600, 634.996 470.766, 634.997 471.091 C 634.999 471.416, 632.638 472.229, 629.750 472.899 C 618.009 475.620, 614.067 479.543, 611.985 490.580 C 610.936 496.137, 610.958 497.369, 612.116 498.155 C 614.250 499.603, 623.889 498.190, 628.125 495.810 C 631.840 493.722, 638.355 485.106, 642.786 476.420 C 644.248 473.553, 645.838 472.099, 648.603 471.099 C 653.192 469.439, 668.178 460.696, 669.816 458.722 C 670.789 457.550, 669.509 456.867, 662.243 454.684 C 657.434 453.239, 652.150 451.739, 650.500 451.350 L 647.500 450.642 650.564 449.841 C 652.249 449.400, 655.330 447.343, 657.411 445.270 C 661.008 441.686, 672 426.864, 672 425.598 C 672 424.924, 671.557 424.944, 660.633 426.096 M 195.221 427.179 C 193.735 428.665, 197.363 435.389, 200.398 436.772 C 202.456 437.709, 202.897 437.522, 203.923 435.270 C 204.568 433.854, 204.737 432.402, 204.298 432.043 C 199.136 427.818, 196.171 426.229, 195.221 427.179 M 118.581 439.750 C 117.631 444.012, 116.602 450.695, 116.294 454.600 C 115.734 461.700, 115.734 461.700, 119.464 465.828 C 121.515 468.099, 124.728 470.905, 126.603 472.064 C 128.478 473.223, 129.768 474.566, 129.469 475.049 C 128.799 476.134, 133.201 489.436, 136.627 496.678 C 139.839 503.467, 143.084 505.282, 153.251 505.973 L 161.001 506.500 161.001 501.929 C 161 498.927, 160.056 495.496, 158.250 491.929 C 155.797 487.087, 154.739 486.113, 148.458 482.921 C 144.585 480.953, 140.535 479.041, 139.458 478.673 C 134.814 477.088, 130.588 475.146, 131.627 475.076 C 133.504 474.949, 137.231 464.911, 137.231 459.983 C 137.231 457.312, 136.370 453.686, 135.185 451.364 C 132.843 446.771, 122.014 432, 120.990 432 C 120.615 432, 119.531 435.488, 118.581 439.750 M 148.068 439.596 C 145.993 446.888, 143.771 461.953, 144.401 464.463 C 145.612 469.287, 158.501 481.044, 160.932 479.542 C 162.604 478.509, 165.366 468.576, 165.434 463.356 C 165.494 458.678, 164.977 457.452, 159.746 449.856 C 156.581 445.260, 152.908 440.193, 151.585 438.596 L 149.179 435.692 148.068 439.596 M 273.674 448.768 C 271.184 453.590, 268.624 459.607, 267.987 462.139 C 266.965 466.197, 267.067 467.201, 268.846 470.621 C 269.956 472.754, 272.665 476.651, 274.866 479.279 L 278.868 484.058 281.646 480.577 L 284.424 477.096 289.462 479.929 C 300.940 486.384, 305.792 486.184, 315.035 478.878 L 320.197 474.798 316.967 471.466 C 312.024 466.366, 304.923 463.686, 298.634 464.546 C 295.810 464.933, 292.556 465.605, 291.403 466.041 C 289.521 466.753, 289.187 466.321, 288.153 461.840 C 286.787 455.924, 280.101 440, 278.983 440 C 278.554 440, 276.165 443.945, 273.674 448.768 M 599.022 456.696 C 595.798 458.368, 587.113 469.141, 587.034 471.565 C 586.979 473.266, 594.017 476.146, 599.650 476.728 C 603.656 477.141, 605.808 476.786, 609.164 475.159 C 613.448 473.081, 628.199 461.675, 628.821 459.960 C 628.998 459.472, 627.873 458.822, 626.321 458.514 C 624.769 458.206, 621.475 457.526, 619 457.003 C 609.049 454.901, 602.672 454.803, 599.022 456.696 M 534.500 459.657 C 529.820 462.056, 521.513 467.352, 517.913 470.231 C 514.438 473.010, 513.552 476.834, 513.855 487.750 C 514.022 493.794, 514.598 494.038, 522.414 491.375 C 529.507 488.958, 533.335 484.540, 536.324 475.323 C 537.719 471.020, 539.151 465.925, 539.505 464 C 539.859 462.075, 540.371 459.712, 540.642 458.750 C 541.285 456.466, 540.496 456.583, 534.500 459.657 M 93.918 473.250 C 98.082 485.560, 101.483 491.679, 105.255 493.646 C 107.150 494.634, 111.780 495.532, 116.384 495.805 L 124.268 496.272 123.578 491.386 C 122.589 484.391, 118.519 476.481, 114.702 474.139 C 110.622 471.635, 94.590 465, 92.620 465 C 91.401 465, 91.639 466.513, 93.918 473.250 M 418.599 470.483 C 400.600 481.321, 398.017 485.656, 401.072 499.899 C 402.088 504.639, 402.268 504.849, 404.572 503.973 C 405.907 503.465, 407 503.311, 407 503.631 C 407 503.951, 406.271 508.196, 405.381 513.064 C 403.254 524.690, 403.925 527.998, 409.289 532.333 C 413.599 535.816, 417.946 538.422, 418.458 537.831 C 420.003 536.051, 422.004 530.380, 422.489 526.406 C 423.012 522.130, 422.702 520.858, 420.075 516.500 C 418.417 513.750, 415.447 509.387, 413.475 506.804 L 409.889 502.109 412.825 500.590 C 417.082 498.389, 420.485 493.910, 421.993 488.526 L 423.310 483.819 427.571 484.458 C 433.551 485.355, 437.440 483.437, 445.990 475.370 C 452.814 468.934, 453.102 468.490, 450.871 467.864 C 447.022 466.785, 430.034 466.911, 427.934 468.035 C 426.601 468.749, 426 468.749, 426 468.035 C 426 466.371, 424.730 466.791, 418.599 470.483 M 649 482.928 C 640.230 483.939, 637.813 485.902, 632.929 495.986 C 629.469 503.129, 629.551 503.301, 637.215 504.950 C 642.241 506.031, 646.937 505.515, 651 503.434 C 653.498 502.155, 660.642 495.043, 666.998 487.506 L 670.367 483.512 666.434 482.814 C 661.870 482.003, 656.730 482.037, 649 482.928 M 168.485 486.250 C 167.137 493.476, 166.493 504.792, 167.188 509.016 C 167.771 512.554, 168.830 514.313, 172.212 517.357 C 176.387 521.114, 183.797 525.537, 184.589 524.745 C 184.806 524.527, 185.594 522.588, 186.339 520.434 L 187.695 516.518 188.211 525.570 C 188.724 534.567, 189.878 538.306, 192.913 540.808 C 194.697 542.278, 205.124 547.245, 205.476 546.792 C 205.601 546.632, 206.220 544.970, 206.852 543.101 C 209.842 534.250, 207.119 527.854, 196.381 518.505 C 189.354 512.387, 188.427 511.169, 187.825 507.264 C 187.453 504.855, 185.905 501.223, 184.383 499.192 C 179.772 493.036, 170.809 483, 169.923 483 C 169.465 483, 168.818 484.462, 168.485 486.250 M 662.329 496.610 C 660.584 497.470, 657.021 500.135, 654.411 502.532 C 648.888 507.602, 649.086 508.287, 657.451 513.085 C 665.678 517.804, 673.933 516.642, 689.995 508.503 L 695.419 505.754 690.959 503.413 C 683.670 499.587, 671.268 494.998, 668.282 495.023 C 666.752 495.035, 664.073 495.749, 662.329 496.610 M 93.082 497.928 C 91.062 499.206, 108.136 516.196, 113.325 518.073 L 117.108 519.441 109.319 521.470 L 101.530 523.500 97.015 521.382 C 91.712 518.895, 76.545 514.735, 74.427 515.187 C 73.270 515.434, 73.709 517.062, 76.500 522.875 C 78.448 526.931, 80.963 531.543, 82.089 533.125 C 84.448 536.438, 84.102 536.621, 79.739 534.365 C 77.207 533.056, 74.860 532.852, 67.939 533.344 C 63.187 533.681, 56.873 534.477, 53.907 535.113 L 48.514 536.270 54.507 541.660 C 57.803 544.625, 62.915 548.725, 65.866 550.771 C 72.729 555.530, 77.505 555.565, 86.648 550.925 L 92.983 547.709 90.905 544.346 L 88.827 540.984 91.478 541.992 C 94.497 543.140, 101.213 543.307, 105.979 542.354 C 109.078 541.734, 109.185 541.556, 108.607 537.942 C 108.275 535.870, 107.696 533.371, 107.319 532.389 C 106.708 530.797, 106.952 530.828, 109.567 532.673 C 114.606 536.230, 122.820 540, 125.530 540 C 128.518 540, 137.187 535.934, 141.316 532.597 L 144.131 530.320 138.526 525.198 C 134.979 521.956, 131.647 519.837, 129.450 519.425 C 124.428 518.483, 124.446 517.483, 129.520 515.545 C 131.984 514.604, 134 513.413, 134 512.897 C 134 509.486, 125.318 499.814, 120.685 498.064 C 117.278 496.776, 95.074 496.667, 93.082 497.928 M 474.350 506.250 C 467.504 518.901, 466.690 521.204, 467.458 525.754 C 468.145 529.815, 469.664 532.530, 474.305 537.987 L 477.111 541.285 480.677 537.893 C 484.923 533.855, 487.948 527.764, 487.978 523.193 C 487.990 521.373, 486.686 515.748, 485.079 510.693 C 483.473 505.637, 481.868 500.488, 481.512 499.250 C 481.156 498.012, 480.526 497, 480.111 497 C 479.696 497, 477.104 501.163, 474.350 506.250 M 141 509.484 C 141 511.305, 148.168 528.082, 150.405 531.495 C 152.802 535.153, 156.499 537.218, 162.319 538.149 C 169.022 539.221, 174 538.335, 174 536.070 C 174 532.410, 170.823 523.944, 168.345 520.998 C 165.336 517.423, 158.449 513.715, 148.575 510.356 C 140.378 507.567, 141 507.639, 141 509.484 M 354.437 515.250 C 354.053 516.487, 352.910 519.300, 351.896 521.500 C 346.852 532.446, 345.763 539.749, 348.422 544.800 C 349.203 546.285, 352.088 549.693, 354.831 552.373 L 359.819 557.247 362.581 552.873 C 366.060 547.367, 368.149 540.543, 367.403 537.129 C 366.614 533.519, 356.822 513, 355.889 513 C 355.474 513, 354.821 514.013, 354.437 515.250 M 446 548.238 C 446 556.300, 447.280 560.635, 450.730 564.257 C 453.663 567.336, 470.220 578, 472.069 578 C 472.715 578, 472.951 576.881, 472.648 575.250 C 472.367 573.737, 471.588 569.350, 470.916 565.500 C 469.444 557.054, 467.060 551.247, 463.871 548.337 C 461.695 546.351, 455.614 544.025, 448.750 542.552 L 446 541.962 446 548.238 M 142.750 543.675 C 140.688 543.920, 139 544.331, 139 544.587 C 139 546.711, 155.368 562.496, 159.230 564.095 C 162.730 565.545, 170.041 564.397, 176.930 561.317 L 180.992 559.500 177.246 553.798 C 171.816 545.532, 167.890 543.611, 156 543.399 C 150.775 543.306, 144.813 543.430, 142.750 543.675 M 103 544.923 C 103 545.431, 104.575 547.910, 106.500 550.432 C 108.425 552.954, 110 555.422, 110 555.918 C 110 556.413, 112.362 559.300, 115.250 562.334 C 121.558 568.962, 124.993 569.931, 134.849 567.865 C 142.407 566.281, 142.574 565.847, 138.643 558.009 C 135.111 550.966, 129.756 547.530, 119.327 545.616 C 109.466 543.806, 103 543.532, 103 544.923 M 480.127 553.040 L 473.754 555.988 476.582 559.744 C 484.348 570.059, 488.894 571.694, 505.124 570.006 C 511.381 569.356, 516.865 568.475, 517.312 568.050 C 518.063 567.334, 506.631 557.241, 499.346 552.188 C 494.803 549.037, 488.141 549.333, 480.127 553.040 M 544.500 551.861 C 542.850 552.880, 540.767 554.566, 539.872 555.607 C 538.114 557.651, 533 567.025, 533 568.203 C 533 569.326, 542.943 572, 547.116 572 C 549.181 572, 552.006 571.568, 553.394 571.040 C 555.734 570.151, 556.118 570.445, 558.632 575.065 C 561.599 580.516, 565.175 583.199, 571.838 584.971 C 577.657 586.518, 592.271 589.062, 592.727 588.606 C 592.927 588.406, 591.680 585.849, 589.955 582.924 C 587.004 577.918, 586.924 577.529, 588.601 576.303 C 590.781 574.708, 590.658 574.707, 600.500 576.485 C 604.900 577.280, 610.428 577.946, 612.785 577.965 C 616.765 577.998, 616.994 577.857, 616 576 C 614.688 573.548, 614.719 573.547, 620.123 575.931 C 626.111 578.574, 639 582.063, 639 581.041 C 639 577.862, 629.157 558.339, 626.252 555.756 C 622.851 552.733, 612.146 551.050, 606.296 552.618 C 604.435 553.117, 604.185 553.698, 604.690 556.355 L 605.288 559.500 602.894 557.317 C 598.734 553.523, 595.550 552.869, 586.666 553.983 C 582.203 554.542, 578.428 555, 578.276 555 C 578.124 555, 577.982 555.563, 577.959 556.250 C 577.917 557.542, 569.368 562, 566.932 562 C 566.175 562, 567.792 560.022, 570.527 557.605 C 573.262 555.188, 575.264 552.965, 574.976 552.665 C 574.216 551.872, 558.413 549.999, 552.526 550.004 C 549.384 550.006, 546.375 550.702, 544.500 551.861 M 81.088 559.589 C 75.043 562.662, 69.618 565.755, 69.032 566.461 C 68.197 567.467, 70.334 568.532, 78.885 571.373 C 95.720 576.965, 99.933 576.318, 108.467 566.825 L 113.195 561.567 110.563 559.469 C 107.184 556.774, 99.411 553.989, 95.289 553.995 C 93.375 553.998, 87.635 556.259, 81.088 559.589 M 158.500 567.645 C 153 569.010, 147.150 570.044, 145.500 569.943 C 135.159 569.306, 129.842 569.864, 121.250 572.486 C 116.162 574.039, 112 575.626, 112 576.013 C 112 577.045, 121.724 583.327, 129.033 587.016 C 134.169 589.609, 136.204 590.124, 139.737 589.726 C 142.136 589.456, 143.964 589.337, 143.799 589.462 C 143.635 589.587, 139.900 591.603, 135.500 593.942 C 123.306 600.425, 123.300 600.124, 135.706 604.251 C 141.643 606.226, 147.869 608.073, 149.541 608.355 C 154.074 609.118, 159.893 606.025, 165.356 599.949 C 170.880 593.805, 170.889 593.827, 161.151 589.267 C 156.993 587.320, 154.765 586.876, 151.151 587.273 C 146.557 587.777, 146.531 587.763, 149 586.152 C 150.375 585.254, 152.645 583.391, 154.045 582.010 L 156.590 579.500 162.545 582.722 C 170.262 586.897, 174.833 586.969, 181.500 583.019 C 190.525 577.672, 190.570 577.610, 188.020 574.028 C 185.017 569.811, 176.393 565, 172 565.091 C 170.075 565.131, 164 566.280, 158.500 567.645 M 215.008 567.427 C 212.704 568.087, 208.543 571.403, 202.759 577.187 C 197.942 582.004, 194 586.347, 194 586.837 C 194 588.910, 213.681 589.772, 220.127 587.982 C 222.121 587.427, 224.998 585.742, 226.520 584.237 C 229.208 581.578, 233.971 572.704, 233.990 570.317 C 234.010 567.874, 220.581 565.828, 215.008 567.427" stroke="none" fill="#068406" fill-rule="evenodd"/></svg>